<mxfile host="Electron" agent="Mozilla/5.0 (Windows NT 10.0; Win64; x64) AppleWebKit/537.36 (KHTML, like Gecko) draw.io/24.7.17 Chrome/128.0.6613.36 Electron/32.0.1 Safari/537.36" version="24.7.17">
  <diagram name="PÃ¡gina-1" id="msOUf-Pa-ypY5SldHLYK">
    <mxGraphModel dx="1247" dy="727" grid="1" gridSize="10" guides="1" tooltips="1" connect="1" arrows="1" fold="1" page="1" pageScale="1" pageWidth="827" pageHeight="1169" math="0" shadow="0">
      <root>
        <mxCell id="0" />
        <mxCell id="1" parent="0" />
        <mxCell id="PpSk4LV_ncCEiy1BYX1b-61" style="edgeStyle=orthogonalEdgeStyle;rounded=0;orthogonalLoop=1;jettySize=auto;html=1;exitX=0.5;exitY=1;exitDx=0;exitDy=0;entryX=0.5;entryY=0;entryDx=0;entryDy=0;" parent="1" source="E0P7Fol2RNpZKMdlRS1I-2" target="PpSk4LV_ncCEiy1BYX1b-4" edge="1">
          <mxGeometry relative="1" as="geometry" />
        </mxCell>
        <mxCell id="E0P7Fol2RNpZKMdlRS1I-2" value="Lectures request" style="rounded=1;whiteSpace=wrap;html=1;" parent="1" vertex="1">
          <mxGeometry x="320" y="20" width="120" height="60" as="geometry" />
        </mxCell>
        <mxCell id="PpSk4LV_ncCEiy1BYX1b-59" value="" style="edgeStyle=orthogonalEdgeStyle;rounded=0;orthogonalLoop=1;jettySize=auto;html=1;" parent="1" source="PpSk4LV_ncCEiy1BYX1b-4" target="PpSk4LV_ncCEiy1BYX1b-27" edge="1">
          <mxGeometry relative="1" as="geometry" />
        </mxCell>
        <mxCell id="PpSk4LV_ncCEiy1BYX1b-4" value="Read Slave voltage by SPI" style="rounded=0;whiteSpace=wrap;html=1;" parent="1" vertex="1">
          <mxGeometry x="320" y="100" width="120" height="60" as="geometry" />
        </mxCell>
        <mxCell id="7PBAXSSDIrvYe4UH8ej_-4" value="" style="edgeStyle=orthogonalEdgeStyle;rounded=0;orthogonalLoop=1;jettySize=auto;html=1;" edge="1" parent="1" source="PpSk4LV_ncCEiy1BYX1b-16" target="PpSk4LV_ncCEiy1BYX1b-42">
          <mxGeometry relative="1" as="geometry" />
        </mxCell>
        <mxCell id="PpSk4LV_ncCEiy1BYX1b-16" value="Temp measurement by the microcontroller ADC" style="whiteSpace=wrap;html=1;" parent="1" vertex="1">
          <mxGeometry x="320" y="470" width="120" height="60" as="geometry" />
        </mxCell>
        <mxCell id="PpSk4LV_ncCEiy1BYX1b-23" value="" style="edgeStyle=orthogonalEdgeStyle;rounded=0;orthogonalLoop=1;jettySize=auto;html=1;entryX=0.5;entryY=0;entryDx=0;entryDy=0;" parent="1" source="PpSk4LV_ncCEiy1BYX1b-19" target="PpSk4LV_ncCEiy1BYX1b-16" edge="1">
          <mxGeometry relative="1" as="geometry" />
        </mxCell>
        <mxCell id="PpSk4LV_ncCEiy1BYX1b-19" value="Values to return array" style="rounded=0;whiteSpace=wrap;html=1;" parent="1" vertex="1">
          <mxGeometry x="320" y="390" width="120" height="60" as="geometry" />
        </mxCell>
        <mxCell id="PpSk4LV_ncCEiy1BYX1b-26" value="" style="edgeStyle=orthogonalEdgeStyle;rounded=0;orthogonalLoop=1;jettySize=auto;html=1;" parent="1" source="PpSk4LV_ncCEiy1BYX1b-20" target="PpSk4LV_ncCEiy1BYX1b-25" edge="1">
          <mxGeometry relative="1" as="geometry" />
        </mxCell>
        <mxCell id="PpSk4LV_ncCEiy1BYX1b-20" value="Values to return array" style="rounded=0;whiteSpace=wrap;html=1;" parent="1" vertex="1">
          <mxGeometry x="320" y="740" width="120" height="60" as="geometry" />
        </mxCell>
        <mxCell id="PpSk4LV_ncCEiy1BYX1b-62" value="" style="edgeStyle=orthogonalEdgeStyle;rounded=0;orthogonalLoop=1;jettySize=auto;html=1;" parent="1" source="PpSk4LV_ncCEiy1BYX1b-25" target="PpSk4LV_ncCEiy1BYX1b-53" edge="1">
          <mxGeometry relative="1" as="geometry" />
        </mxCell>
        <mxCell id="PpSk4LV_ncCEiy1BYX1b-25" value="Current measurement by the microcontroller ADC" style="whiteSpace=wrap;html=1;" parent="1" vertex="1">
          <mxGeometry x="320" y="820" width="120" height="60" as="geometry" />
        </mxCell>
        <mxCell id="PpSk4LV_ncCEiy1BYX1b-31" style="edgeStyle=orthogonalEdgeStyle;rounded=0;orthogonalLoop=1;jettySize=auto;html=1;exitX=0;exitY=0.5;exitDx=0;exitDy=0;" parent="1" source="PpSk4LV_ncCEiy1BYX1b-27" target="PpSk4LV_ncCEiy1BYX1b-28" edge="1">
          <mxGeometry relative="1" as="geometry" />
        </mxCell>
        <mxCell id="PpSk4LV_ncCEiy1BYX1b-36" value="Yes" style="edgeLabel;html=1;align=center;verticalAlign=middle;resizable=0;points=[];" parent="PpSk4LV_ncCEiy1BYX1b-31" vertex="1" connectable="0">
          <mxGeometry x="0.1252" relative="1" as="geometry">
            <mxPoint y="10" as="offset" />
          </mxGeometry>
        </mxCell>
        <mxCell id="PpSk4LV_ncCEiy1BYX1b-32" style="edgeStyle=orthogonalEdgeStyle;rounded=0;orthogonalLoop=1;jettySize=auto;html=1;exitX=1;exitY=0.5;exitDx=0;exitDy=0;" parent="1" source="PpSk4LV_ncCEiy1BYX1b-27" target="PpSk4LV_ncCEiy1BYX1b-29" edge="1">
          <mxGeometry relative="1" as="geometry" />
        </mxCell>
        <mxCell id="PpSk4LV_ncCEiy1BYX1b-37" value="No" style="edgeLabel;html=1;align=center;verticalAlign=middle;resizable=0;points=[];" parent="PpSk4LV_ncCEiy1BYX1b-32" vertex="1" connectable="0">
          <mxGeometry x="0.4875" relative="1" as="geometry">
            <mxPoint y="-11" as="offset" />
          </mxGeometry>
        </mxCell>
        <mxCell id="PpSk4LV_ncCEiy1BYX1b-27" value="Are the values inside&lt;div&gt;the margins?&lt;/div&gt;" style="rhombus;whiteSpace=wrap;html=1;" parent="1" vertex="1">
          <mxGeometry x="300" y="180" width="160" height="90" as="geometry" />
        </mxCell>
        <mxCell id="PpSk4LV_ncCEiy1BYX1b-33" style="edgeStyle=orthogonalEdgeStyle;rounded=0;orthogonalLoop=1;jettySize=auto;html=1;exitX=1;exitY=0.5;exitDx=0;exitDy=0;" parent="1" source="PpSk4LV_ncCEiy1BYX1b-28" target="PpSk4LV_ncCEiy1BYX1b-19" edge="1">
          <mxGeometry relative="1" as="geometry" />
        </mxCell>
        <mxCell id="PpSk4LV_ncCEiy1BYX1b-28" value="Set 0 in the error_eval_array" style="rounded=0;whiteSpace=wrap;html=1;" parent="1" vertex="1">
          <mxGeometry x="200" y="290" width="120" height="60" as="geometry" />
        </mxCell>
        <mxCell id="PpSk4LV_ncCEiy1BYX1b-29" value="Set 1 in the error_eval_array" style="rounded=0;whiteSpace=wrap;html=1;" parent="1" vertex="1">
          <mxGeometry x="440" y="290" width="120" height="60" as="geometry" />
        </mxCell>
        <mxCell id="PpSk4LV_ncCEiy1BYX1b-35" value="" style="endArrow=none;html=1;rounded=0;entryX=0;entryY=0.5;entryDx=0;entryDy=0;" parent="1" target="PpSk4LV_ncCEiy1BYX1b-29" edge="1">
          <mxGeometry width="50" height="50" relative="1" as="geometry">
            <mxPoint x="380" y="320" as="sourcePoint" />
            <mxPoint x="430" y="270" as="targetPoint" />
          </mxGeometry>
        </mxCell>
        <mxCell id="PpSk4LV_ncCEiy1BYX1b-38" style="edgeStyle=orthogonalEdgeStyle;rounded=0;orthogonalLoop=1;jettySize=auto;html=1;exitX=0;exitY=0.5;exitDx=0;exitDy=0;" parent="1" source="PpSk4LV_ncCEiy1BYX1b-42" target="PpSk4LV_ncCEiy1BYX1b-43" edge="1">
          <mxGeometry relative="1" as="geometry" />
        </mxCell>
        <mxCell id="PpSk4LV_ncCEiy1BYX1b-39" value="Yes" style="edgeLabel;html=1;align=center;verticalAlign=middle;resizable=0;points=[];" parent="PpSk4LV_ncCEiy1BYX1b-38" vertex="1" connectable="0">
          <mxGeometry x="0.1252" relative="1" as="geometry">
            <mxPoint y="10" as="offset" />
          </mxGeometry>
        </mxCell>
        <mxCell id="PpSk4LV_ncCEiy1BYX1b-40" style="edgeStyle=orthogonalEdgeStyle;rounded=0;orthogonalLoop=1;jettySize=auto;html=1;exitX=1;exitY=0.5;exitDx=0;exitDy=0;" parent="1" source="PpSk4LV_ncCEiy1BYX1b-42" target="PpSk4LV_ncCEiy1BYX1b-44" edge="1">
          <mxGeometry relative="1" as="geometry" />
        </mxCell>
        <mxCell id="PpSk4LV_ncCEiy1BYX1b-41" value="No" style="edgeLabel;html=1;align=center;verticalAlign=middle;resizable=0;points=[];" parent="PpSk4LV_ncCEiy1BYX1b-40" vertex="1" connectable="0">
          <mxGeometry x="0.4875" relative="1" as="geometry">
            <mxPoint y="-11" as="offset" />
          </mxGeometry>
        </mxCell>
        <mxCell id="PpSk4LV_ncCEiy1BYX1b-42" value="Are the values inside&lt;div&gt;the margins?&lt;/div&gt;" style="rhombus;whiteSpace=wrap;html=1;" parent="1" vertex="1">
          <mxGeometry x="300" y="560" width="160" height="80" as="geometry" />
        </mxCell>
        <mxCell id="PpSk4LV_ncCEiy1BYX1b-43" value="Set 0 in the error_eval_array" style="rounded=0;whiteSpace=wrap;html=1;" parent="1" vertex="1">
          <mxGeometry x="200" y="660" width="120" height="60" as="geometry" />
        </mxCell>
        <mxCell id="PpSk4LV_ncCEiy1BYX1b-44" value="Set 1 in the error_eval_array" style="rounded=0;whiteSpace=wrap;html=1;" parent="1" vertex="1">
          <mxGeometry x="440" y="660" width="120" height="60" as="geometry" />
        </mxCell>
        <mxCell id="PpSk4LV_ncCEiy1BYX1b-45" value="" style="endArrow=none;html=1;rounded=0;entryX=0;entryY=0.5;entryDx=0;entryDy=0;" parent="1" target="PpSk4LV_ncCEiy1BYX1b-44" edge="1">
          <mxGeometry width="50" height="50" relative="1" as="geometry">
            <mxPoint x="380" y="690" as="sourcePoint" />
            <mxPoint x="430" y="640" as="targetPoint" />
          </mxGeometry>
        </mxCell>
        <mxCell id="PpSk4LV_ncCEiy1BYX1b-46" value="" style="endArrow=classic;html=1;rounded=0;exitX=1;exitY=0.5;exitDx=0;exitDy=0;entryX=0.5;entryY=0;entryDx=0;entryDy=0;" parent="1" source="PpSk4LV_ncCEiy1BYX1b-43" target="PpSk4LV_ncCEiy1BYX1b-20" edge="1">
          <mxGeometry width="50" height="50" relative="1" as="geometry">
            <mxPoint x="330" y="660" as="sourcePoint" />
            <mxPoint x="380" y="610" as="targetPoint" />
            <Array as="points">
              <mxPoint x="380" y="690" />
            </Array>
          </mxGeometry>
        </mxCell>
        <mxCell id="7PBAXSSDIrvYe4UH8ej_-6" value="" style="edgeStyle=orthogonalEdgeStyle;rounded=0;orthogonalLoop=1;jettySize=auto;html=1;" edge="1" parent="1" source="PpSk4LV_ncCEiy1BYX1b-48" target="7PBAXSSDIrvYe4UH8ej_-5">
          <mxGeometry relative="1" as="geometry" />
        </mxCell>
        <mxCell id="PpSk4LV_ncCEiy1BYX1b-48" value="Values to return array" style="rounded=0;whiteSpace=wrap;html=1;" parent="1" vertex="1">
          <mxGeometry x="320" y="1090" width="120" height="60" as="geometry" />
        </mxCell>
        <mxCell id="PpSk4LV_ncCEiy1BYX1b-49" style="edgeStyle=orthogonalEdgeStyle;rounded=0;orthogonalLoop=1;jettySize=auto;html=1;exitX=0;exitY=0.5;exitDx=0;exitDy=0;" parent="1" source="PpSk4LV_ncCEiy1BYX1b-53" target="PpSk4LV_ncCEiy1BYX1b-54" edge="1">
          <mxGeometry relative="1" as="geometry" />
        </mxCell>
        <mxCell id="PpSk4LV_ncCEiy1BYX1b-50" value="Yes" style="edgeLabel;html=1;align=center;verticalAlign=middle;resizable=0;points=[];" parent="PpSk4LV_ncCEiy1BYX1b-49" vertex="1" connectable="0">
          <mxGeometry x="0.1252" relative="1" as="geometry">
            <mxPoint y="10" as="offset" />
          </mxGeometry>
        </mxCell>
        <mxCell id="PpSk4LV_ncCEiy1BYX1b-51" style="edgeStyle=orthogonalEdgeStyle;rounded=0;orthogonalLoop=1;jettySize=auto;html=1;exitX=1;exitY=0.5;exitDx=0;exitDy=0;" parent="1" source="PpSk4LV_ncCEiy1BYX1b-53" target="PpSk4LV_ncCEiy1BYX1b-55" edge="1">
          <mxGeometry relative="1" as="geometry" />
        </mxCell>
        <mxCell id="PpSk4LV_ncCEiy1BYX1b-52" value="No" style="edgeLabel;html=1;align=center;verticalAlign=middle;resizable=0;points=[];" parent="PpSk4LV_ncCEiy1BYX1b-51" vertex="1" connectable="0">
          <mxGeometry x="0.4875" relative="1" as="geometry">
            <mxPoint y="-11" as="offset" />
          </mxGeometry>
        </mxCell>
        <mxCell id="PpSk4LV_ncCEiy1BYX1b-53" value="Are the values inside&lt;div&gt;the margins?&lt;/div&gt;" style="rhombus;whiteSpace=wrap;html=1;" parent="1" vertex="1">
          <mxGeometry x="290" y="900" width="180" height="100" as="geometry" />
        </mxCell>
        <mxCell id="PpSk4LV_ncCEiy1BYX1b-54" value="Set 0 in the error_eval_array" style="rounded=0;whiteSpace=wrap;html=1;" parent="1" vertex="1">
          <mxGeometry x="200" y="1010" width="120" height="60" as="geometry" />
        </mxCell>
        <mxCell id="PpSk4LV_ncCEiy1BYX1b-55" value="Set 1 in the error_eval_array" style="rounded=0;whiteSpace=wrap;html=1;" parent="1" vertex="1">
          <mxGeometry x="440" y="1010" width="120" height="60" as="geometry" />
        </mxCell>
        <mxCell id="PpSk4LV_ncCEiy1BYX1b-56" value="" style="endArrow=none;html=1;rounded=0;entryX=0;entryY=0.5;entryDx=0;entryDy=0;" parent="1" target="PpSk4LV_ncCEiy1BYX1b-55" edge="1">
          <mxGeometry width="50" height="50" relative="1" as="geometry">
            <mxPoint x="380" y="1040" as="sourcePoint" />
            <mxPoint x="430" y="990" as="targetPoint" />
          </mxGeometry>
        </mxCell>
        <mxCell id="PpSk4LV_ncCEiy1BYX1b-57" value="" style="endArrow=classic;html=1;rounded=0;exitX=1;exitY=0.5;exitDx=0;exitDy=0;entryX=0.5;entryY=0;entryDx=0;entryDy=0;" parent="1" source="PpSk4LV_ncCEiy1BYX1b-54" target="PpSk4LV_ncCEiy1BYX1b-48" edge="1">
          <mxGeometry width="50" height="50" relative="1" as="geometry">
            <mxPoint x="330" y="1010" as="sourcePoint" />
            <mxPoint x="380" y="960" as="targetPoint" />
            <Array as="points">
              <mxPoint x="380" y="1040" />
            </Array>
          </mxGeometry>
        </mxCell>
        <mxCell id="7PBAXSSDIrvYe4UH8ej_-1" value="" style="shape=image;verticalLabelPosition=bottom;labelBackgroundColor=default;verticalAlign=top;aspect=fixed;imageAspect=0;image=data:image/png,iVBORw0KGgoAAAANSUhEUgAACfoAAAMGCAYAAAHXHpfRAAAACXBIWXMAAC4jAAAuIwF4pT92AAAgAElEQVR4nOzdv48cS7bg9ziju9q59wFLct68N6sdjIqEAAlYh6QhAWVdErJkkTQkmWwaZV/yHxCb3hoCSEJmCWC3XBlsyhIgQOy2ShAEkDQkyBI7MRrhDd7skC3gzR29BTaE6BvZE52dWZU/IjPjx/cD1Nwh2V35s6JOnog4IVprBQA5+hlXHUCuvuHKh0NETpVSi6E7pLWWhE4LMBoiwBmIiK57KaUOTOPV92WP5CyrkwkMQA5wZCLyUCn1trKVR1rrI59btg0o0R/QAY/AIygbo9LYjZKIXFc0fkBnPAJ7ICJH7iNt9RF2gl34QuMHdEcE2JOIfFRK3S5/e64GqGxw59g2EDsiwA5MPq+M8pRSNyeO8q6w+3F/jm0DKaATpAU3pxdKtEWnBzAcEWADN683d6RXJSJfFY0fMBg5wIoQoz2X7fG9RuMHDMcjsBXLIyWdHoA/WT8Cm0fJ6mNuALvViMYP8CvLR+DQH3Pr2H2+Ed6eAfHKKgJ0hrDcjSHiK9kxh6ax/hrEDgGJyCIHGPuQER59gXEkGwGKyH5M+T0A00suB2jHyF1TjJMDsEMyDWCMHRsA5hX9I7DTsXGS6qOuOaZqiS0Aw0XbADoN3xPb8N0LYLfGdJdGEPArul5gpxG4pbU+nXl3JkcRBMCfaHKAfPB/Yh+Hv3I+gOGCfwRmKMtVWuvr9ly8cCpRPw1tP4HQBfsITITTzdTrkAApCC4CjCHicwdZD3wdi4iXzpvqOiQNy24CcASTAwwh4rON0fuOv/ZCa70/0i71Vj2P5tgaGsEbzDFGrmZ/BJ6j4TMRnFLqeYsfPUl9eE1TZMgjNHIwWwQ4VcMnIq+UUj9s+5mcP+x1x74lWlS5Dj9CmiaPAMdu+HbkupKP6Ma25fxybhGdyTpBxurcMMM/mhL91Y4BPqDD1ZzT8np+3NIhFNwQHQ8dWMHlfdHd6BHgGBFfQxRSaK1v+toG/NkRlT/TWr+a+nQPqbFoO8tMA/h9h1/7pJS6R4dTWEZrAH03fHUfIhL18ds1PGeMazxHgdkOHW9BjipIlddHYBHZ8/moW320rXnsQuSaHqnt9X3U4lG0U1pjrvGQplHbdqzOMe/tON69OfY/VV4iQJ+1+Kpj8WjosE3LBu3EfVyN+Z7acbz3tdbHE+5O9AYNg3EuxuD8GwVN0ceue8V+od5LpQNs2/HaCLHun0zJuINRdyxSnSNA26P3UnlqqJjzC4yLwe7NWkeAviM0d3nKoe8FoFmXwe65fR63RoBjPJayxCMQJhG5rpT6Ut25lD+vtRGg0/B5nygfy8lcrJe1N4OrWG1oyJEM+1mvFtHYT7nU2qUIsJw3m2uEtlgvTaL4cY9f/W2x2vz7I+wSEJyaR+doe58vGsCcOyMW6+XFWsJDERUiNzUNYjQFM84bQBG5o5T6kGnjN8rAWBpC5CqmR+ayAcyuY2KxXj5USr0dcRN/Klabvxrx/YEoVBrEd1rrh6Hs989s9Je0xXr5yo30Fuvlx5EbP+M7H9FllwolY/x+i/3ZOcC4HHKxbRtDy/bvOLZe+akh+2SXO+i8D22ux67r5uGaep2LXJnqd6/r/o0punWB21isl+ZD+d8ppX5T/nj5SLpYL88f96fcnyGPw11ukobxXoN+v+377Pjdi+mNTT83NAfd8jjPzIp6Ld+v15RMETFfrre3/Uzb87zrXDX9XNvhay3O2ajLJYiImT32ufzzHE+hyTSAi/XyT0qpb+v+zW2Axsr57fBjsdp81+cXQ2gA277Hlt8PpQHs0pD1ymO13A8zAeDjrt/vcD0uvV/P96g18VIVk0+HjWZh9Ko+DVnfxq8awfV4n28X6+Vpsdp0ni/d99u9zXv1Vb5PtcSTaehCGA6x7ZyNme/e1mhW/u1DdbzdQIPfr2lfp+wfaNqHMbcfTQM4tPHq+PtbI7ZKRPkPJt/X4j0XHbYfLPdmNCWebA75gf2r954/2F6Uy4ROvc3qn0PIedUJcV+nagyDbQBnelQ1TorVpnXlENPT23Zfzc9FPjzmWfUvTI9eqB9spMF54nDnLx9qrQfXRgymAfQ5GLnUI/q7Uaw2nZO+Zjtj7H+AavNWwBRseqVsDE2Yej5ra0hUOFsDuFgvj5xHpxCc9Wn8SsVqc71NQ5tAFAjMruERufPKhJM1gIv10oSr/0op9auJNnnm/P9ix88uTAM2dIM2EuRxEJiQ84isu44mGK0BXKyXpsfzf5mwwbvEbdD69L6ivdRmEdUN7haRr23HEDYZ8zz57q2N8Zo6DeHNtg2h13GAgUU/u6K+Me3q8X1SrDa9SpR37RHz0YPmvEevqh9TjwPcNR6yRRn9XhWUPZ/rzmP43Eioy3ukPA12133lNQKcKrfVsqENedjJG6UUazQAI6t+KVQbwugGQpNjA9BVU0PodV1gtDbn4zmQLdvwvbZztmkAkb6BA7XvB36CQt+/EJmq9+dVsKKdCxy5WfKTQyq6TLUPgW3jvNOnYa3dILj7x4Jj3REBIitdGohY17lAs+qXBA3gPA5zPOgQ2IW/Gm0r8FrmjRI+N70L5cbAHsvdS8ecYkHUlDEOcOc+bi2HtWsbde/Tp8DoVOMAq5Vb6v7cdjt9xz/GwB7bE631peFn5ACRvJBLUYVkS/3CqNljqa1unUUD2HbsIEUKEClTpuwlF++ycnmCbREsOUAHg6wRI631RV6TSPcn9jxsbfxULg1gl8iORhCl1DoBcmA6ucqe3ja5S3KANZxG8G6x2lAEFIhAn460rHqBZ47uznzUHKQXeOc+DqoGM3D5z1l6gbftd99qMDFVixly72SVA5yxk+PPPhq/UKUyZswu8HTOXcy70jvae3B0imPr5lQuPm8rQff6bOfYCXK3xc94Vaw2tesVIzhtFsz/PtDL9jqAfZiEU/D0e/sF1akMviu7BtDm9CabicHQGkxBa/00hxNtG77PbTs5dr5fzjNBxs4JjtH4zZwD7JUviiUH2HY2yZh5tSE/U/donUoOcOj90STrcYBjRme5RH6VD92nGXclKNXGKOS8n5v7VAHta/mo22VYS1fZD4S2DdUTT2/3o3m/UBu/psnuXRLz236nrLGWsaLpXAV+Sj5suaaT38sicuT7UbdxWxRD+Au7dOebHr9qGr7vxtov15BH4F2GDA/Ztj+5PAJXf67J0KE0Ph6Bfeyrb3M8dtMANlislxcf2hqFXUt4jm/HWRrAHe91S2t9uuX3smkAqz9b5WNluS0N4HG1l3rAvh5qrfe2/a4Ple13Xth8KBpAANnKPgcIIF80gACyRQMIIFs0gACyRQMIIFs0gACyRQMIIFs0gACyRQMIIFujNIAisu9Mrm49taXPxPE+E87L/VMdp4pVtzvGz/bdxhBTnveux9W3oEDP/et8T0xV8KDv8UxVjME9dzFVvB4tAnTKiXcqId5nEesUVq6fS1lqSCn1ossu2N+5P8W577ONunL2YyjfP9Tt9DkHttR879L/MQltVbhOH0L4o7XeD/x0ngSwD7kItey/d+QAw3Z/gr2jiKmDBYvyMloD2CcHOGRbY29jDn2WoOzKFDFN8fyxAttPpjwHMT42B5cD7LutHr/2QkS+jrA7XpQ30xQ3VZ+8a+imygHGch4m2lx0j87ZPgLbnNe1AHalyffl0n8Tbe/GRNtB2qK6j0LrBIFjisjMWXAm2GgYk+vd4WTuI5F4gu7QIsDnoT+KOTmVdz1/LzRnE+5br+vbJxLumwNM7ZG55zm4N3Vp+rlQEh9AlhgCAyBLNH6BEJGHu9brbfPK/TwCbdHxMTHTyCml3tZtdWjOicYPaI/Gb2RdF6fuy5nDC6AFHns9MwOpK72N990BuDR8QBho/DyoNHZHlcZu1BkbPOoC/fDY25Pb6MwVdZXT9Yj6gO4Y59dBCA2ei8ddoD8ee3cQkSPnkfZWKJPnafiAYXjsbRBalOei4QOGI/JziMheGeWFWiKpjEAD2BUgauT8Ao/yXOV+EvUBw2Ud+Tm5vGehF8Kk4QP8yi7nJyI3lVKfVYQNCQ0f4E82jZ8dE3dexTm2RoQODsC/5Bu/WPJ5TUTkeph7BsQt2ZxfTPm8Hb4Q9QH+JRf5pdgxICJ3tNYfA9gVIBnJNH6p9oY6ixkR/QEeRf/YWx2UHMAujUJEiPwAj6Js/ETkXi6NnvpLNHub8lWAP1E1fiKybxuA97mtzl8eKw0g4EcU09tE5EAp9Vgx0Pccsz2A4YJu/ETkuFywmg/6VbGPYQTmFORjr4icliv15/Z424Vzbm5UlrUctXQ+kIKgGj+n0VuE2ujZzpZjH2vsmhymj33SWn+tluCq2daej20BqQjisTeUebfuY3ZLJ1rre3PtbxcNHSXR7D/g26yRX7nMo2n4poz0miKxmobvbnXZycormoajbv+VUqdjRqRAyGaJ/KaM9FoMDXmntX445j7EZss5I1JEMiad3jZFo7etsaPjpJ2m81Qu5tTwJneZf4yYTBL5jTkkY8uH8ZHW+sjnttDrOgT5pTNwsPiJUmp/7AXpMa5RI78xGj23ErOLqG5eW6LFvdAaxqHFYW1O9L1Ip7d4obUmlxqQUTo8nA6EMx8dGSLy0HnPsuG7VR3egfBorQ+aOoxMrcUphgL5ZhqxHR1hdcd6b8ex6oHRKDry+tjrXLzXWuunHt/vHI1cXmwlm9tbDrpzB0zISwKIiPnMvNz2M3wG/PES+TnfWjfsN13vhq/yLfia6C5fWus7O6KpzoPNQ76PtNavdhzviy3HRmdTR70jP5/FBkylYqXUB/tHU3b+1aCjAv5yb5lhTF9T75ywKYLndf9G4FCvc+PnsxPDea9P5lt+yHsBqP2MmWmNb2r+Kfsgo1Xj53t8HiWZgHk1dK54ydXHojHnVw5RsCfpq4+8m32/6+TwgHk15BQf1uQSb6Z6qa5EftTQ+8livTTR7r81nTg1//x7pdT/Waw2TPVC0moixEJrnUSDeKnxy/1xdLFe9h33c1asNiwujuS5HZ2lWNuLi8bPGarydfa9mthivfyTUupbD1ulEURWbG/6W/eYY2kMzxu/0Mc/jWVApLdVsdqQz0SWagZqH2qtgyykaz6kWT7qjtXwOZ4Vqw3jFZG1kGdpRb9oeRvVhm6Chs94OXQ7Xcrlb3mP1rMfWuzPfp+5qLt+fujcVncdZ1/zZX3+fofzdG/Xz+86vjbvUfn5Kz28bX6vrWqPcmVbs9bR/CbFiK+m0Xm05d/G3pePxWoT9QBuMzxJKfWl4d+Cf3KYch+3NfBT7UNbc+yr+562ASz/OPlEh0mLmY5lR4NmOiHO6/pN3fBZ2ybmx6K24XPFkDceex9bRs9BnKcQ9rXSEJ46+2SqQY3ecRhl47dYL1svNFT2vi7Wy75j8p4Uq82Bs20zgfw/7NI7bBrdPp0g1Yol5pHG1JFTPb+V+/zOtpxNiCWYqsc45z46K+ldzJAKgYhUc9FPTOkxNeP5cscOmiINzn6MtnRCFI3fYr00PUj/VcOA47bed/jZolhtagdyuo+wXSLJvg1gSKoNS5nDCX2f59hH91yZKMbdB/MlNnOhhR+c/39p+YEQrqn7+FvJQ5oanqe+thNk47dYL83B/w9Kqd8MeZ+ysenSSHVpoPq8P6bX9QNtI2z3z50e/+p+dsxGxU4Z7TU+t2HdlcLc1sP3bLimHKGPx/FgGr8AGpAfi9Xmuz6/aBrBNvufQvSXiS5PCSH4Yoet+XIaSuPnaki59J5uN1vjN3Zj50Rlrcba9W343O0RAQLTcPKpum/v9GSN34wNww82jG/UlN8bg8lfMvgZ8KMhGmy1jOpojV8oUdCUj5ktoz8z9SeZxo/SZO3Fcq5iXZi+Eg2qXUNmvDZ+EzV4/59S6p/u+JlisV566xXqKJhkMQZ70VQaHuFq+0jstfGbIspq2cDS+GAws0SliITc+N111r5BhdMIHtQ1glnM7QVS5Oa1Qh9vOSdTVaay+t35eaPxQ/JqZjQ0qo7xK5npV9wpcSsXmy+nnEbV+A2Yooa8/dDh6JvG+JFKSUxsc3tjG3walF2PRnNWPYnl/RE3d7YOj73IBsNy8mYLTFyIrfHbOlgZ2CbRqPBRi59pxVch2BDZxduvuV+AUT32TjkTI0UhRD51++DzQ1ZT0mroPNWTtuXT5qC1Pion+9vzeD/UfZ2L7d29Xb03eOxF0oauMRvrbIc+nMXLT+Lb+3r2C+FKw6dSqeS8ja0F+LLFj36Kvdw86vUsJ3WL0xm3XQUPko/8OhQRuG2rNCNT7hi/uqKZZkEp7o3wlQttOZFsLR57L7tNWaqsXQylakj6B5v7w0/s9XreJr+dRePXdc6xaQBpBBGRF7lfLDOMpU2050o+5+d41jL3d8FnA0gFZ4ylUoAhu4kAfYuZZvPYO2cB0ZQbvhTHhKnKYtu+3tM5V0zT9KA8n32vU1Y5v5kaoU8zbBNI1tBGr5Rdh8fUDSDDZwA/nCeM+z4i8ix7e20D+IeRN/OMPF8yOnUo1A2JEZGYvgSD6tV2Gr0XNtrzMuQo26EuxWrzN2M9kppGL8VFiqp5PTtfMgki4s4EudTYmQ4F55jbfPDqGo+LissjLVj+rs8vhZyrrWn09lv8Wvv315oRHYv18u+UUr/y8FZnxWrTuGDKUDZRft6b1zbs73JzN71n2/do8/u75vb2eZxpc1529Qj62EcP56n1cdT9THX7287l0H0dk7Nvt+oGm/uS01CXRsVq88/VsKEtJ8Vqk3UPHuWiWk+jO5xodwab+pr2HbLSF42fw83R2YbwR6XUtw0/frdYbbKYDmc/1MdNuSAavr/Y1gCGdJ7sft5pWgBposK2l+6pyRtbHnsB5Ii5vQCyROMHIEs0fgCyROMHIEs0fgCyROMHIEs0fgCyROMHIEs0fgCyNErj17e675S/Y/973OV3nd/r8jteK1H4NuSc9zx3nSqaTLl/fSqcTFXJesgx9f18dN1On9+d02iRX9cqq2Vl1r7b6XnSg12NyzbMkyyV2PX8lddpormYL/pcX98l6Ldtx1dxzRbb6XzOpzoPMaKwQbimbpiTWaUfaCPbnJ+IsEC5Q2vNojoo3e9zJmJbmGm0xm+qFb2c7XStZHt7pF2KzVlqK6+pCe+/0PU5DwMqTUe1bGYwOT8P23kw9rZSpLU2lafvprr0ZNffGW+P5tEj936senRMxYihLjAfEFIAlln5P4gdmc/39ouwa8650yJPIci98bsVwD40OZmiE4JHwyuuBbY/k+s56iLoIV11gmr8pv4g9lkcZeBYsNYJYdMBMVUnxFTnvWdE8XzIOe/6e6nhPDSjjD0AAEBGck/7Ab2IyMNyhuQIr4PYhs0BAOJB8IdsDQnelFJvlVKn5exeXy87x+KmGTZMlwUAYAx0+yIpImKmrnxpeUzvtNYPQzt+N+CjNAsAwDcyf4iK6Q7dkZH7UtYDbPEKKvBzC+1Skw8AMBZqmyI4IrKnlHqzZb8eaa2PUrpyTrbvRYzTZgEA8SD4w2xsfe2mMrO3+pSiiA1dvACAqdHti9HZ2at1XbQ3t3TNJh342dnCdPECACZH5g9eNc1OJbj5C+ccfdJa3wlhnwAA+SDzh94asnmHdZk8zvLlavP2vBD4AQAmR/CHVhoCvSc1gd4eZ/QyEXlFFy8AIBR0++IKu7J3dYHbQwK77pwuXs4fACAIBH+ZE5GnSqmXlbNwRnZqGGbxAgBCRfCXmboJGQQn/oiIqT/4QHFeAQCBYsxfwupKrNRNyMj9PPliz++D8hyncVQAgNSQ+UsIWb35uBM6Mj0FAIBIkPmLlIjcqcnqnZDVm567NFtOxw0AiJMJELh0ETCL/iulvq/saRZLoIWOrB8AICZ0+waKLtyoPFFKvTHXjGsEAAgdmb9A1AR7ptzK9WxPSGQo7QIAiAVj/mYgIjdrxuu9rozXI/CLiDvG0l7Tj7mfEwBAmMj8TUBEzMoObypbuq+1Pk7ygFHN5N7QWn/lrAAAQsCYvxGIyL5S6nnlnQkAMuJkAc0KKl9E/tITTLcwAGBOZP48qJuJyxc86jSsm/xOa/2QEwYAmALBXw8iYsqrLNzfJNhDX3Uzu61PWus7nFgAgE9M+GjBBHuVyRkLiinDl+q9VDN5ZNvrKRcCANAFmb8adV1zBHiXicg9pZSZyPJ4ws0WSqkj82KyzE+rvCilPrT88Rda6/2RdwkAEAGCv8yDPRExwdSDEd76nVLqFUHa/GyQeFwz1rAJgSIAJCzL4C/1YK9hKbg+TpRST7XW1KzLhA0Uj6pjWncgWASAiGQR/KUU7DXMFm3rTCl1j2AOvtju/4OOwaLxTGv9igsBANNLMviLOdirm0ncArNCEQ0RMWVt3vbYXzKMA5nVhZRSnzu8i8n+m/bUPDAeM4wDSEMSwV9dqYyQg70tpT3qsMYvsmczjPs9hjOYbPee1vqIc3jR7hRa65stft6cc/MyD5bXPQ0l6cMEoAda64OZtg8kJ8rgL4Zgr0N2g+AOGEnDajttvTYBZwor87i9ITENebEBqGlLf/D81md2QhqZZGQp+OBPRExg9KXy1yda63sz7dIlLbtRXmutqccGRGJAptH1wgYYswaP7sMyJat+Yh8KTFB5e+BbJfOAgLwEF/w1zFS9H8JYkx3j8Rh3B+Ccp+DROLQBZOdJWgR94/JwjRnDitnMGvw1ZPWCaKi2jMtjliKA0XkILoLpIcFlImIK5L/pcVqeMPYRPkwa/DUEVLPfzA3ZRrpqAQBB6DFL/pPp2tZan3IFUTVa8NcQ6L3TWj+c+ypU940uEQBASkTkVYeJMiQ7MvOzoYdrlgerW3Te3kzVxepnCfyc/Tp/AqpbQB8AgFSYYK7mO/jKSyl1w2QI677Ha14EiInolPlrWl0ixADKBKUhZBlzs1gvL8YYFasNBWEBIAF2DOr7FkdCFjECO4M/ukixWC/7rDrSxh+UUr9USt0qVhvGpQBAxJomcda4yzKj86oN/ioZPkqYZGSxXmpbALXv+sFeFKsNDxkAkBjbdfxyx1EFUd4tZZeCPxH5WBa9JMOXB9tNezR3sLeFCUTvFasNT4kAkLgWs5pZFcuDi+DP6d59xDqY6Vusl39SSn0b24GSEQSAfImIKQ33eMsJuEV5m93Og78y8CPbl7bFernrQxOTs2K14ekPAHBuV/FsYpy/uBT8KU5ONBbrZTlu4vdKqV/Z/f5Dsdr8TfUYEgv6rpgrG9hQHHywLp/BLSvRDDKkHei7TwO3WTsTcei5nLI97DCbcpdRMx8N13e0pco6TCKoGrRPPu4p1fLzsO09fe1Hn/2qE2uMsKPu4aHWem/iXZpVcGv74ieL9fKmUuqzUup3SqlftzktdUFQrN27Pdydelwgwd84+9Jz2wR/V3mfrLftnvd9rjoWKd5qrntKBRj8zfk5DdWWc5Ls+MJvAtiHbLUsodIm8CuK1eam+xd21m5OPizWS8YEzqDHslNbmYaYHggvbo9wLr0/7NTx/VAT+j1lJltOUVXD53m173VDa/3V13vOpeneMNel4ZwVWuubNX8fDYK/EU3U3Xol47VYL0f/MPYNshbrpWngPjg1/rwyQe9UAeCuRfPH6q5pY+IvusbAb9d+NH0ZEQD+RZvzMFYGOEBbMzEiYrp5n0d4XLfH3sC2e6Tv59R2xyf7OW0KyM1qYVMPf/CNbt8BFutlmfFo3TXrU0M37ygXdKyAarFe9h3Ps8vshaOnCP6aGuWJuysH7YOPY0i527fDeaztJp3ifrO8ffE1bOeJ1vpgwO93qh03Zbfvtvcdez+m/JymLqZzROZvCycw+WLXP2ySYuD3o1LqX44dQBWrzdfyydFmLH3VG/y8WC+fFKtNqy8LeHefUzots6SWiHgZI1fHjvfbxmTcRst6tA38YmXO767ehJmdTNXtH6u6IM8sNdsQFM7aZZ598LdYLz+2SLlvC/zmcFhzHH/0uB+TT55QPwWC5905HoPYN4v18sgGmACG4Yt/XJzfBGmtH1aPypak+SJyJVacrEZh8sHfYr0su0J+TGXWa7HaXJqS7jPjF8KEiXIfFuvlPyilvhv4dv+XUuoXfvYMAIBhbBb7UibbTpz7XA0Ix+oyjj74s8uTmfEQv1VK/WbLj6YS+F25EVKd4VqsNn+1WC//zqlj2MeNKSeBoDvGDKXDrNuqtX419wFFXIvuqC5TFILAu6SjZ1dWu3TfmtVMarqMvdQkjCL4s5mtXZm7bYEfIlWsNv88o1qFQJBajPcrmcLzswd/EXuQ+wnAX9gg71KgZ4JBEXlc+bnODztRBH+xZ20W6+X/7WtSSIb1+7wg+wcMUjce7ZYtRI9+mECBzqqBXl3ZmTbB4M849eMyEw7mmA0MAGNi8fxhmrpRbckeoBVTbNoEe+XLlFyy2cGLV937EPyNjzR+GIrcTwAwBTuTEf2NVq4H6TO1NivB4GFdEEjwBwAJGGuVjx3j/V7X/N0b7qfWeCjFqOy4wfP7zEwoKrdF8DeixXrZupo8APSxrWvHk7pxaWa82nlhaS5af03rw9pl6oDB7L20UJWag9kXeR4Zg3nDscjpYIcGA6mUX0lhzdshxzDWdaTsx+hGXS0FeXDbjmpbQOZvXKT0AczlykpAU7EFaxGp6oSBbS+ucXjc+oDO2L9LyPyNa5FoAPjzhsLLoR7rgjIvyNBjUw9sSPavQ32/qrfVgrWoZ65PXRBluuvM4H1OG9qyk63KMbdPtq2HTfA3IgIOzIVVM37S5TyEmsVocwzmSd8EeyNsvs3QlSdM8hgFXb9opdJ23dVa71ybn+AvAb4LPxO0AnExM/psAPh+gh1/4f7BZBdEhOAvIXUPHDYLzDj2gGwb07cLY/4SYIO13/s6EhNMLtbLxnQxgPBorSepLtC2K1JEmBTSUtMXNzUTUVUp3nzYNKZvF4K/RJg1cD0fyWMbBDKgF8jQgPF+pcz7yoIAACAASURBVCmykKkjo4pqwKecIs69Hw7o9k2IyQCOEay570mXMJCN2i4+ZngC4+uzXm8XBH+JsQHg3yulfjnGkVWCyz8423lRrDbeBycv1ss2XUfuzxwVq83Owa4AEJKmWb+V9g2JssMk3Gz5J631nbGO1qQNuZcSlGt3bUiZyZoP8zmfT3BNWZgpZ/s27MP9tmPQfByDj3Ndtx8Tn8egjqHhujSWjxh6H+x6Lw8ztzvti6/Pb5f7u0tWdcz9aPj92gkfVBbor+aa3NJan06xbcb8JcoEQTYQOsvkkB/RJQ344a4B6tpWN6wB4/4Ay0zg2TJ+T6YK/BTdvukrVpvrdubuGDXAgkDQB3j3gFM6vS1dv4hUzfW8obX+OvfRkPnLQLHa7NkA6UlCR3vmZDcRHpb3yk8uvQy5osZfC9Wl8OxQCTe7N3vgp8j85aVYbUwG8LzbJtIxgX8uVptvA9gP7PaDUurprp8iyxGVrcGd1vp6wzJl93zUIDTv3XK1E+6pDkTk466JBdRsrCci15VSXyr/+CKGZfkI/jLlZswCDwT/rJT6z4rVZpICtvDH+RIutNY33Tdu8QV9g0sxD7tSyBUmuOu5Q+99rfPr3DeXJp40fAlfMlUR7KFG7PptWobvtjv+zP0HETm1a9Tj6tq5F+e1x1jY2RH8oRoImgbSPAVem+nM/KiU+pbu3GGGfnl0mcHX4stq0XF/DkPpGsnU7OODW9xTb7osKceM1Itl+Pa2dd92bTdSP68i8rX6XZjKMRP84ZJitbmS3l+sl2M9/Zkn9RsEevErG8Qpg06kzQaAOzN6OxwOWQUhNVrr8/adz+lVTfdaqm0Sdf4AAEBWGuoWRtmF2wfBHwAAQEYo9QIAAJARgj8AAICMEPwBAABkhOAPAAAgIwR/AAAAGSH4AwAAyAjBHwAAQEYI/gAAADJC8AcAAJCRaII/Edk36xHWvK6sRethW3XbGWUplIZtHY2wnf3qcUxxbNU/j7Gt8th8v++W7d2Tke69qZmFy2e+18e4H8z77jt/Po79mKbcVt17p3D+pjDHNZrivE3R5jXdd7HfE6GKLvNnFlmuvI5H2tSLcjsjvf8F93js3z0Ye5sY5L395fcJnMZrqv4e9K7y/ven+nxNwG0rTsbcXE37F/X5S+2eqO7/VJ+pCc5bSm1e9hTdvnlysyJAVSIBGTwQkYecRyA9BH95ep77CRgqlQCpPA66VdDgLScGauI2z3YzH3DixxNd8DfFmL+p1YxreDf2LpD966d6v6Vw/9lG/R1ja8I38fi4F6mct1RNNNZ0jjbPdC8/nmA72WLMXwCmHPPnbIPsXz/VMS9JjIHRWj8kCxi+Kcf8aa3PHxBTeMBJ1UT3wpxt3usJt5UVun3zdpj7CegrlcypnQl78QDFeD/UYJA/JmvzKhNmnnLmx0Hw1yz5m05rvTf2NhLNGjyyWZFHAezLUN/b17mEhgO4me3vt/ycb1Nuawo8IEIl1uZlTxH81bNPHtfccRSJZUTOJtrODZM1mOo8jj0etHw/rfWR+9+YA1y3q9deo+cplA9RlbqSIx/T8xnv8VG76Kd4QER/E9QTTK7Nw0/MOAFOBQAAQAbI+gEAAGSCwA8AACAT33ChgW7sGJfy5XtQv1kS7LgsrQEAgE+M8QMcInJdKfUqoIKid7XWHwPYDwBAAgj8kCURMTMW3ww49vPMnM3OeSkq7mQSzb4t7F9/0lrfyfMqAQB8I/BD8myx4i5dsiao259rlRgRMRm+24riygAAzxjjh6TYQsRtl6d7VNamCoWI3CHoAwCMhcAPUXOzY1ucaK1jKTr6wf73ycz7AQBIEF29iErLbtsbWuuvER5b+WE801pfn3l3AAAJoo4fgiYiTyvLElWDPpPNk8or5qBPEfQBAMZCVy+CIyImcLvWsF/JzXKtBH2M6wMAjIbAD7OztfO+bNmPW1rr0xSvlMlolv+foA8AMDbG+GEWInJTKfW5YdvvtNYPc7gyTrYv2eAWABAOxvhhMibYc8bqVYO+Z844vdyCvk8EfQCAKZDxw+jcMWwVwdXRmwrj+gAAc2CMH0ZBsNeMoA8AMBe6euGNiLxyunJdbjdu7kHfRakZgj4AwNTI+GGwhuxeobW+ydn9CxHZK8vUEPQBAObAGD/00rSCBgFNMydAvqu1/hjiPgIA0kZXLzppWEHjoiuXs1mvMoOXoA8AMAsyfthJRA6UUo+rP0eg1w6TOQAAoSDjh0ZOds8N+sjudUDQBwAICZM7cImImHVwP1T/nqClO4I+AEBoyPjhnJmsYQMVN+j7RHavH9s9fo7zBwAIBWP8MtdQioV1YwcQketKqS/2HW5orb+OsiEAADqiqzdDZs3cmrVyyUz5UwZ9rwn6AAAhoas3I6b70Wb43KDvhO5cf5wM6pnW+mkKxwQASAddvRlo6M69r7U+zv3c+MRkDgBA6OjqTVhdwEdAMg6zTnH5xpxjAECoyPglhvF78yiDbM4zACBkjPFLhIg8rRm/d8j4vfG5pVsAAAj6O4uMX9xExKz7ertyEIzfmxDZPgBALBjjFynG7wEAgK4I/CJDwAcAAPoi8IsEAR8AABiKyR0BMzN0TcBXCfoouAwAAHoh8AuQiOzVzNB9YQO+e7mfHwAA0A9dvQERkX2l1PPKHjFDN3xnSqlrJlgnEwsACBnlXAIgIiaw+76yJzdY4D8elHQBAMSArt4ZicipDRgugr5y/B5BX3ROVPO6yAAABIGM3wxExAR119wtkymKnxv0cT0BACEi8JsQJVnSV7nGdNcDAIJC4DcBAr68VK831xoAEArG+I2opgafogZf+uz1fVYeqL0P9nI/LwCA+ZHxG0FNhu9Ma309iYNDJzX3wiOt9RFnEQAwBzJ+HtVk+Aqb4SPoy5TN/t1wjv6tvU8I/gAAkyPj50FNVueEFTZQJSLmAeBL9e/p+gcATIXAb4CagO9Qa81YLuzUVO+PIBAAMCa6enuo6dI9tF26BH1oxZnk88z9+fLesq87nE0AgE8Efh3UBHwvCPgwhNb6lRMEHlbe6kMlEGT4AABgELp6W6jpljMB336QO4skiMhDMxFkx7GYyUM3ueIAgLYI/LYg4PPD1rDbc9ckntmJ3fxxLNezZSComFgEANiGwK+iYeblE631wew7FxAReaqUejhxMGcCtmMbsB0Hf5JGJiLmnnzcYiuFUuqe1vo06gMGAAxG4GcR8F0mIiYT9nzkzZgxbQcEcf7Y+oAPWr7hMzPGMIbjAgD4kX3gl3PA16H7sKszpdQrusXDICImuPuh5c6Y7OBDrfXH1M8LAOQo28Avp4DPlgUxWbVrHt+W8Y4RszOE33c4AtPNvkd3MQDELbtyLibgs5M23KDviS2pEX3QZ7J4lRIg5lg/9Az6ynI1dS+CvoiZ7vW662quecNRmbGcn6v3loh8pMwMAMQjm4xfihk+ETGlPD57eKv7jLPDNh0mkrgYQwgAgUk+45dShs/MpK1k8roGfU0ZPII+bGWKlHfMEBovazKE5nVsH1oAABNLNuOXQoZv4MzaR1rrI8+7BLQyYOIQY0cBYETJBX4xB3y20PGbHr9Klxqi0bHkTKmwk0vITg9QU5R+l4vamUqpUyb3APFLJvBrGO8WfMDXpyFmZQakyE4SOeoxEYkZxy30aGt8ovg6EIjoA7+GshTBTlbokdWj6wvZGzDs4dCMT8z9/Ckn8LNjM3f9rHmQNq979jXXcouf7MMAASPgSbSBX0MAFWTAZwazd2g4WR4OaMkO7Tjo0XVsvFNKPc0hUygiX8tMapvAz/O2700YQJrM4j5BItAsusCv4cn/VmiNt9vQ7sD4PGAEtnD5q57BRmGDwiQmSHXJ9oXCZh33RgoYCRCRrWgCv4as2Q2t9deZdumKlsHeO631wxl2D4Blg4qDAQFFNIGDO7YvpsCvK5tZfNoz+1uH4BBJCj7wqwumQmq8RMRkGhfbfiblxhZI0cBSSsoGDa/mzhi6VQ5oh35iA8S9HgXJqz7ZwJCyWYhKsAWcnSLFF0GfUzR2VmbRe2f/6oK+w0qRWwARMROqmpYrND0NSqnXO47GZBLfNhSwLl/7NjAbU1naatf+ZsMuV1hbkNy5xndNO77jnNzecY2PKFSOEAWX8asrORBIsLdrebS7WuuPE+4SgEB5yBgqm1E66DMGuLp9HkD9G3iNKUGE2QQR+DVU+S+01rM/LW2rfUVjCqAP292472nSggkirtsMVNWZ1nrsrCIqBk4sooQXRjVr4NcwPm72m37bclMEewCmMDRrSFsVrp6r11C8H17MEvg1ZNFmn6HbNCuXBhRAiJwaeYoix/Gz1/Ng14TBCgJCdDJZ4CciZpr9y+rfBzJ+L8hxhQAAqH5ZQrqMUWv0wK8huzf7MkoNK38EVwgaAIAmHVeGIjuIccq5VMqdXHCmy88W9InIgd2vMuh75uwXQR8AIBomkKspR3O/Yf+/byg9c4crng9vGT9743yo+acgVqqoTCRhphsAICsm8dGhcDUlyhI1KPBzq8JXhTJGrhLwBbXEGwAAc+owe/yT1prMYAJ6dfU63bjVoO9uQKtrHNt9/OqkwAn6AACw6lapMRNDas7P7Zou4s7FxTG/1hm/Ldm9J1rrg5CupQ34yO5NbLFemoLbZdHtr8VqQzcBACSgQzcxkyQD1yrwq5mZy8ygTC3WS7db4HdKqV+3PBOF0+V+v1htqDcGAJGyyaDTutq3Fc/6LDuI8WwN/GoKGgeX3cO4FutlOWmnS5DXxaditWHcCABEruV4wdnLueWuMfCrZPnI8GVmsV6a6/8HpdQvJzzyW8VqQxcBACRgS7UPF/HFxGoDPzfoYwWLfNgxep8DOOBHxWpzFMB+AAA8alij30UgOLIrgR9BX55shi8oxWrD/QcACRMRMwnw9pYjpGvYs0uBH0FffkIM+KoIAAEgDy0CQSaLDHQR+BH05cVO2vifJh7D15cZa/gfM/4PAPJSM8m0itJtHZ0Hfu6JJehLXwxZviZk/wAgTyKyaxx6EEvEhq5cuYOgLxMxB30qgf0HAPRjCkNXVhh5VnmjB5WVRW5yqq/6mdPFexLSjsG/VIImgj8AgBnrVwkEzyon5TPLy13lrtX7vYgwhTpCi/XyugmGtgVEqQVLi/Vy9jEdNetWenkFsA/7Hs7NdTNIe8d2vJXsGXocTfvoa/+G7EPL1yTdW3OeJ3OMU9y7zva8vP+ufZ5qP7a8//GOfYxmlSWt9XUnCHxS+ecfnGPKekzgz+jejZMJfJxgr1xDuTZrm2iG7NpivfzXAewHHOap2n6ZfdkxM09VumWucx4HeTtHsDoF57jettjc89jOwxwJF/tgVp6n73f8+PdjBJxjM6uMVbKBrmtzPeCF4BvF2L4oLNbLXVPczcSHKw1I4t2iv1isl38qVpvvAtiX7A1sQL+IyCetNcv3DWSuQypt+pB7yv5uDDM+zTKok41Fa1EuZRsTWD+P8f5y99lmMb93/uzeZ3e11h8n38EJfZPywcVssV6axuBx20Oom+2ayVi4b81xMtt3Xp6emm+bjILWOpqsQqhSCP483VMm8xz6edi2ioVXdpxb36DvQuz3l7syiIg8VUq9dP75g8jFoT3SWie3itTPWvwMJrBYL/dt1+2fbMDWOuirYwPHbDDhYz6ex5ftWuAdLcXcheVz33PsytviB19vZNfhjZ47QcQEepXjeet0CSdTJoaM30wW66VZguaNLU7sFlH+tuseNWS7BgWOMVqsl/eK1SaagcgJaTP2qrWUuipzEXqm1oxpy73I7wgB8IcIsqmd2Oze+THV1Ax862QCo+4OJvCbiAlKlFLvlVK/VUr9xtnq0JUzXlT/YqLs1482SD2pG1vo7Es1jT4m86GdbJLAruCkoaEdfQHywIKmMzPTrvqXZGFae7EtoLIzox9s+fcDX+uc7piEYDK1XgK/FmU3npiB+zW/t+2eiqHLd1Z17UaLVTOSZWoGbgkC3e7g6FYOIfAbyWK9LG+U3yulfuVs5Tc+t1isNpcaWzsJZGxPitWmVVdysdqYRvyiIbdlWMZqSK4x3m9aO4KBW7bxvMJ8yRD8DVeuUrDlXJrMv68F7qfK6DV2R257qIn5njKBRdNnZQK1D2fKlkexM3mzHoJRCQLv2Gxn6UsZBMbSU0Hg55HNtP1Y6a791Vjbawhw/qOJt9f1Pc4bGDOmMffGJBGNgd+uLzKCP69eTPB52lX2Y2x3d71/xPfUwbbP0piagr6SyTibmbx1/2Ye/LTWWQ2vsV28ZRBYDtlS6vIDWKG1DnbVECZ3DLBYL0/LWnpO92rnMXoe98fsw889v60JZJ/5zqKZTKXznn/y+d5M9JhfhyffTymfh6nkMBM68RIbcwXV1SLHtRhzW8+tFaiUOnR+aOFMCnka0j4rMn7dLNbLreNppjRVd+bYNfLMcdhu8f/DZ9C8WC8fFqtNctPwU2Pq9pH1g2fFlCVSYlY3VhL92LG058MqKmMjX4rI+Tj3UAJoAr8tFuvlK5/T38c0RpZrwuDSdAl+5/kY3jKYG8jSKYEf5uR2n7sPts7/n7VYPV29DjMD1Xbb/p0NQkIN+m6NvYE5Jkj43qadSQ0AwCycruBnzvZvO13Bk48FzDrjZ7oDbWaoWmJltAkZHvzBZsjc4/Ca7ZtzVqzt+jVr8P7Cw9u9J+sHTINVV4BmplB0WeGiMrzls50VPNmEkKwCP6fEyu+UUr92/slriZWR1dX9MzWqbnjY7B+L1eavAzjG/4YZv0A4dpTtKT2dsORLcsz6sWPX+EQYyrF+9nP13v71ogwIxx4LmHxXr+26/aPNipUFGH+949dCVhfg+Qj6jP80hOOu1iYcghm+gBdtPpNZFvr1aO5yOZiYKYXjdAVfcLqBdxUz7yW5jF9DgWBfgdHsitXmUoVwJ7ApBuzb3yql/rFYbYIpl2C7fP8u8G53IBcEJcCInCygWxvwBxE5n2vgMwsYfeC3WC+Pc26UEl+lwkfQ96OH98CIqBEGn+guHQef02nYEjvnZXbqZgT7uA7RdfUu1suDStFknkQTZYPa3w88um9t/UUACMUJVwK7ON3AZ+WP+pgNHHzGz1nay9cEhpjdz/CYfWT9gii6DQDWXmXRf6BRWRdQRA7s+tvKmQ38pGsh7mADv5pB+bkHfYbJdgawG5OiCj+ApJh1rMuF/V3mi92uAAFcUa4OUpkN/EZEzJjAw7b3TrCBXypj1xbrpZkwcdvX23l6n9z8NvcTAEzBrEtq65Whn8flsl9AEzMbuKxR64wDfCwi5v452TXOlZU7xucr6EN/MdVpBIKypYZf3Tg16vgBE6opB/O9HQN43LQXBH7jI9sEIGZNwVzd31PLD5hBlwCQwG98ZJsCYNZhzv0cAD3VVU74ZLub0N8nzh18awoA3c0Q+I1osV5STyocD3M/AYBHlEgajodRjKYaALrBH4HfuN7PuXEAGIPWmrF8AzVlTEWEcwtv6go+E/ghFxT6RrIIFpLyPPcTgHER+AFA/AgWAFxR91BI4DeuocuNwR+WSEJyROSoOnB7bnaReQBhOH8odLt8CfzG5WO5MaATZy3Hvq9Uug2ftz3+APa1ydZjaLEc4aBlHrfU8NuGbuf2zny9EVAlIl/rTgqBH3JB6Qlkx0PJlV1BXF3gwgpD7VFtAGM6r6tZneBB4DeSxXp5PckDi1Sx2pCFQE4O62bz9bBrUhTLsw3AzF6MxenJOKxugsBvPNRoAjCXx1Nsl7Iuo5ltso7p3u8wRIRatQFyh69ora+MuSXwGw8fCACzGXHs4juuKhCmStBXm/X/hms3mmPbTVIkeGx1Y3hCPU7GGyFbInJQ98Q/EN27QIDaBH2KwG88dkwZ3SCYnKexXSl40bYrMuCZvTuPYce+my5fr4Efa/QC4Wkb9Cm6egEgbiEG+iLCbNX2nsSyowhTl6BPEfgBQBJu+D6IgQP36e1oSWt9UPeTIjLLBEGT0S0X+Hdfc+wLtjP3SNegT9HVm4bFeumrm+rHYrX5LvfzCcRGa/1VxPt385Dg7bbH/cjVS8ZToklliMcnrfWdtieLjB9c33oMIgHEbVcNPwAzqAR9t7oEfYrALxlel/0h+APQAetgAxMQkVfVrl2t9WnXLRP4JaBYbcwqIT/6PBKCPwAtMZ4PGJkN+H6wWzkbMu6SwC8d3/o+ksV6+Q8Zn08AV32q/g3lXbx4kcAxYARm+b6aLN+gJWEJ/BJRrDZjzLr6zmT+Fuvl1yxPKoCq23VLd3GWhmmq1UhZnLzZz9bF8n2+ZlcT+KGNazYA9L0CAIBEsY6rF28TOAZ0JCLHNVk+b8kdAr+E2Kyf17F+FW9sANh5MCmAeIhIp1mCDRj7B3RkA75yRv2gsXxNqOOXnn8cY7xfxaIy+cPM6tsvVhuvY30W66X58mkzlqHMLHwsVpsjn/sAZMpH0EY5GKCl6pCJMYtmE/glxszwnWFGrmng3y/Wy7lP5h+UUgR+wHAPOIfA+Ey3buUhqfUa433R1ZugkSZ6xGCV83WPFZMF4lG3lFdoy3mV46MivKeY2ZsREblZ6dYtP1+jD5Eg8EtXdkVV6eYFEKspvvARBhvwfS7/PPUDFIFfoorVJqsZdRlnOYEQkK0CdqjJPt+fI2NO4JewTIKhHwn6gNkdcAmAejUB36HN8s1S/JzAL3GJB0V/LFab7wLYDyAHh03H2LReKLX8kDMR+VoJ+M5swDdrTVwCvwwkGvyZoO+vA9gPIClbavj1yeoxbg3ZEZFTG/BdK4/dx1JrvhD4ZSKx4O9Hgj5gNE/r3rhnt9Qctfxirh/YmFVF+JwVNxblzoY4853ALyOpBH9076aD0i1Bepz7CZjL1F2AtoZcm5/zsZJLspwMX7U0S5DfuQR+mbHBX7Qz8JjIEQcCOvgmIh93vSVjCjtrmx39ENA+B8MZwxd0hq+KwC9DxWqzH1kAZVbkuEvQF6TGjIF5Ct62wwSH6Oh2i8zTe05qN7s+h9v+fa5ZqXNzZulWx/BF8R1F4JcxG0h9Cv0MFKvN3xSrzc6nfUxvR8O/sA3kpQHNIvKUoA9bPNnybx/q7h2nqw092M/pXuWcXuecXla3CkxMAV+JtXozV6w250/QM6zvuxMZvn48NNa+14r8ItLpUr7zuG1MxzxE3h66Na31gYi82fYzXe/x2L6YR1K4XZI13uw677mqu99ivqfI+OGcCbICCrTuE/TFw3cDqLV+mPgpS1Xtkok9x91lt+SkY5Rj11rf9Px+SbfR5Vq6laCviDHDV0Xgh0sqAeBvpzw75baL1SbLcSOR8/JlRWZmXubLrmEHdl7fLVniztljrbW3SRqx3VM+j73mvX2di2TLzojIfnUtXdsLIr6D57nQ1YtaZfC3WC/v2BldZoLFL0c4W0+K1YblniJnvqxE5GBIKRCCviB4C94cverqmfth6LAF7qlaN8zwiwG/fzj3yhNjsJPRql3h91OcwELgh63spIqLxnOxXh47DfnvlFK/bnkGy/Elr4vVprZALOJmvwz2+nxZ8wUdjNrAfa4vPxv83elRTiTJ4MQHrfXXn+KcvD+nO2Yrp92NrTWTdgAAQD5Sm7DRBYEfAABAJpjcAQAAkAkCPwAAgEwQ+AEAAGSCwA8AACATBH4AAACZIPADAADIBIEfAABAJgj8AAAAMkHgBwAAkAkCPwAAgEwQ+AEAAGSCwA8AACATBH4AAACZIPADAADIBIEfAABAJgj8AAAAMkHgBwAAkAkCPwAAgEwQ+AEAAGQimsBPRHTda6RtHVe2tT/Sdq4c0xjbqWzr3ra/87296t/53o6zrVGu0ZbtjXatpiQi16e4B6f6/Jr7oO6+G+ke3685ple+t6Omb/8uvfeI12qyY5pCzfdG9J+n6vbGev+mbaTU1oaEjF+F+SJUSn1f+evnE25/7Jt8sgAJUfhS3UkROeDS9fZDpPsNBEVEbnJFxhFb4PdCay3ua4RtPDX/U93GGBmDkrOdF2Ntw1ENaoEb7r2ulHrs+4xU3v/Kn2M2R1sxxfkTkb0x3z+1e0Jrfc89hrGPp3ovpPJ5EpE79v+Oev/ljIxfQLTWZOMwOa31V846arzhpGAGD+0mJ+tpyw2BX6bGfppHtE7sCwDmQMA3MgK/fBH49VCZHDNal95cbHdVcscFoJ/U27wcEfjli7F+/bjd8Ul0zYsIXb2ommK8MeKQXJuXOwK/gExQkoTGfDg3YE4leL4WwD4gIIw3hmPONu81F8K/2AK/56nUfHI5x8LYBkzKmYlq7sGnnP2wTd3+icjDFj+GGaRUA9FRTU7wADICMn4Zcuoj8TTVz1lKEyCcMhAvTRHamXcHYXnL9cBUbV4100zFgXFQxy8AzrGcTbQ35cQOnqb6MaszHMW4402czxJjPwOWYvuHfiau45dcm5czMn4B0Vpfn2hvzruUeZrqxzyVaq1HWZprTk63L12+AC5M3eYxe3hcBH5ARxmsH/kygH3A/BgKgnMztHnvOfPjIfDLz1TdyclxnkJflIOQY38yZUwfmmityfxmLsU2DwR+OWJcX3/n5852e5TnMfbzyZg+AE1SbPOyR+CXmbnGpk1Qo3AKdUFS9IGTiEw1thRAXOZo88peqUPulXEQ+F11HhhVayNprekS66ZQ09YoTLLG40S+VM5ZtA1umZWY8vM717a4x/OWaB0/5WQUySyOhMCvws50rdYrSnHFi1G/3LXWN2v+jvIT4blR3SOtdezrOL+r/HnKSQpMiAAGKHultNannMdxmNo/KR4XAAAAAAAAkC16ewEAAAAAAIDEfMMFBQCErqZ88B2lVNuCRKf2dYF6DQAAAABSx/ReAEBvInLTJuDM615my8LcJ3kIAAAAIFQk/QAAJnn3UCllXo8jORtFdfTeFiYheW2s/agrXg8AAAAAc2N6LwAkyE6H3ZswiWdWQybkuAAAIABJREFUvjy2r492NcykiMjXmuThQz4/AAAAAEJE0g8AImKTeU+VUg9G2OsycXektf7IffETEXmllPqh+vdaa5lplwAAAABgJ5J+ABAIm9Db91gX75NJ4CmlXqU48m5sImIWCvlSs5kbnE8AAAAAoSPpBwATsXXzTFLv9sAtmhF5B1rrA67dOBqm8h5qrfdSOUYAAAAAaSPpBwCe2JFhrwbW0TOj8/a11kdcl+mJiEnqvalumKm8AAAAAGJD0g8AOhCRmzax17em3olN6h1z3sMiInXL2d+lviEAAACAGJH0A4AaTYs3tPRMa/2K8xoHEflYM+X6k9b6Tu7nBgAAAEC8SPoByJYdtXfUo8bemVlBl5p6cRMRk9T7UD0IpvICAAAASMHPuIoAUmeSeyJyaqZvui+l1OcdCb/XJgFU87pOwi9u9vpXE37PSPgBAAAASAUj/QAkwy6kcdCx3p4ZtbfHwhl5EJGDmoVWzkwiN/dzAwAAACAtJP0ARElEniqlXnbYd5J7GbMJ4S81Z+CG1vpr7ucHAAAAQHpI+gEImk3WHHesu/eE6bcoNazKe6i13uMkAQAAAEgVST8AwRCRe0qp9x32h8QNGjVM5WWhDgAAAABZIOkHYBYiYpJ1bzps+xFTc9FG06q8TOUFAAAAkBNW7wUwOpPgq1k5tynhVyilbtWsmEvCDzs1rMr7wt5DJPwAAAAAZIORfgC86jhF95NS6h7JGAwlIh9r6j6yKi8AAACAbJH0A9CbiNy0i2wsWrwHCT541zSVl7p9AAAAAHLH9F4ArYnIcWWK7ueGhN9ZzRTdOyT84FPDVN4nJPwAAAAAgKQfgAYisl9Th+/7hh+/X0nwXddan3JuMQYRObX3o6uw994BJx0AAAAAmN4LYPtqp3XMogj7nDdMrWnFZ0b2AQAAAMBVJP2ADJlpultG7blOtNb3uEcwt5qRfcZdrfVHLg4AAAAAXEXSD0hc0+ioGqYO3x2m5SIkImLqQF6r7NInUyOSCwUAAAAAzajpByRGRD5W6vA1JfxeUIcPoRKRh/b+vZTwKxeF4cIBAAAAwHaM9AMi1mEUX2FH8bF6LoLHVF4AAAAAGI6kHxCRDrX4nrCKKWJUk/A7M6NQuZgAAAAA0A3Te4FAicg9d5quTYbUJfzMKL4blam6JPwQnZqE32sSfgAAAADQD0k/IBAiclBJ8L1v2LNnlQTfTabtInYNCb+nXFgAAAAA6IfpvcAMRMSMXjqtWZW0yqyoS1IPSRORV9XjI+EHAAAAAMMw0g+YgFlwozKK70tDwu+wZkVdEn5I3Q+V47vBFQcAAACAYUxSgVMIeGam6iqlHrd41/ta62POP3JWndprEt7cEAAAAAAwDNN7gYHsVN2PSqnFjncyC27cYeQeAAAAAAAYG9N7gY6qq+raqbp1Cb/qVF1q8wH1CvdvReSI8wQAAAAAwzC9F9jB1ONTSr1pcZ6eaK0POJ9AdzWr997SWp9yKgEAAACgH5J+QEWHenwkJQBPROSmUupz5d0eaa0Z9QcAAAAAPZD0Q/ZExNTju73jPBRmem7u5woYk62P+aW6CRb2AAAAAIDuqOmHrJikgoh8rdTkq0v4XanHx50CjMvUvKxL8NnP6kdOPwAAAAC0x0g/JK1hymCdF1rrfe4GIAxNo/6UUmda6+tcJgAAAADYjpF+SErNyrpNCb9HlZF8JPyAgDij/m5U9uqa8xnncwsAAAAADRjph6h1WFmXRTeAyJmp+Sbp13AU77TWD7nGAAAAAPATkn6Iih3Z83zHPp8ppW6akUJcXSBNdiTvNve11sdcfgAAAAC5YnovgiYiB5XpunUJv6IyVfc6CT8gbe5nXin1qeZg37ttB1OBAQAAAOSGkX4IiknyKaUe79inE631Pa4cgCq7AMjplmnALkYDAgAAAEgWST/MSkTMA/f3O/aBJB+A3lq2M6VnWutXnG0AAAAAsSPph0m1fPg+1FrvcWUAjEFEbiqlPrYcDVh6rbV+ygUBAAAAEAuSfhiViJhpdosd2+BhGsDsWpYXqHOolNpnhXAAAAAAISHpB69aJvleaK0pqg8gCiJipvv+MHBfXyulXpEYBAAAADAVkn4YhCQfUiAiZc3Im/Zl3FFKXbf/3/z3dgSHemanrbqO7d+daq2r/4aBRMSMUt7vOFW4ySebGDzgugAAAAAYiqQfWuuwKuYTHloxhE3C3bPJtjsdFmFIiUkAfbXHc1z5r2LV2TjYdvOpfflIDCp7bxyw4AgAAACAbUj6oRFJPnTlJOvuJZSoK5Nv5Yi5ryTc4Jv97JjE4APPb31oE4TcswAAAEBmSPrhAkk+qPgTd5/sPWySc8ckOpAa+/nc67ngyC4kCAEAAICEkPTLGEm+PIjIQ5sk8D2CyLdPdjTdsU3YfZ1280A6bPtuPvcPR0ren9jP6gGLkwAAAABhIumXEZJ86bCJvKeBjsR7p5Q6Mi8Sd0D4JkgQKpKEAAAAwPRI+iWMJF98Rqzr1dc7+5B+lPipB9CSbafKEcS+FiepOrOdB0w3BgAAAHoi6ZcQknxhC2R03ol9iOb6A5jERElCozDtG/U8AQAAgJ+Q9IsYSb6wiMi+Uur5DDt1YqfSvgr5/ABAGyJy0yYIp1hM6MwmCo9IFAIAACA1JP0iQpJvXiJiRum9nHAnTDLvFVNrAWA7Z9VxM6Lw9gSn651NFPJdi6CJyB2llOmUvO7s51e7yr2ytTYVSW8AANJE0i9gdrTDR5J807Dn+9VE9fRe24QeBe0BYAY2GfJwohGFylnMhOnHGJWNZz5HdJYL26mtyiSk89+PLAoGAEB/JP0C0iFIu88DQz/2Ie/VyA94h6ZXnYQeAKRlopWOq1gRHa2JiLk/31R+vqx3WbrjjPybs85wSD7ZEZBu0vGUWA4AEDuSfjOy05Het9gDknwdiYgJbh+P8NaFTegxshIA0IqzmIl5LSY4a2dOopASEZlo6Dy+EWqy2H4ulB1tq2wi8o79/ykmI0/sf49JKgIApkLSb0INva91bhEE7GZH7R15foAiqQcAmJ1N4DyceFShYhpynOwo1C+VnafTeAcbS153Eo/mvzcnSs77ckIiEQDQhKTfiFqONjO98TeZstNMRB7aaSm7ahu29UJrvT/T4QAAMJoZahW6SBjOoCHhR73nQNgE/k37mSyTjKGOZOQzDACJIennkYictugZLLTWN6M6sInYB5VjD8k9M1rvKVOaAABoz3ay3ZtwGnIVCYeORMR0Yj6v/BYj/DJgp0e7CcVQEonuyEMWYgGAmZH068kmqD60+O1DrfVekAcxE9sjfTBwldxPNrFHUAsAwMxsAqJMGN6eaW/OykRDDolDEakL4oOt4Ydw2eca9zVnApHkPwB4RNKvJRExK77+0OKnmU7h6FDHsM6ZTexxPgEASJTtDLznvOZKGpaCTjo0JPvOtNbXa/4emIyT/J9r5GH52TWLGH3kygMASb9aNvg8bTnNlEU3rAEr5h7a5B490wAAoDMn2XDH/tdXHeC+vExxtCOwDrYlQrXWMvXBAWOYMWn4ziYKGWgAIDkk/bqN4nuntX44wS4FT0SOekzPfaa1fpXh6QIAAIGzCYc7TuIw5BVcX2utnwawH8Ds7IANtybpFEl/kyg8oIY4gNBll/SzAd37lj9OIeR+I/iY4gwAALJjkw93PI9WYoEyYAR2ZeWH9jX2yEIz+vfIJgqZ3QRgMkkn/WxDftyyp5YFN5pXgWvCyD0AAAAAWZgwUXhoE4TZD0ABMEwyST/bs/qxZYLPLBBxJ/dafPZL62OLIfBMawYAAACAjkTEPEft9SiN1JaZavyKBCGAOlEm/TqO4FNM0/1Ji1F8Jhm6x/QRAAAAAJiWHcjydKTFTMyz3is7gpCFKIFMBJ/0ExHTK/Kmw69QT84SkeMtXxaM3gMAAACASInI05GmGr+2ycGP3BtA3IJJ+tnRe2aE2e0Ov/aIUWl/ISKnDaMfWeENAAAAADIkIndscvCpx9WNGTkIRGCWpF+P1WA/mSHOrHR0WUOSj8U1AAAAAACdONOL9zqU0trFrFy8T7ktYB6jJ/12TDGtoqbcFjXJUqYyAwAAAAAmY2fp7e2oF9/FiV2MhDwA4Jn3pJ+IfG05ZJgpp0CmFuvlnp1i4HsVszNbJuCoWG0IGgAAAICZ2JWLn3qqOciIQaCHwUk/+0F+u+PHXmit97lAQNoW6+V1W9vDHZFaKKX+Vin17YwH/0Up9XNnH96ZAKRYbag/AgAAAMxERMxKxfueEoOvbWKQsmCA1SvpZwuBftjyI9SVAxK2WC/NkP5jp9bH75VSv4r0iE1C8Ib9/4fFarM38/4AAAAAsDyOGGS0ILLTKeknIh+3rK57i1V7gPTY0Xundtr+H5RSv8zgMv/ojAq8X6w2BAYAAABAoERk30ONQWoLIjmtkn4i0vRDLCQBJMaO4vtsj+rHmaflhuhusdp8zP0kAAAAALGwowX3twxiasMkBZ9qrXkWQDS2Jv2aFuXQWguXGEjHYr0sV9k+a7kQT+7K83RSrDb3cj8ZAAAAQMw8JQVZrBTBqU36ichBpRD/OZJ9QDoW6+WpU5MPw30qVps7nEcAAAAgLTYp+GrA89MnO0qQskGY1JWkX8NU3husgAPEzxnRh3G9K1abh5xjAAAAIH0Dawqe2YQgpdPg3UXSz2au31Y28ElrzcgVIGJ2IQ6zQu0flVK/4FpOplz05Fax2rDIEQAAAJAhD1OHn2mtX3HvoI/zpJ+I1I3+YXQfELHFemm+GH7gGgaD6b8AAAAALojITTtt+EGPs2JGCO6x2jC2MTX6ylFAde4z5xyYh11F1/QIfSxWm9Y9O4v18uPAArQYj1kN+R+L1eY65xgAAABAExG5bhOCV9ZbaMHUEHyotWbGUebKkX5NS/iS9ANGtFgv3doPJiH0ZzPK1vnzvyhWm1Yjbkn2ReV8qnWx2mS5OFLD6PJgjbWI1Zbv3hC90Frvz7VfInLUswe8rVtzB8UiYlYCf9/yx0e5Hl3uyVQXd+t4Hcb0JPbaTh3buKifOSa4bw611nsjvn8rIbRTLh/fo0PastDORxu53Ks5sCMED3rG1EwXzsg3ilV5gdEs1svqKk+/U0r9umF739rXuWK1+a7Nfi3WS/PF+oarGJXz2oqL9fLvlVL/hJF/wFUTJ0U/i1yEQgTCCMEbESm/299prVNfHMokQ+4FsB+tDSza39VjEbkY6cOzmz/mOoaQjBsT92qabGdlbbtpawiahOC1hoN/KSIva/7+nV1QhNGBCfkm9xMADLFYL+/YQLUcgfJbpdRvtrxlU8KvZOoyqDZJIGeBDsTrl/ZamuTGYbHa0DOKrNlpLHO3a2UgzGJmCMUDmwQ/01pH0UlkkwxdRDP6W0Rmn1nhdIpQg3245zaWTw73ar5sjb/a7wsROdgyXfiB/c6p/n1hawcyCzRCJP2ALWxibd9ZEOP3SqlfbfmVbQm/Ng6K1ebprp9brJfmS/PfcO2S8nixXj7OdcovICJft/RIz+G2fVjhQQWhuGbvyUcRFG2falTRZOxUus+B7dYXESm01jcD2BcEgnsV29jp11cGGojInp2hVheLmVlr72uSgSwkEgGSfsjeYr18ahN7ZQP3xamrV7Ut4TfUrWK12TqU2i7uEdqXODxarJf/2owYZaVf5CTw+obmQeWu1vpjAPsCGG9FJIj6YD6ZWmOhjiKxD8OhllJZmDaUaZT9pTTFl3sVfdk6sldqyYqIeSY5cspVua7Z76Tq35MMDAhJPyTP1tXbd4a375qC25TwG8MfzBTPNqO7FuulSQj+VWLXyyRY/9FDMnVbrcTYmHp/vzBTflMd9ae1HlS3qWMR6pOh2wtBygGyx4TflYUP7GiHVx4WAflg3m7geyA9rRNv9qHpuq2/5GMU3HMReZXYKNQg6/rZsgM+kii1tbJ8JWnMgkcZ1H4cSxJTfLlXMQbb6XllhKaNsY4appA3JQPNNOF71AycFkk/RK+mrt6uBNDQKbi+nHVI+MW0ymcdd/Tkec9PsdqM0vNTs3jKj+4CKTGx1/1+sdpQPwO4aucURxtUXnqw6Jtk5CEFQzgjRY/d5MLAOpZfQkxG96jnVwq1rl/f69OqBmN1dM2OelvbjLnCOeLAvYrJ2Bjryswkmww8bhgZuKgsnlZi1ecRkfRDFBbr5Sunrp75Qvv5lkRODCO+TCJK7Ur4JTCd1/Tm3ClWm8lGIthk4pVEwGK9dAOTXbUZQ/LfL9bL/71YbaIfrQZU9UwODJrWaEZN9ky08JAC7+xIvb73ZKiSq+fX1ZDR2WW9LRE5bXhoxghyWMW3DvcqfLPJwLqRgdtWFL606rPjyiwOdEfSD0FYrJfVwqHbkjJTTr8dg0n4/a+7kji21mDdUuohOnOu3Y0pk3xt2ZVxL3qQFuvlkX2I/5NS6ruAz61Z4fc/MYu3tFnVGUjcLR9TQpxES+yjqJEI7smfhFzXry1f5RjMggddR1KlcP5mlOwqvk24VzGlphWFRWTbM+8bEalOKX/HzItuSPphEov18p5N6rWtqxfLKKyuTHLsyCagGtlRaf9FLAcVYzKqWG0uviyckaR/sEm20JhRrd+mXOcPaOFkhBow9zvUhwRGZ0ei5pz4C7KuX1u+66+akVQNo18A7lUkQWv9yuYJLtjR78cN9QIf1HxPntlagSy6VoOkH7yw01D3nR6eXcmTUOrqTckkOv/nlgm//9JOYQ5RWSPvSbHaJDHculhtTA+TeQVfP5HEHzLmfQSGGWVQU1cGQE8D6vmVQq3rN6cTzss0zIgjm4BAP9yr8MKOfq+rF9g0KtDMOPtQE9NlPz1YkfRDF4v1ct+p0/KjnRb51w1vEeJoqbn9sxYJv1d2hF+ICb8y2fcvQpy+60uZUDPTaRtqTsyOxB8AIFDZ1/ND1F5WRxwBCEfDqMA7dlRg3XNb3fTgQbWhY0TSDxdsXb19pxDrtlVwv411RdS57JoCa6dA/zDrTm6XdLKvqrxeduRfaCsA/57EHwAgRdT6AgC0Zaf0XnrO3jE9+LmIVDuokk4EkvTLiE0q7TvDrnfV1YthFdwotEzOhFpX6rWd/polc+0W62Voqyqampc/LtbL02K1ubI6FgAAEYu6rh/iJiJ7TAcE4rZlenDTgjN1icBnqUz3J+mXEJuYeOXcyNtWwFWZ1tWbmrkG/+OubYZaR46RZD+xIxzFTvn9dwMZ9Wf2YWFWeS5WG6aiAABm5aGeX4maYJiTmQpI0g9IkFlwRil1qdzWlkTgSxGp1g+8H+NIdJJ+kTEP+E7xSjPl8M9KqRsNR5HqCrgx+VXLOn6hrRpbMILsKjPlt1LbMgTUnwEAhIB6fgCAqDQkAo8bOqDeVxYLKbTWwT8zk/QLzGK9fGinNZTzz6mrFy9z7f7rXXvvrhyL8BWrzf5ivTwyK0QFsrM/Ut8P6E9rzWcHCIwpzG7rNGVPa81U54mJyEOt9VFWB+0B9ypSUb2XRcQk9j7WLBayEJHqjL3gpgWT9JvYYr28Y5N6D+yWtyX1FHX1ovZrpl2mqVhtPi7Wy1tKqc8BHOB54t+0LWa/5t8dAAAGM7HyQ04jZvLWPOdz8gGon5KApzWLhezZcgBV1WnBs48GJOnnma2rt++swmqK//98y4g8knppMsnc/y33k5CyYrU5XayX9wNZgOX3duQhASoAYHIe6/mVHrT7MaC1Z06JJAAYxC74c6n+Z8O04LrRgJPWBiTp14Otq7fvDO/8o1LqFw3v1FRvD2kzydz/1tZ/A8ZG/U4AwJza1vM7YaEOzMFMt6spyt9IRO7FWLAfwHxqpgU3jQas1gZ8obUeLW9A0q8HO2WTaZuBCHBhhRIFrTGpxXp5XKw21FMBAIRqv+0Ieer6YWbvmUEBYIjqaEARMbNCT2tqAz4XETd38E5r7a3Exc+4ikgAyTXgJ4yeAAAEy46cOmu5f8yWgG8vOKMA5qK1/qq1vm4WkStfdgR81QMzJdh5DRp1TNIPUVusl4xqAgAAmEmPen5tZ8tQ1w9edZ0+Z6b4cgUAjMlMCa4kAQ9rNvf9kCQgST/ELoRFFIBgkAgHAEys04yLMesWAZ4dcUIBTElrvVdJAtaNUK4mAbd+r5L0A4C0kPQDAIToXdd9EpGbXEl41mWKb7XuFgBMynSUtUgCPrfJv9qR9CT9EK3Feml6337HFQQuFCT9AACB6rMIHqMC4RVTfAHEzE0CKqVuVA7lh7pRfyT9EDNT6+XXXEHgkjucDgCIk+mpj2nHu9Tzs4t4lOoKl9d57GM/gQEOOHkAQmQWBlFKPavs2tPqrpL0A4C0MBUFACIjItdjS/hZner5OUikYE6vO2x7wZUCELCXlV27MjqZpB+itFgv95naC1xBmw4AEXGSfV9yum5a69ZJP+r6wTet9ZWRMNswxRdAiGo6C0+01h+ru8oDImL1nKm9wBX/tsOUKQDARETkjkkcmOmw7op7A5N9ZxFdvy6LJ1RR1w9z61OPEgBGU5PwK7TWtR0UJP0AIB1mCsqV3h3Er7Is/xwvHrrD8nyMeyD3k9pD6+uglPqglHo/YDrsFVrr63MduOpYz2/gdF7q+mEMhx3e8zZXAEAIRORhTcx2qLVuHBVP0g8A0nLE9QSAdDmr9s2tdQJTa31a89eMTMdstNZ7XbZtRutytQDMySb73lZ24dau9oykH6KzWC+pqwE0KFabY84NACTFTON9FlCyz5fWIwVN7cPgjwapy3KKry1LMMYMA57ngJZE5LhmdN+ZjQvqOtUuIemHGD00uQ2uHHDJbzkdAJAksyr7S+dhObYyDp/q/lJr3aWTihIDGMO7Du/5PVcAwJREZM8m+6rtz40uJT5I+iFGZnj9z7lywCW/UUrd55QAQPJuz12DsWM9Px9lJ37w8B7AJVrrh13OCCtJA5iCk+x7U9ncEzu672uX3fiGq4bYFKvN+XBwpvkCTOfNRWJT+jDcC62195FPLObRWe/rYKbqDB05ZK7XjG1Dl3p+jNJDKsyCNDx/ABiFiBw0LF5lkn29F8Qi6YdokewAAAAx0lpfJA62BPk5eN12FJ+p69d1dAPQwkmHBDxTfAF4JyJfbSmPqkHJvhLTewEAAICZmFX3Mh7N22XqLyMG4Z2bgG+DRWUA+GDakrJWb03C75adxjs44acY6QfMz05Tfu/syBel1P874479M1Mc1P7/G8VqQ686AAAjMwH+lt7+YHSs53ey7R/NYh4irfOdZkTg05DPDbJwlNMUX7vgTqsPqY+yBUDq7GJctxs+b6N0AJL0A2Zmpikv1ktlV1/9jU243Qjkuvw/i/Xy22K1oZ4YAAAjM6vxRVBbsXU9P0bnIRJM8QUwGhExiwa9bXj/Ueo0u5jeCwTAJtV+E+C1+Fb9NBpRL9ZLH6vvAQCATNhRQructT0bTK3ESDqt4gsAu1Sm71YTfmd2+q5MsdgVST8gHLcCvxYPbPLPS20BAAAApdSrDieB6b3wrusCMSJCRziAWk6i70vNv5e1+ibtwCLpBwSiWG1OzQo9EVyPxzb5R60/AAAy0rGeXysdRzl0mVoMdLG1/mTFA84sgFKZ6Gsoz/HEGdV3OsdJI+kHBKRYbcwouteRXJNri/Xy720CcC+A/QEAAOPqlHRzH4S2vbhmCACxLIDWdiT6XjiJvtlnyZH0AwJTrDZm6sphJNfll/a/b8zIP5sApGg3AAAAotF1BA5TfIG8uDX6WiT6gnoeJukHBKhYbUxv44vIrs01+9/ni/XyTzYBSBIQAAB4M8YUY8D61OFEMMUXSJyI3NtRoy/YRJ/rm3B2BYCrWG327Yq5HyI8Md86/98kAc10oN86KxSblfr2i9WmS/FuAAAwExEJZRENE1OQ+MMY9iKNuwF4IiJmOu7jLe/2SGsd1Uhfkn5AwIrV5qNpe8yIuQSu02+c/29GBb5crJcvnb/7nW2TfjXDvnVVTLCNv7XJ00fFasMUEgDA3Ei0IWla648i0uUQZ6/VBWA4EfnqzFqrc6PrKt8hIekHRKBYbcSulvtvnDp6qfl1RMezmGIj5rpPsR0AAFrY9kAEpKLoEOdNEg8C8EtEzKjeN1vetNBa30zltFPTD4hEsdpcV0r951yv5P3Z1JQh4QdMo+3qoqwwCnRy16lz1OrV5c1zqusnIscd2ql7Aexy7FjFF0iQGc3nxHN1Cb9nzndVMgk/RdIPiEux2hw7yaA/cvmS9O8Vq82d3E8CACAcXev5mWmSPXb+pMPPPu/x/sBOWutjzhIQP9M5VOm4rY5WP7PTdstEX7K15kn6ARGyib//gGuXlENzXYvVJtp6EQCAZE0xso7FvRCKM64EEBd3pV2b5KvrHHJX270ec52+LqjpB0TKJodMrb9dNQkQLjNa89+xU7cBAAhVl3p+n/ocg1kNseMiCsBYHiql3nN2gXCJiHl+Ot3x/ZRUbb6+GOkHRK5YbQ7syL9DrmU0zqdmF6vNX5PwAwAkZpIV53Oq64dpMcUXCJOInDoj+b40JPxupVqbry+SfkAiitVmzyb/nnBNg2WSfWc22cdwBgBA8HrU85sqGUddPwBIWHUho4YVs59UFos65Z64jKQfkBhn5N9de2Q/co2DcMLIPmAQ71OtGCkEtNIp6TdQl8U8gmOnm/n2PbfpLO6nfHDcqwhRTZKv7p56UUnyHXAxt6OmH5CoYrUxK+edjyZbrJem/t8/UUp9x/WezJkdcn7XXgsAA4nIgdZ6z8d5FJGbjBQCWqkbWTGW/chrqX0pYy8f7EMvZmCm+CZeY5J7FbMz03VbfMe8mHAEeZIY6QdkwIwuK1abvzLLktuj/QPXfVQn9pwLCT/Aq8c+HixExNQc+8ylAbwbNFKvay21EEfr2hEqd3y8T9ffoRYduuBexZRMZ6uIfG0xXbc6ko+E30Ak/YCMmBV/bSLqb5zpv7/7ChjPAAAgAElEQVTnHvCisOfWvO4lcDzA6PoGck7A2Gl6koh8tEHmgx6bfdHjd4CoiUjXkbVTP5xNMVq36PE7H2wb1WnamX0o1oyaCsajyPaXexXBEJF7lQTf54aFN6o1+Ujyecb0XiBTlem/1+0wf1P/71vuiZ1MovRXdkQfCT6MLoCgesypFe96JuGMLzXTr9yRRt7qCxGEIlOd7vsUR++Y1R8HtMFmdPLjyt+N0kYppZ55fC/8dO2PYpriy72KOdmR1206Yu4z0nNaJP0AnI8AdOt6LNZL09v32Elu5c5Nht4qVhtWhQI80Vo/bFnTpS3vhcRNzzPXG5masp5faUhHwChMG+Cx82WMxQ5OtNavRnhfRIZ7FVNpGbuZGuc3tdZfuTDzIekH4IpitTHTeS6m9DhJwFyUyU7zRXWHJB8wLjs6wbQ5b0I71ST8gMm96pL0+//Zu38fua60T+z3jAfwzCQkB8JOMBgUmWzKVuaORP4FaiVvuCSDXjiyqGwzkhsbEPWGbsBqLjYXmb3YRN1O2tGKDJwY8JKFgRYYezBkG/BoYBg4xqFOSVfFqq57q25VnXvv5wM09IPN7vurqm596znPk6pLdlGJ23GY0iVVM9v1oMTXpqu4VulaCOGoqqpvGvzYFOpaBVUYoR+w0oIQMC0HTi/at/P/+nNVVX/q6ZFMQ00+yv/+2fT44vmetwdGKcaYPlw4TX33as8t+3TDJ9OM2Rr9/Drpe7nG1NRHu+olmMOUWUuUfXsVY9x4CAMrz3l6XepV6Fe5VtlQHnjW5MOXB/n+jYIJ/YDW8nLgD168JyeHN9Ob9rnlAKmp8L/ac6/A76uq+mP+99Sf5KGpulCm2RuD1AC6qqpvd7yR01R16NKA99r28xtF38v8YcD7VLLj1gRNfRxjdA/DSq5VVsn3Wg8bBnyW6vaU0A/oTF4Ge2VJ9+Tk8E7+njsd9gp5lSsPz1TqwTDkJUA/lfuEENJN6Zcd71zqHXbfDSwstI9+fr1S/5AgTTOtqur5FiqVVdLs3xdbeP3ZKdcqIYSzlu+9tjnEjR1KI5EdbwAAAIABuiL0S8UTTwW2wyX0AwAAAICB+ZUTCgAAAADDIvQDAAAAgIER+gEAAADAwAj9AAAAAGBghH4AAAAAMDBCPwAAAAAYGKEfAAAAAAyM0A8AAAAABkboBwAAAAADI/QDAAAAgIER+gEAAADAwAj9AAAAAGBghH4AAAAAMDBCPwAAAAAYGKEfAAAAAAyM0A8AAAAABkboBwAAAAADI/QDAAAAgIER+gEAAADAwAj9OhZCeBxCiC2+7vRkv1423KfHBWxuI23OUw92570l198H5ySE8G7B9/XlWlx5Xvp27ubOW28eQ2308fE0dCGE6wN8Dmzz+lv8fjV5bgghnPXwebzNvdLTAja5kaFdf9WSfbrqe/azle0M8TwNydxz2mAfR0O75obwmGl6LjxP0DdCv+16EmMMK77OSt+J/Ebjdu1/ndf3qaqqy9qfPUpvJPewmRuZP0dVVd2q/7yeP5k/WvD/ru1hOxip+bBiqMFmD72tb/IQngMXPJfX3V3x5+zHB/dKVVW9qm3J530JM+sa3P+5/vbE80TZYox3rjoHfT8/Q3xuGNN9Xh9fj0DoR1vp5vwXT3YxxvmQ76DvRzXG+MaNHnRmPnheFESzRwveVHkOZG9ijOk+YuoMlClVYo39GAC/MNj7vBDC0dz/8sE1vSP0g5HxCRUAPfDGSSrWJ2M/AMBoPJzbUc9/9I7QD0ZgLuib/8QKYCFL3ACAERPy0XtCPxiH+7W9/Nw5Z1fm+ro8m/2Lvn5lCSHcHPsxAFb6qddiCOG5wwW4z4PyCf1guM5re3bPeWZPfurrEmOsh8/6+u3fZ7UteB1C6H0/VmCr6svcPnWogTHd580Fma+u+FYoitAPFkhVLwMYv67RNrBUjDFV6jyp/fl36XmvjxPYge2LMbqvAMbip+KJWthXb5GkkpHeEPpt16P8BuqqL0MVCjB/flLVS22r7g6ln9Xc9eYTKhi5GOPj/Px2WTsSb/Nz4cuxHx9YV4P7v75+sPjTVOUQwul+NwX6Z8DPDUNTD/VmVYu3Z/8jf3AKvSD0264n9SboS758alqAuWb1d+feAH/b4xfg+qdUR3MvYD6hYqvmlkHMrkX9XgoUY7yen/8+rm3d7fwGRL8/aKnB/V9fP0ysL9/TOgRaGtJzw5Dv87xHZ0iEfjAnPcmnN8BVVd0YwLGpv9g+rE+g8gkVO1Dv5zK7FuuVIfr6FSbG+DK/4agv+33di40Hts4bYaBmNPd5c61PrJaiV37tdMFiMcZ3IfR7VW+6Oa/tg5Hz7NPjvj+exiQt+83n6/0Ne1rqG2M06AOo8mqIa5UlvsDPhnifd157/1QvlrBShV4R+sE4TZ13dkzo3DM5+Pugjw0weqldyLf5IFjiC1QDvc9Lq6S+y/9utRS9ZXkvDN+LBXvoEyq2ar6Py7JeNfr67Y+m4cA6LPEFxnCfl1qeFLAZsDGhHwzfBy+2MUbLcdi2eh+XJ3O/q/7f+vpBM8uWVw912bUBMgDlGut9ntVS9I7Qj7YehRAe1v9O6vU09zN8KlKQIX9KNT9ZNIRwR9VSkeZDZqFzYeYfN+lx5bFUnE/nX29DCO9mvdWGJO/nZOwnvHB3x34AgJ8M+T5vfsWUFSr0jtCPlVJfp7kpRV/OLQur93p6kgZgOKpF6/UnVPPLBtJk0dq1+O2K7+2DR/XH15KvO33aoRjjm6v+m735xYTyuef113PnzBSWPcivv+e133x77jzVA7+verrs8oPnvLn7il7uV4Pn8V6H6pb4wnqG+Nww8Pu8+WXMPrimd9K6e2cNAAAAAAZEpR8AAAAADIzQDwAAAAAGRugHAAAAAAMj9AMAAACAgfm1EwpAyUIIN6uqujm3iW0mGP9iyqSpkwAAwBiY3gvA1oUQ7uSg7npVVQdVVX3Sg6N+WVXVyxwapn++iTG+LGC7AAAAVhL6AbC2Wph3J4d510ZyNKcxxvnqQwAAgGII/QBYai7U60N13k7FGMOIdhcAAOgRPf0ARi6EkCr0jnoW7J23+F5hJQAAMDpCP4CRqFXt3a+qarKHvZ6mvni5R9671Cev1KEatWNVqXIEAAD6yPJegIEJIVzPwd7RjsKqaQ7y3gd6Q5yOm6shv5v//5b3AgAApRL6AfRYCOFmDvgebnGIRgr1nudA7/nYrpccor5d8Ec3Yozv9rBJAAAAK1neC9ATOXx6uKXluZdVVZ2mcG+IlXobWhT4PRD4AQAAJRP6ARQqhHCUQ74ul+hOa+HeS+f+aiGEReXwz2KMpyVtJwAAwDzLewEKEUJ43PEy3Wcp4FO5t54QQgpFb8/95csY4/W+7AMAADBeKv0A9iAv1U0h3+cd/Pa0NPdpDvjeOJ+bywHsfOBXCfwAAIC+UOkHsAMdh3xf5YDP8twtMKkXAAAYAqEfwJbkarFHG/7081TFN8apufuypI/fLVWUAABAn1jeC9CREML9XM23yWTdr3LIJ2DagyWB3wPnAwAA6BuVfgBrCiHczL30Pt3gGD6JMT52DvYvhPBuwRCV8xjjnTEeDwAAoN9U+gG0kKv5vt7gmAn5ChRCOF0Q+F0K/AAAgL5S6QdwhTyAI1Xz3VvzOKXluo9jjO8c5zIZ3AEAAAyR0A9gTg6BUuXX7TWOzYsc8pms2wM51H27YEtvCGoBAIA+s7wX4Odlu08XLPFc5bKqqocxxlPHsZcWBX6fCfwAAIC+E/oBoxVCeFhV1Zdr7H+q5rsvGOq3PLhj3rMY4/OxHxsAAKD/LO8FRmWDoO+LGONTV8swhBCeL5i6nAZ3XB/7sQEAAIZBpR8weGsGfdNczXfmChmWvJR7PvCrBH4AAMCQqPQDBmnNoO9F7s/3xlUxTMsGd5jUCwAADI1KP2AwcgXX1y3351kO+vTnG4dFgzs+HvtBAQAAhkfoB/RaCOGoqqrTllN307CG+878uIQQFpW2fxVjfDn2YwMAAAyP5b1A74QQblZVlXrtTVpsu6BvxEIIbxZcL69ijAdjPzYAAMAw/cp5BfoihHCaq7VeNwz8UtAX8pfAb6TSdbPoehH4AQAAQyb0A4qWBnKkoC+HffcabGsaxnFD0Ef1c5/HD64bgzsAAIChs7wXKE4I4SAv323ap29aVdUdU3epWzapN4fCBrcAAACDptIPKEZt+e53DQK/y6qqPssVfTcFfiywcFKvwA8AABgD03uBvcrTd79psQ1fxBifOmtcxaReAABg7CzvBfYihJCW737S8He/iDEeOVM0EUJ4t6BS1KReAABgVCzvBXYmDVWoDeVYFfhd5qWYQeBHUzlMng/8LgV+AADA2Aj9gK1LQUwO+r5u8Lue5KDvuqWYtJEmPS8Kk9O15EACAABjY3kvsBUte/Wl6bsHBiywrjzx+bv5v54CZAcVAAAYI5V+QKdqE3ibBH4PatN3BX6sJYRwfVHgl5aHO6IAAMBYmd4LbCyEcLOqqpcLeqkt8qqqqjtCPjr0dsGPemB5OAAAMGYq/YC1hRAe56q+1w0Cv1lVn2W8dCZff/PStOdTRxkAABgzPf2AVvJSylRBNWnw9/TqY2tCCOk6vD338y8N7gAAAFDpBzSUBnPkqqq3DQK/J3r1sU2pd+SCwM+kXgAAgEylH3ClHK7ca3CULnOvPn3U2Kplk6FN6gUAAPiZ0A/4QMslvKl/2pGjyC7ka3PR4I4bqkoBAAB+Znkv8JMQwv0WS3hngzkEfuzSosDvrsAPAADgl37teAAtlvAazMHeLJnU+yzGeOasAAAA/JLlvTBSLZfwpmDlvmuFfQkhpKD52tyvfxVjPHBSAAAAPqTSD0YmhHCnqqpvG+71ZzHG564R9imE8HxB4FcJ/AAAAJbT0w9GIoTwNC+PXBX4TfNQhCDwY99Sn8mqqj6d3wyTegEAAK5meS8MXAgh9Tv7pMFeWsJLUUIIN6uqer1gm0zqBQAAWMHyXhigHJa8XLQkcoE0hffUdUCBFgV+Hwv8AAAAVhP6wYDkpZBfN9ijy6qqbgpPKNWSSb1PYowvnTQAAIDV9PSDAQghnOaQZFXg9yz36rsu8KNUIYRFwV6a1PvYSQMAAGhGTz/osRyO3G6wB1/EGJ8615RuyXTpyxRUO3kAAADNCf2gZ1r26/vYckj6ZNGyXpN6AQAA2rO8F3oi9evLgcjrFYHfNE83DQI/+iRPmp73sZMIAADQntAPChdCeNyyX58BHfTVJ3Pb/UpwDQAAsB7Te6FQueppPgRZ5EGM8dR5pM8WVfnFGA+cVAAAgPUI/aAgIYTruV/fpMFW6dfHkMwH3E+cXQAAgPUZ5AEFyMM5XjfYktSv78DyXYYk9aucX75ueAcAAMBm9PSDPZobznGVc/36GLD5fpUvnGwAAIDNCP1gD1oM53iSw747zhMjct/JBgAA2IzlvbBDIYQ0cONeg99oOAejkQPwn1jaCwAAsDmDPGAHQghp4MbtBr/pVozxjXPCWIQQVLECAABsgdAPtiRP4k0B3rUVv8FwDsZsPvQ7dzUAAABsTk8/6FiaxJuXK75dEfgZzgEAAABshdAPOhJCOGo4ifeZ4RwAAADANgn9YEMhhPs57PtmxU/6Iod9JpPCcjcdGwAAgM0J/WBNIYSnOez7esVPuJvDvqeONXzgbO5/TBwiAACAzaUgwmGEFkIIp1VV3WvwN0zihQZyeP6TFJI7bgAAAJtR6QcNhRDOcjhxVeB3WVXVjVzZJ/CDNaQl844bAADAZlT6wRVCCNerqnrZYMnhNE3hdSyhvRBCeozdrv9F1X4AAACbUekHC6SwL4TwrqqqtysCv/Nc1Sfwg/V9MMk6hOAxBQAAsAGVflCTg4bXDY7JM1N4oTvzff0q1X4AAAAbUekHPwYOd3LosCrwe5Ir+wR+0K1b8z8thPDcMQYAAFiPSj9GLQ8M+LrBMXgQYzwd+/GCbcpL6q/N/YqPY4wvHXgAAIB2hH6MUouw726M8cxVAruxaJlvnoj9zikAAABozvJeRiWE8DiHCqsCv1t5Ga/AD3brswW/7W2epA0AAEBDKv0YhRBCWpp7b8W+XlZVdRBjfOOqgP254vGq4g8AAKAhoR+D1iLsuylMgHKEEFIfv9sLNuizGKMBHwAAACsI/RikEEJalvvJin2bxhhvugKgTEsGeyQvYoxHThsAAMByQj8GpWHYdx5jvOPMQ/muqPirUt9NpxAAAGAxgzwYhBDCmzyg46rA7zwP5xD4QU/EGA+qqnq2aGvTYz4N53EuAQAAPqTSj15LYV9VVZMV+/AsxnjfmYb+CiGk8O+7K3bgliE8AAAAPxP60TshhOtVVb1Z0uurTtgHA5MrepfRpxMAACCzvJfeSGFfbuz/dkXg9yQv4xX4wcDkPn5PluzVJC/5PXPeAQCAsVPpR/FCCKly52WDyr4U9unvBSNxxXTfGUN7AACA0RL6Uawc9r1usH0PYoynziSMTwghhXrfrtjxaVVVBzHGdy4RAABgLCzvpTgp7Mt9u1YFfg/yMl6BH4xUjPFsxZLfKg/7eZuX/h65VgAAgDFQ6UcxGkznnLmb3ug7c8C8EEJa4v+owYEx6AcAABg0oR9713B5XiXsA5pqEf4ln8UYnzu4AADAkAj92BthH7BtIYRUzfd1w1+Tev/diTG+cWIAAIC+E/qxcy3CvlvefANdCCFcz1PAJw1/3Kuqqo48BwEAAH1lkAc7k8K+PKBjVeB3Kw/o8GYb6ESa3BtjvJmHfnzV4GfeTsOE8vCPN7nnKAAAQG8I/di6tLxO2AeUIsb4MId/t/KS3lVSdeB3OQCMuV8gAABA0YR+bE0t7Luqn9alsA/Yh/ScU6v++yw/HzXxqBYAvsl9AwEAAIqipx+da9g4P725Tm+23zkDQElCCEdVVZ1WVXVtjc1Kz21P05fnNwAAYJ+EfnRG2AcMTe7l97zFAJBFznMI+NwFAgAA7IrQj40J+4CxCCGkKr7PO9jdFzkIPHPxAAAA2yD0Y23CPoYgTZWu7cayf/+kJ7t6Pvffs0DpTLjUvVwFmIZ6fNrRD09ThU9jjC9L2k8AAKCfhH60JuyjJLXQrv7PmxsuxxyiWSA4C//SY/O5ATrdCSGk6+5hR5WAM4JAAABgLUI/GgshpIqWRyu+f5qmYTqqrCsHJzdzeDfmAG8+pPvp31Xt9UcOpR93XC36LAeBrgMAAGApoR8rCfvoSg5AZl99WTK7jvnATljHT3K1dKoIvN3hUXmRg0DDQgAAgPeEfiwl7KONAQd6KcB7mZfDptDujSWxdCmEcD2HgPc7rmp9lYLAHAZqtQAAACMj9OMDwj4WycFECvSO8te1Hh+o8xzgvQ/zVOBRmi0GgZXlwQAAMA5CP34i7KP68To4ykFDVxNJd2kW5qnIY5BCCLMgsMulwVWuCnyew0CPGwAAGAChH8K+EQohHORqvT4txf0p0FOhBD/LPQLvb+mxfJ6DwFOHHAAA+kXoN2LCvuGrhXtHW6gM6ppQDzqSe2ymIPDelo6pJcIAAFA4od8ICfuGacvVPl2YLR8U6sEe1PoEbvNDAGEgAAAUQug3IsK+YQgh3Mzh3jYa/G9KsAc9s4OqwEoYCAAAuyf0GwFhX3/VAr6HBU3Lvaw1/PcGHgZqR9XDegYCAMCWCP0GTNjXL7Wld6VU8M2q9p7HGF8WsD3AnuXnqft5ifC2w8Az04QBAGB9Qr8BEvb1QwjhKId8++7B96pWuefNNdBarSp52xPBp7UPI1QaAwDAFYR+AyLsK1etim/V+dmmtCz3qX57wK7kMPBoB5WBVa4OnH2A8c5JBgBg7IR+AyDsK08I4aCqqnRePt3TxqU3v09jjM9LPk7AeO1w4rjqQAAARkno12PCvnLk6ZeP97RU9ytvZoGhqE0TPtrBAKNZ70C9SwEAGByhXw8J+/ZvTyHfbHmu3nvA6OTn3Ts76Bs48yyHgSqmAQDoJaFfjwj79icv132645Dvq7xEV8AHcIW8VPhoRy0VZsOP9EelePne8c7cds6u2zf5q3ItA8AwCf16QNi3e3nwRgr57u3olz/LFXxuugE6sofqwPNa/0Af2LA3IYS0XP32Fn//ef7n7L4lDc95v0TevQwAlEPoV7AQwmmD0EnY15EQQpqu++UOftV5DvhOd7JjAHwghHBUmyy87d6Bl7Uw0HJhtiqE8G4H13SXZgHiyxweChABoCNCvwIJ+3Zjh0t2LdMF6IkQws08SGRX1YGWC9OZvNT96xEe0ctZUFirPkz/fGdIDwBjJvQrSMOw7zzGON+bhYZ2UM33Kgd8qvgABqa2XDgFK5Md7N1surBAkEZCCItu7L/K1XMzs/vIXfYpLt15rcLw/WPNYw6AIRD6FSCEcNbgxkvYt4ZcsfF0i83dX+SQz40hwIjteJhIJRBkXg6lv5373zdijO+6OFj55yc381dVCxAPerakuAvntSXJ6TH4xqoOAEoj9NsjYd925D5NT7dUhZEGbjx2UwdAE7mVxNEOlwtXAsFxWlDldxljvF7iwciPi9m23Zn751ADxNnj8n1FoccmALsg9NuDhhPVhH0tbHHZrpAPgK3Yw3ThSiA4TCGEFKC9ndu5W0O/f6mFh7N/3qx97WIJ/rbMHqdvcgWhxyoAaxH67VAI4U2DG5BnMcb7g9rxLQkhpGq+zzv+6UI+APZuD/0Dk2kOGkwZ7plFE3tjjGHsx2WV/DibhYaz4LBPvQ7PZ8GgIB+ARYR+W5Y/eX3TYJmCsK+BhsNO2kg9+R4K+QDoixxUHOWvXVYzqRIs0JIqv88Et9sxFxTO/n3VCp59q1cOvjTRGGA8hH5bkgdIvG7w05/EGB/3cid3pOOg71UO+bxZAWBw9hgIXs6qBHMo6MO0HVHlV7b8mJwtO75TcM/CV3kwyUs9BwGGQ+jXsSWT0xYR9l2hw6DvMod8p1vbWADogdqS4aM9VCbNlg6fCQW7s+S+84H7nn5aEBCWttR4NrH4LAeDHscAhRP6dSSEkJbmft3gp7kRW6LDHn3PctD3bisbCgADs6ehInX1UNDyw4YWTOxV5TcCeUn3Qe0xW9LgEm0AAAoi9NtQCCFV6z1q8FPueuH7UEdTdy3ZBYAtyQHDrELwzh7DBWFCTQjh5YKKzcFP7KW53G7o5p4D/XkexwA7JPRbU4vlp8K+OS2qIq/yVYzx4a62GQBYrIAqwZnRhAlL7qWmMcabe9okeqygx/BlreL3uQAbYHNCv5ZCCG8afMKdXrAOvFD9LIRwkJt7r1sdMM3VfCbRAUCPFBYovOx7MLjsw1PLetmmQh7HqgQBWhL6NZBL4182mLQ1zWGfXnJZCCGFdJ+u+ddfVFV13/EEgOEqKBSsSh9UcEX/Y8t62av8AX/9sbzrCcXTXGDwXCAI8DOh3xVCCKl3zTcNvvU8xnhnbxtamA379JlqDAD8ZC5MOChgYMHOq41yX8W3S/7YkDiKl4so6qHgLh/HAkFgtIR+C7QYzvEsxnh/5xtYoHxDfrbGp3qXedmum1UAYC2FVQt2toy4wQep7kUZhPxe4mgPj2FLhoFBE/rVhBDOGr7I+EQ1azHQpC592nYUY3y57e0DAKiFggd7Wnq4zKuqqmZtTNoGHe5HGY3aY/howdTqbXmRqwM9zoDeGn3o16JfX2US749aLHuue5WDPv1mAIDiFFYtuMoNPY/hR3t47J7XJgwrYgCKNtrQb9nkswXSEo2bbqzWGspxngdxCPoAgF7LHxQf1CoG9xEM+gAaWthxIJhWM51aKgyUZHShX4vgynCOn18ov23xV0zcBQBGaW4ZcVdDR/Ttgy3Ij9ej/LXNwSKXOQw0SATYuVGEfi2X8Joe275Xn6W7AAAN5bChygHhzJv89dKHp7A/eVp2CgLvb7k6cFoLAy0TBrZi0KFfiym8leUSP73AvWz4SZegDwAAGI1adeD9LQ4EmvUMfOoDAGBTgwv92gZXMcaDHWxW0Vr0NzR1FwAAoGZH04Vf5CDQEmGgscGEfiGEh1VVfdnw2y3hbbeE97MY4/MdbBIAAMAghBAOan0DtxEGptVX6X3aqRVYwCK9Dv1aVvWlBqp3VKm9P25nDfpTfBFjfLqjTQIAABiFWmXg/S0NEXmWg0BVgTByvQz9WvbqexFjPNryJhUvB6RvVvSeMB0OAABgD3IYeL/FQMU2zvPyYCu4YER6E/rl0uizFg1TLUn9+bh9d8W3THMFpHJwAACAwuRWVkdbmCZ8nisCT51zGKaiQ79cnZaegD5t+FfOY4x3trxZvZA/Jfr2im194MkdAACgf2qThD/veOMFgTAgRYZ+IYSnLZ+8VPVlKybxWr4LAAAwQLlo5uEWBocIAqGnign9Wk7frQRYv3RF2Gf5LgAAwEiFEI5yGNjl8mA9AqEH9hr6rahKW8QE3jlXHEPTdwEAAPhAXh78sEUrrSZMDYbC7Dz0W2MgR6X/3IeWhH2vcij6roRtBAAAoB+2EASmop2nuSLQe1TYg52Efrm3wFnLvgJfxRgfbnGzemnJgA6hKAAAAJ3aQhBoWTDs0FZDvzWW7+rTt0QI4WZVVa9rf5p69R34xAQAAIBd2UKPwK9yEKgPPXRsK6FfCOFxVVWPGn57SvqPhFdXqwWoqvoYhcnJ4Z1F+zk9vtAjBAAACpIHc6avSQdbpRoQOtJp6NdiAu80B30GcsDI5DBv9tXlBLEq3yCkUPB0enzhk0IAANiDvFIt5QOfd/Tbn+gNCO11Evrl4RzfNfhWVWowIpOTw2Wl/yn4/01VVX/o+Gj8UFXV36qq+uPc/38yPb547NoDAID96HhZ8Iuqqh4rJIKrbRz6hRDerCjh1XsORiKHfE/nnhO+XxDC7dqfq6r6U/6daYrYw+nxhQ8gAABgT/LAz9my4GsbboUlwbDA2qFfTum/ueJbpjHGmw46DAMIXXcAACAASURBVNvk5PDpXNn+26qqbhS+0/Vt/GJ6fPF0z9sDAACjl6cFP+6gGnCaQ0D3+YzaWqFfCCGV0N5e8seXMcbrYz+wMGRzQd9fq6r6qMe7O9v+VAF4Z3p8YYkAAAAUoMPegJc5BNTyh1FpHfqFEK76Cx9bUw/DNDk5rPfu7EM13ya+mh5fPOzv5gMAwDCFEO7nasBNJwU/EQIydI1Dv5ywv17yx+cxxjuuFhieyclheiF8lHcsDcr47QhO86z673x6fOG5DQAACtXhkmAhIIPTKPTLD6Jvl/zxrRjjG5cGDMvk5DANurg3oqBvkb/kCcPT6fGFHqUAAFC4EMJBXhJ8b8MtFQLSeytDv1w6+/WCP9K7DwaoFvZddjBFayhm4Z/KPwAA6JEO+wJ+YTAIfXNl6HdF4PcqxnjgbMNw1JbxCvuWm4V/T6bHFz71AwCAngkhXM/LgTcJAdN7pocxxlPnn5ItDf1ySex3C/7oWYzxvrMKwzA5ObyqXyeL/b2qqt+l9gbT4wvtDQAAoMdCCE83DAFfpSAxxvjcdUBJFoZ+Ofl+u2A7H0iyYTgmJ4dvOph6NXavpscXKp8BAGAAOqoEfJErARUIsFfLQr9F5X+aWMJATE4OZ8N5ZlNqWd/sGH48Pb546TgCAMBw5BDw6YaDQeQp7MUHoV8I4d2Cfl6W9MJAqO7bKlV/AAAwYHkwSAoBP11zL6e5CtBSYLbuF6FfCOF0QXo9jTHedCqg3yYnh7Nl+3+rqur3TudW/KOqqt9UVXVjenzxboD7BwAA1IQQ7uQQ8Paax+VZ7gdoKTCd+9XsB+aS1Q/KVQV+0H+Tk8P7OfD7u8Bvq36Tg7+3k5PDhwPeTwAA4MfM5CzGeBBjTEVVIc1CyNN9m0o5zOvUZi2tvAwhWGVJZ36q9FvUxy9fsECPTU4OX27wqRObsdwXAABGbMPJwAaCsJH3lX4hhEUNJR84tNBvk5PDtMT0XzuNe/OvJyeHiwYjAQAAIxBjfFirAvy4qqrzFnv9qSpANvG+0m9Bld9ljPG6Iwv9lcMm03n3b3YO9PkDAAB+kkO8pwuGqTbxLFcBeo/BUr/Kwzt+QeAH/ZYDv0uBXxE+qvX5s9QXAAB4L8Z4mvKXXAV4Ky/nbSr1AnybqwDf5IEi8Avpwlq69ExPP9ifPHzj8fT4ovEwndqE3h+qqvqt01ekB9Pjiw8+bAEAAJjZsArwixjjUwcToR8UYnJyeJRCvrmhG3enxxdnTbZQ4Ncrow7+Fg2OKtW2XgfzJ7Hfjv04tBVCSM+TaTL2Jxv8mNRHJ03ZW9TPeG/aPC62cT5aXpNPSjt+XdnT89O0qqr0mnA6lEbtbZ/jhvKeI4RwPT9HHW04RC1V+jxNE0E73LyN7ft5qq6j19GNnstKOh5tDf1aHaIQws0cAH66xu5ZBjxiIYcMjxYdAqEfbM/k5PBOfvzN3rz+uaqqP9V+4eX0+KLRUnuBXy+NNvgT+gn92tjBsXoWY9x7U2yhXxkKeX46jzH2eolWHhK48P3FIn1/zxFCeL7mG/GmbpUQCA8w9JvGGBuvqFmwDb0L/cZyrY5BCCGFtl+usauvqqq6H2N8OfZjOBa/yjdtX439QMC2TU4Ob05ODp+nfnu5595/nKtWqQd+VdPALxP49c/XuboTWCBVIeQ3VNsOR+/lXjiDDLHopU/yNdnnyplR9JUKITzNz1PbDFGq2uROfde7NRnSzlzFtTo8aenu3ETgVw13MlV2flebBuz9yMD9qpobIV3/GvvBgU2k6rvJyeFpLeT7X+deaP+45Men8O5J019dG9oh8Oufbwz3gA/lAO7tjg/Noz5VoTIKn/T4zfMmS/B7IT9ffL7jbX2bq3ugMdfq8KWqvRjjQc5wbuTlvE2kXoHf5Nea6JwN06/GfgCgS5OTw6e1kO+/VFX1T7Uf/4cGv+p9eDc9vmhUcTI5OUx9Gf66ZnNXyvBdXp4N/Pjm5GWbZYFdU6FAgdKbZx8QFaJWhbwvX+bnSbiSa3WcUt++1LakVgX4RYsD8WUtALQCYiCEfrCBycnhw1nINzk5/HtVVf+m9tNurFF9dy2Pal9pcnKYXkT/26qqPnIOe+2HPVQ0QZHym4NNGop35a3gj8J8N+TgL/dnK15+XijhNfu2MKUbfbn22nKtMjO3DPizPDyqiUe1ANAU4B4T+kELk5PD+6m6rlbN9+9qf/u3OejbxKvp8cXK5reTk8PZlN/fOH+9l66bv+XrCUYr31CWEPjNCOMpzXcDDqP7EryU9LxwWyVOJ4baf9K1ygdijM/T8JocAN5q0Qfw81oAOMpBhH2WEt+xHwNYKg9aeFx7I/r9Fb34NpGW6H40Pb5Y2UszDQRJTXKdtcFJS7vfTI8vBr+Ey/Re03vnhRBKfV7baLJjG6b3lqEPz0996Lu9xnEsfmJxanhfaDuVG2k53y5+0QCn9yavUi+0NbehyOm9rlXayh8ona4x6OVZWkrsgJdNpR/UTE4O70xODs9qlXz/PFd5so3Ar8pLdB80/F6B3zClm7PbJvoyUqU+r030UqM0pVfMrLlcsujBH3m6Zan9k1Ulb6akCvONuVZZR+4DeFRbBtx0EMg9FYDlE/oxamly6uTk8Hkt5PsPczeef9rV8ZkeX6x8oqwN7mC4vnFuGZMQQumfEH9XwDZA3d4G3TQ0xOWSRb82+3CCGtcqG5sbBPJVw58nACyU0I9RSUtjJyeHp7WQ71/myph3FvJl/8j/XNkLMPfxu2Zwx+D9XX8/Rubr0nfXUA9KU3hYPqjQL1dOlc6HE7hW2YoY48M1JgHfMwSkHEI/Bm1ycnh9cnL4tBby/eeqqv6pts9/2PP+p0Ec59Pjiyv7W6T96MEn++v4cwc/422LKVR98LtUzZmu2wHt0y/MbhzW/Sr1d23Rk033o9Tj0GGY9iI1pF6w3U3bJqziE2s+0PIxdDdPTTzv6EiWHJYXvVR3DV1VTj1YcF3cys9f7NGAqs9cq2zV3CTgpgFgfQjIQ2do9wzyYHByRdwsIPshV9NtOlV3G/6SQseGwztiHvRQao+Opv68oJoylYw/nx5fnLX9YakHY1VVqdrh3twfLfo9fXRjVSA8RqU2zm7D0IQf5U9/P9/gR6Q3Jo0CuU0bm++gKb1BHgXY1XnoYnhNwc9va725GNr+ZJcxxkYfbuRejZt8wHs3xtj6XqqNgQ7yqNZ9TivtfsS1yr7kMO/Llr++8T0cmxH60XuTk8OHecLu7M3cXwqo4Gvqs+nxxfOrvjdXfG3ypnjf5sPK1Bj24TbCrFwR+XQuBOx1ANgkFB4bod9wbPAGpfGbk7rcY2b+Q4JGhH6/4Jrs6DyEEJ6vMS2xs9+/DRs8rosMAjbYn89ijFfe43X8+16kRvxr/t1GBhz6rTU9ekCh3+CuVfZnjQAwvVe8v841SDNCP3pncnJ4P4d8k7zt329xqu62pOrD37So8uujevialjDvvMdP6t9Ye4Ofqj5/27PjmF4En06PLwb55npdQr/hWPMNw1qB38y6FQpCv19wTXZ4HtaskKgGGJIVd11tECyldgNvNvi9RVZLDjj0W2t7B3I8BnmtUoY1VnSklk13Nrkm+ZCefhRvcnJ4NDk5fFnry/fva4Ff1cPAr8q9/JoM73iXw7M+mW1vCvwepGBzH4Ff9WOV3P0crN7qYeBX5QrJIfZyhLVtEvhVP/79xwPrA0rPpR5JVVW9WmMvhjYlt8T9WWebnnTwhrXEtjSUzbVKceaGgDxrsH3pPf7r3P9P5V9HhH4UZ3JyeDA5OTyrhXz/XFXV7dp29r1XW6o4mzYY3nEnhz59Wao8m0RcD/uK6NMwPb54k8O/G7l6rqr9s3SXk5NDn3bBjz7u4jjEGG+2/Tu5igK2IsY4iEECGz5OBjEApItqxRjjO0MT2DbXKrsUY7yfw78bDa+ZT00A7savh7AT9Nvk5PBm7sM262kzv1x3CAMZ6n47Pb5o8oazsyULO5KqF5+l6rpSNzAHrdfzNTdroP6PvO2lSsHvtdSv0FAPxi7G+LLDQ/Bs3f5+sCUPCp/K28TYw/FbXf2g1PNsw8EMtJCG64xsSaFrlb3IQfH7no55qNXZ3Cq+RdIE4Nky4bV6UI6Z0I+dy8MWHtfW988P3ujjct2mUpXff1r1vXkCcR/8vaqq36VqtOnxxUZL7nYpVf6l15napOfSg7/kbdrmArYD9uVBl783feIcQhD6UYw0xTCEIPTrsS2ERq/mVruwPbOe4aPgWqUE+Tp8XwwTQkhB4OncAMhFvgnh/VuiV7n/n6KIFSzvZSdSuFJbrvtfqqr6t7Xf25flq11IVX5NplX1oY/bX3Pg96RPgV9dGpCRl/2WHvi9l5d8wyilQMSZZwT60npimUEs0V3T+RZ+5sOdbDnVyAJr1yrFSdV7qW9zXgL8RYPtSyHzW8t/VxP6sRWTk8OHaQhFLej7H2q/50ZPhyps6q9NGpjmibM/FL4vafs+SudyCJNlc/A3a6L+9z1vzlX6tuQbSmegB6XxxqW/Ol9uVuJ05gEbU2DtWqVoacBVywEgn9f6/zUpsBkVoR+dmJwc3k/DBmoh37+bK8012amqPmrY7+5eD0LR/zcP6hhMOfX0+OIgf6r0u5JD1/RYK2AzYCgMyaE0o37j3POBOV32HIVtcq3SG7UBILcaflj7TQ7/zkIIvVyN1jWhH2uZnBweTU4OX9ZCvn8/14BzTEt2m7hsUkqfq/z+0egn7s+rvi7nXWV6fPE0TwdNoevfCt3Mvvd7AoBltLEA4AOp/1+M8WYOAD9rcIQ+qS3/HfXyc6EfjaReYpOTw7NayPfPc81ahzZht2vXpscXTW5k7xXeX+5VrogbrOnxxcsc/P2+1ABWtR8AAyX0Y29UBUE/5P5/s+W/XzXY6C9z+PcmTwweFaEfC01ODg8mJ4fPayHff5zrdSHk61gPgpzBB34zteDvNwUu9X2r2g+A0nS0NHfMg0DYPx+qQs/EGB+2WP6bVia+zgHgaKZ1C/14b3JyeDMtLa2FfP9SVdWntaPzR0dqbWmAx4MGf7nUIOeHMQV+Mzn4e1Bgf8X3/TFTML//TQGAn6jSo+8MAICemlv+2+S996OxVP8J/UZqcnJ4fXJy+LQW8v3nqqr+qXY09OTrThrgcXrVT0vno9BtT4Hlb8cW+M3k89ZkYtSupfPyXYHbBcB4Cf3oO5WmMAAxxtPa8t8XK/Zo8NV/Qr8RmZwcPq6FfP+1qqp/U9v7Gz2YGNtXlw22O03r+3Nh+/f3HFiGArZlb/LE5SbncJc+Gt6RBqDnBCYAFCXGeNRi+Ee9+m8wPT6FfgM2OTl8ODk5fFcL+v772t7+drZMkK1627A/yO0C+yT+zjXyo9q04r/ue1vqUt/NcrYGAACgPHPDP1at5JrUJv/2vtfnrwvYBjoyOTlMfSie5os0+T5Nja39dEt2d+/G9PjiymCm4N5sX02PL94VsB2lSM1hXxe0PX+d67sJAL0XQjiIMb50JgHYhhhjCvLu5wFU3674FV+HEFLv/Wf57/WOSr8em5wc3pmcHL6sVfL9cy3wqwzf6I3nhU2IfV/NNj2+eLj/TSnH9PjiTVVV5wVt0vslvmkIz/43BQA6ozcgezOEqh6gmRjjWYvef/dy5d+7vg3+EPr1SKoIS8v5aiHff8jLQmdKWx46dqlH35MGx2BSUD/FH3KYZFnvAtPji9kbkb8UtFmW+AIwJEI/9knoByNU6/23avLvtdrgj148X1jeW7BcwZMmyNzLW/n9XPWekK9sf5oeX1w5AWiuSiv1//u/97hHs/DxrmW9V0pNYL8pZFv+Ohf8A8DO5SVSXRH6sU8G0sCIpcm/VVWd5kEeL+dWUs7rxdJfoV9BJieH13PI93neqrdzFVeW6w5MXjI66um4fZN6NE5ODqtc7bfvPpmzJb7XBbXQXoxRuADd6PKxdK3B94xGrjyB4rlWGZIYY3pv9b5AJ4SQMppHV+xeWvqbCrWmVVUd5L9bDMt792xycvi4tlz3v1ZV9W9rW2SJJZTpVmGDcZ4WsA0AjJcAnZJdOjvAumKMj3OofXfFj6hP/S3mdVGl345NTg4f5mq+2aeYb2tbUEpfNzaX+vn9z47jMKUKzYKq/f6SWwDoQQPAvlgSSclOayupANaSBn/MVumFEF6uaLP0bQjvv/VBXjK8N0K/LZucHN7PId9sLfj3c8sWVPMN059UXw1eqvZ7XcBOllRxCABQmlZL7UIIqaG/QWnAUjHGg+rH54vT2gyGRfbe98/y3o5NTg6PJieHL2tLdv/9XPNHfflGQo+1Ycv9GKtSlozMDYUBgN4KIRw4e+yR1RNAIynIazj1915e9nu26yOr0m9Dk5PDO7mSb7as4c9zU3VN2IXh+qqg5SIP8xcA9N2dPDUR9uFTRx1oozb192Z+/Vo2lOqTFP6lGpIY406KNoR+LU1ODg9yyLfsxUDIx3tpSIsjMXizas4f9tyT820OH4V+AJTsvGH/vzvapNCxptcewNpijGk12PXqx6r1N3OrPusmOfxLq8ZubnPir9Cvve/6tsHs3N+rqvq/LA0YjTSa/TcG8QAwRi0nFJ61CP2gS02vPYBOzCr5VvT9u5Yn/qZ/v5VDw04J/VqaHl+EXm3wCOTeiSX53RWJPmyDgUAA7Evb0O9Rg+9btiwK1nXa8NoD6FQe4HE/hPB4xfPQ6xz+3c2TgjthkAcAALCuNqFf5xUM0ETb6pmWFawAK8UYHzcc+vFtHvrRyfOQ0I9eS9OSnUH4UR4sBAC71HTJ5OU2li3BlmjTA2xFGvqRw7+7K35+J+Gf0I++S4MLvncW4T0hOAClMo2XPlnWfwugE2kJbw7/Pl7x8zYK/4R+9F36dPmPziK8Hyhy4DAAUKhW/YlCCF7T6NorRxQoTYzxZQ7/bq3YtLXCP6EfwHCYSgdAqdo2JRf60bXnjihQqtQCI4d/aUjj5RWb2Sr8E/rRW5OTw5vOHvzExGgAirXGJEJ9auma0A8oXozxXYzxetPwb9X+CP3os/t5SSMAADu2Zn+hpksshX50Ki2ha/PzTPAF9qlp+Jer/q4v+3OhH332UHUTAMDerBOKNJ3g6x6PfTMgDdi7huHf22XbKfSjz645ewDAgPStsmid7TXFl76470wBpZgL/z4QQljYRkPoBwAAZehbyLDOAKm2vf2gS21aAykwAIqTw7+woF3GwtdkoR8AAJRh8Eta1xjoAV06dTSBIYgxNppyL/SjlyYnh6nHxg/OHgAwBCGEIS8lPF/nL4UQbna/KYyc0BkYFaEffZVujP/m7AEAA/H1gE/kun38TE+lU20rTU3wBfpO6EdffVpV1R+dPQCg70IIQx9uIfSjr1yDQJFCCI3aFQj9AABgT0IID6uqut2349+yAurNmr9G4MK+meALlOre3HZ9tWg7f+30AQDA7oUQnufVC33UOJDbYHjH4AebsBeXLSbzugaB4oQQHs9vU4zx4aLtVOkHAAA7lAZUhBDihoHfvpcEb1KFt9ZgD+iICb5A3z2a2/7psv0R+gEAwBalpbAhhKMQwlkO+15v+ttijM/3fM4+2eDvmqDKPu37sQOwtrxK4BdijEun3VveS+9MTg71dwHG5FEIYf7TvJ2KMQZXXDlyaMSeOQ8bOVtQpQA7kZabh9D8ZS2EcBBjHPqwHaAHQgjXF6wSuLJ6XqUffXTnqvJVAICBu9vz3Ws82CMthd7upsBKRw4RUIi385sRY7yyKEroRx+p9AMAxurVBoMx9uFy/nfGGNtM83Xfx74J/YC9CyEsqjj+YtV2Cf3oo09M0oIPqH4FGL4XMcaDnu3lpssihX7s221nANinEML9Bc9FlzHGp6s2S+gHAABlS9Vyt2KMRVQcpcEkLb5906rEvoWc9MMz5wnog9zH7+v5TY0xXm+y+UI/gGGYuIEFGKTUoPug5ZLYbdtl6KfKim04dVRXSwOLtvFV+n5DYT7o41dV1cdNN1HoBzAcbmABhie1NXmd33g3+lR/BxqHfj3rP8hItL0uDZQB9mFJSP5Vm4niQj+AgZgeX3hjBTBsbwsJ/j7p4Ge86uBnwK7cd6SBXVoS+KVhXg/bbIbQDwAA+mPRMp8+Kmm5MqxioAywM0sCv8t1hnkJ/QD67y/OIcB4hBA2nYhbgsb7UNCyZsari+pWgJWW9b1sOrhj3q8dcnosBR3/cAJ7YdJwI/8Pz0utpWP7h9zoHYBxGMJwi9SS4lHD701VVs+3vD2Mz4uqqj513oFSXBH4hXU30Ztremd6fBEmJ4dK7KGq3kyPLyyPGr4nMcbHYz8I/GyTG79lQgjpdfVbh7m5dc9DCOGoqqpvNv39IYSDNo28S5MGKYTQ+BAK/diGU6EfUIptBH6V0I++MrAAAOijGOPzH+/tNw5aj9oske1K3u6muqpC92EvnUuPxRbB8/tl5jHGd84E0KXcwmJhv94uPujV0w8AAHYsVbpto2pzB9oEcF2FkkNYzkz/meALdCpV7W8z8KuEfgAAsD89DP72EfpBCY6cBaArIYTUvue7BT/usst7A6EfAADs18c9Ov5tppjqO8uQmOALdCJP4V80zOrVulN6lxH6AQDAHuWBHJdDOwdpCXMBmwFX6arv5CClaqOmX2M/VtBUHtixqG3FsxjjQdcH0iAP2LPJyeH8lJ7plrYoPd7/vxXfkz4I+FP+91fT44vOn3QAgIVuLuvrM2DnTaunDFFgS05V8AG7EEJIr/Ovl/yqBzHG021shtAP9i+FfP+qqqrf5i2ZFHJObk9ODk+nxxeaFgPAlqVAq80k0YE4axG4pF6Cz12HdCm9yQ4hfO2gAtsUQnhaVdXnS37FrRjj1tphWN4L+3dUC/xKc29ycqjaDwB2Y2xLDdss/20zQAS2IoTgw3CglRDCu2WBX14+v9X+t0I/2LPp8UXJk+1+SBOFJieHnTYTBQAWKrqSLYTQdfDW5o2O0I8SCP2ARkIIB7l/37UF3/9qV70whX5Qhhc5YCtNqkD82wh7DAHAPpT8QWDVMnhbOZikZXXDoqbnsGv6/wErhRBSJft3S77vwTYGdiwj9IMCTI8vSl7i+/sU/C0YOAIAjEub0K/0ABNmTPAFOpGGTuXqvmUfENzY1sCOZYR+UJaVn4rvieAPAGhT5dSmXx/skwExwMbysI5lK+Re5f59O59CL/SDctxdst6/FD8Ff3r8AQArCP3oi51W3QDDk6v7lk3nvbvL5bzzhH5QiOnxRR9ujn8/6/Fnqi8AsEyMUehHL7StvAkhHDmzQPXj88HjHPgtcpmr+/b6eij0g7I86cH5+H1tqq9PRgGATbxq+ne3MD0Y1mGCLzCr7nu05Eg8iTEWsTpO6AcFmR5fPO7J+ZgNHbk3OTnceV8CAKBs6c1Qk6+WU3mFfpTgU2cBxmtFdV+Vq/uKeV8v9IPyPMuVdL2R+/z51BMABqqQKjuhH9tigi9wpdpk3mXVfV+lwK+0oyj0g8JMjy/u1yrp+mA2fORrQz4AYLBKCNzaTA+GNvSgBJYKITy/YjJvciPG+LDEIyj0gzL1obffIn/NQz7elLdpAMAGVNkxZM+dXWBeCOEgV/ctW9b/JC/nLbblldAPCtSj3n7zPsr/fT1X/b2bnBzeLGfzAIA1qbJjsGKML9vsm6EyMHwhhFTI8t2SHb0srXffMkI/KNdnPT43syW//6iq6nUOAJ/ueZsAAKALelnDQNUGdUyW7OEXpUzmbeLX5W8ijNP0+OL55OSwyktmP+rpQfhD7d8/n5wcfp7//UVVVY+nxxetPlUFAIAC3HMSYFjSoI4VffumMcberWIT+kHZbqx44umr/y6VSudQc+ZFbqL8cnp8UXwz5cnJYVfLOg7ScugF//+sD8cBAHYpLauMMXp9ZBteVVV125GF8QkhvFzx+P+4bRuAUgj9oGDT44vUE+98gH10/jD333/J4df7BqlzYWBpfqiq6v/cwTY9SsdhenxR3Nh3ANijOyatsiXPhX4wLmkpb3rfdcVOv4gxHvX5oAj9oHDT44s7qSde7o/3m4Ger/kQsGS/vaK/Q9du9Oi4ADBQaXphQXtmgALbcrbizT8wECGEtEz39RV7c9mnvn1XMcgD+uHWgAM/FnuRKj0dGwAKUFLQZoowW2HZOIxDCOHdisDv7lACv0roB/0wPb54k3veMXyX1Y/nvNdl5NAHIYSzNJ2t4ZfqIsas1fUfYwxtvqqqeuDqWqzFc1QscfsBShFCeJ6fK68t2aQX+bVrUB8ACP2gJ2oh0F+ds0G7ZlkvAIXZduhtmj8AWxFCeJjDvk+X/PzLHPYNsuhC6Ac9koc6fFRV1d+dt8F6YFkvAIVZVhXRib5ORGSQpk4rDENapZHDvi+v2KGPh7SUdxGhH/TPx1VV/c55G5w0qOXV9PjidOwHAoBeO3f66DH3YdBzIYTrOez79oo9eZKr+wb/oZPQD3pmenyRnpieOW+D8rc0qGV6fFHSdEQAWMfWeyHpsckWGeYBPRZCSL3w316xB+c57Hs8lvMs9IMemh5f3E9VYc7dIPxQVdXv89JtAOi7XYQmQj+2wgRf6KfZcLaqqiZLdmDWt290rx9CP+ipXBV2mZeF0l+/NbgDgFKFEFpVoe8oNBH6AZBeo05z2PfJFUfj1tD79l1F6Ac9Nj2+SE9ev8nLQ+mnjw3uAKBgJQZsV725A2DgQgiPc9h374o9/SxX970Z8/Ug9IOey8tCfy/466UHuUcjAJRqV6GfASCU4tKZgDKFEO7nsO/RFRs4G9Lx3GkU+sEgCP566YFJvQD0wK5CP73UKIX7MyhMLez7+ooteza2IR1NCP1gIGrB31+d0+IJ/ADoi2s72k6hH6VQHQSFCCEcNQj7ZhN57ztvHxL6wYDk4O8jFX9F+0zgBwAf0O6CIpjgC/sXQriTw75vrtiY6Vgn8rYh9IOBycHfQK37SAAAIABJREFUf1NV1Q/ObXHS0A6fHkM5DAOAbq3dly/G2GqoVXpDWNi5OypgG6AJ1yrFqoV9316xjbOw76YzuZrQDwYoT/X9353bIsyWW98wtAPWF0K47vBB8XZZIVVa6Pd51z8wTafs+meCa5USNQz70pCdG8K+doR+MFDT44uD1MzU+d2rFPh9lKovp8cXrSoYgA90WiUbQjhwiOFqIYS2b6x2+eHWGJZzXTWdEkriWmUttQEdTcK+622rwhH6waBNjy9SM9OP8z5a7rt73+fl1sDmul6K+51zAiu1DdZ2GfoVtzw/hNBZz941Ale6NegPzl2r7FvDabzCvg4I/WDg0pLSHDz91mTfnXqSqy2BjoQQOgkUCuwFBqVq9ViJMb4Z+Zm81+HPet3hz6K9ofdgdq2yF2kpuLBvt4R+MBI5+PvfnO+tqvfv09sEune7o2W5Vy0hWcg0R0Zq1wH5tO+HOb+Z3fRnGPq1ZzHGwZ8D1yq7VAv7rloKLuzbAqEfjMj0+OJObbmvqr/u/T/698HWfbdJ8NfFmxwYkcmOd7W0SsG1wv4Qwtr7kZa8VVX16Rp/9dW6v5NBcK1SpLSUXNi3X0I/GJnact/vnftOzMLTu9PjCz1NoJ11q3q+a9uPKPUcEvhB8YqqqN2gwneSnm/aTh3PLQyuWvJ2FRVXI+ZapTQhhLN833XVUvJpjDEI+7ZL6AcjlfvNzar+/uI6aG02GGVW3WfpH7S3yTL4e/mNyv2rvim9kcmVDHoOQflavZb2oD/n2/T8sypQCSE8zG+Ob2/wu55u8HfBtUon8nUUVwxbmoV9CiZ2QOgHI1ar+vuXfBT+4XpoLA1GuaW6jx14lMOtvX1taxdjjF1MD/y6dlzOal+zbX/bwRLFLzrYThi68033b41qpV2Efi82/PuTHKhc9Tz15aYbqUpmKzY9933bXtcqa8mrKd7la+Sqe65zYd/u/XpsOwx8aHp8kSpl7k9ODtOL8G8coqVSv4lreTKvQR3QjWmHfcOu+lR5bTFGVQmMTnoT13KfO5mu3dLWQ78Y41HHH35s43mqb+FUXzxfs2fdXrhW2bVcbd1kONqzGOOVKzPYHpV+wE+mxxeppP+WI/KBy/w/nuelvAI/6EgPPu3duHoJeqptoLaP0G8rQf8CRU8VTmFPAZsxOB1Vo++aa5WtS61VcsC8KvB7kiv7BH57pNIP+IXp8UXqfRUmJ4ep5993+c9+yMtZx2ZW2fcyTz4GtuN8h2/eW4kxeuwzVn0I/XYifThR8CCgZwVsA4VwrbJNeYjaVYM5Zh70NDQfJJV+wEK1fn+3aoHfn0d2tGaVfd70wxYVHKzdLWAbYF9aPS5jjIMN/bIHRWzFHBU0LOBapVMNJ/Emd3Nln8CvICr9gCvNKv/S90xODtMN/Z8GesTSBOM/5H9/MD2+8GIFO5RuEgurTni2xlABGJKuem0OQnoTm6eFF1OVnJ43C9gMCuNapQt5kvObvOrpKmll1EGM8Y0DXyahH9DY9PgiLflN4V+6kfg6/70+L/1NUz1v5H//lzzQBNifG/lxuW+vVCTA3hS93D+EkD4AvV3A5txo8D1srtjr8SquVdbVYjjH1BTefrC8F2gtVcHlZa/pU7v/ae7v/6XwI/p97d//l3QjkvfFG3zYsxjjuwLeHKQKv4O9HwwYr1bVIvkN6s7k54e99ibLy+fe7XMbRuR5X3fVtUobIYSHDYdzPMvnVeDXE0I/YCPT44uHtQDwi9oS2Znv93yEUwj599p//4+z7Z0eXxxNjy/ciEBB0puDvAxoHxMIP1bhB3vXtjfgznuC5ueJffT8nFomuXO9bvfiWuUqOeh7l8O+L1d8u0m8PWV5L9CZ6fHF06qqns5+3uTk8HFVVQ8X/PzZm/mu+wWlQSMf1ZYbpyUZp/rzQf/kCYT1KeLb9MxNLPws93Jqo8uQvvjQr/rxOersx0MVzna0/POWnlm7lz6ICqHf2ZVrlerHC2Ddvsl39TjuN6EfsDXT44sU+j2u//zcD/Co45v0FO6lF6Oz6fGFFyUYiDwNNL1RuZmXWHXdm+iBCXOwUNvX6M4m96Y3ly1Dlr32W5tNH08VMw0qZdp6UVXVfcsj6YJrlRYM5xiQVJ459mMAAAAAMEgNK/3OZ+Eww6GnHwAAAMD4PMtLsoPAb5hU+gEAAADAwKj0AwAAAICBEfoBAAAAwMAI/QAAAABgYIR+AAAAADAwQj8AAAAAGBihHwAAAAAMjNAPAAAAAAZG6AcAAAAAAyP0AwAAAICBEfoBAAAAwMAI/QAAAABgYIR+AAAAADAwQj8AAAAAGBihHwAAAAAMjNAPAAAAAAZG6AcAAAAAAyP0AwAAAICBEfoBAAAAwMAI/QAAAABgYIR+AAAAADAwQj8AAAAAGBihHwAAAAAMjNAPAAAAAAZG6AcAAAAAAyP0AwAAAICBEfoBAAAAwMAI/QAAAABgYIR+AAAAADAwQj8AAAAAGBihHwAAAAAMjNAPAAAAAAZG6AcAAAAAAyP0AwAAAICBEfoBAAAAwMAI/QAAAABgYIR+AAAAADAwQj8AAAAAGBihHwAAAAAMjNAPAAAAAAZG6NexEEJs89Wj/bq+ar8K2MzGQgiPG56npz3Zpfeanpe+nr+58/Z4yfec1b7nzu63sr2+Po6amjsnZ/3Y6nGYOzeLvhY+zkrUYF/6+Jy3cnv7+PwxpHM00+K+ojevT0v26frc9/TqNXeIzxNDM7T3UkN8bpg3hPu8Jefpg3Ox5Dmkd+eMcRH6sVK+wXvb4PuGeHP0ed+CPyjQJ7VN+sQJKkMI4WWD8/GoT8EfwyJ0KdL9sR8A4ANDvc9bFOYd7GE7YCNCP5p40/QohRBOB3hEPy9gGzoTQrg5kF0B1pQ/zLnd8G8/cpzZlxDCcwe/KEdjPwDAaCwK/a45/fSN0G+LYoxh1VdPdmX+ye3WbL+qqvps7s/u7XC7uvJk/jxVVfWq/rMHVrYt9AMezh2BZyueA6+XfsRijHcWPJfX/3zpn7E/C87LrbmN+bSHp+eD+4oFX31tddDrKh7PE+VbcQ7u9vwcDfm5YYisTmEQhH609XGM8afKvxhj+gT+2dCOYoxxMKXbIYT5fdF3AviFGOP9uf+ef96wnIWdyPcYTxxtAIDNCf1oJcb4cv77598sDsh0ILsyX9kn9APqBCwUJcaojyQAQAeEfrBc416GhZuv0FGqzs4smXwmeAYA6Dn3eVA+oR8Mnxde9mnR9eeaLEvx/fqAcoQQTPAFZkZznyfMpK9+7czB4KnsY5+EfmWqB33L+vWd1/793dgOELBUCv1OHR5gZPd5hiHSS0I/ALZpUegsiN6/lSFemnI5guMAtOc5HJgZ9H1equ6rTVQ21IxesrwXAAC4ygtHBxih+gegQj96SegHAONzVttjVTvAKi8dIWCE6kt63S/RS0I/GBENaIHqx6W79dAvPTcY5gEA8Euq++g9oR8sN8RmrfXQ79Uet4NxmjrvxXoz9gMANBdCOHK4gDlDuc+rDzK7vcftgE4I/WC5yVCOTa3Crx5kni35duj6uqvyDdSbJX/Gfjyp/dZrIYTnzgNwhfob+vsOFIzbgO/zvEdiUIR+sEAIYQi9a+qfUs1eeOsl6l7Q2Lb6Dd/Z3DUn9NuzGOPjuS34dCDPfcB2nNZ+6qeOMYye+zzoAaHfFoUQ4qqvwe58vzyaP0/zpdzz/a96YtELb32/hH5sm5vB8n08t4W3Qwjvxn5QYEMf3Fcs+Orjc6D7BtjM0J4b3OdBDwj94GrTGGPo6TG6cjpnjNEbe7atft29nAvPTUArQIwxVfZ9Nrcl1/IbD8M9gJ/09ANQYHtGc583F8bqi06vCP3gapO+VmS6OackQuZyxRhTL78bCzbw7diPDQCw2pDv80IINxdUNUJvCP22KFWIrfoa7M73y5PZecpL3b6a33pDB4AhSzfr+Tnwsr6b2lDAWp40uAfs/ZtG90bQ2iieGwai3hv9QOhHnwn9oCYtdYsxPlxS9QIwaDHG6wuCv5vOOpDVnx9M8AWGqh7sHRiGSJ8J/WCBIZaoz/Xn0osCWCgHf3VuboGZ+gTfe44KMFDzQ0muzf5Dyxr6RugHy50P7Nj4hIqdabLsy9Kwot2tbdxk7AcD+MlzhwIY+n2e4XMMidAPhq0eXD6u/bvQj237xY1eCOEsfc0tDRP6FUpPIWARzw1A5j4PeuLXThQM2lnt06n6p1Ru2tm2+Ru9RZ+SuhkEAOgf93nQEyr9YNgWLsPRi4IdaLIUwnKJnrAUG1jC8ziM01jv86YFbAO0otIPBixNIw4hOMXs27Oqqt7kbbip+fv+hRDu1yZvnsYYT0veXgCgWEO9z7usD/DIrJaid4R+AGxVjPF+/eeHEIR++3ez9gm8G1igjWc+vAFmBnyfl+6PPl3w/6BXLO8FAACaUhkMjMGigE/oR+8I/WB8htKL4qDl/wcANmSCLzASHzzXxRjfOPn0jdCPVkII1+e/P4Tw2FEs2uXcxg3lZn2+3H5mvvcGO9Zm6IMBEUV4NPYD0AeLHitDff11XwFQrrHc56Xe6AVsBmxM6Edbb+vfn0NAbxjLNh/yDeYT+hDCy7n/NpW4DG1u8IR+BQgh/GK53vxjq6oqN777920I4eZsK/IbqcG9/uZ9dF8BUC73edAjQj+a+EWlWAghzr7mQ8Dc3JmyDCb0izHOV3/cnrser819f+/2tb4/y74K2MxV6jd485Wm89wM7sfTud96b+6xdLv+hzFGgfp+zLdjeF07R9/O/dmLPu7g/PNc2se5b+njfj1q8FzuuQ/GZyjPDe7zoEeEfjRxs+lRmp/eRBHO5s5R33tRnDf8vq+2vB0s90ntTxZViNXP4ScL/pwtyyHeq4a/5YnzsR8xxjavv0cD2/33hrpfA9DLkBnoxFjv84bSF52REfqxUn5zeKPB9wVHszxD60cRY7zT4M3GVzHGhzvaJK5m8lmhYowHDUL0JwsqbNmt0b7+uq8omgm+QDWC+7x6JaP7V3opxNiHlWIAAAAAAAAAAAAwTlb3AgAAAAAAAAAAQMEU+gEAAAAAAAAAAEDBFPoBAAAAAAAAAABAwRT6AQAAAAAAAAAAQMF+7eQAAABjE0K4WVXVzdpuH1RVdb323/N/Pvt/k4EcqmlVVW/m/t/ZFf/9JsY4//0AAAAAAADsSIgxOtYAAEBx5orx7uR/1v9fKs675swV67Kqqpf56yzG+HzsBwQAAAAAAGBdCv0AAIDOhRBmHfLm/zmkrnis50GM8dSxAwAAAAAAaE6hHwAAsFAIYVaoN+ui9/+zdz+7kVxnnrDP6fY0LI/RVWoIo4VhJP3dQNFLroq6gmJfQVELrkVfgagrELXmoljbb2PWFYhccSnyBsZMGF54ILSKDcMyZtxzBqd0ohxKJclIZkRmROTzAAkWWWRm5InI+PuL963Ces+NGEt6nVLaN4gAAAAAAADNCPoBAMCGiDHu1kJ7u6rr/cTFzA/O5/zOvJ+FlNLcn6/bTPvjut2Z72d/r/NlI6UU+zJOAAAAAAAAfSfoBwAAA1Xa41aV9qrHWIN7tyGEq/Lv/PVteVQ/u0kp3axx+vhhmcxV+l41GAsV/QAAAAAAABYg6AcAAD1Sq8C2O6LwXlUpr6p6VwX1rlJKb9c4XbSkLLd5vj5p8IxvUkp7xh4AAAAAAKC5nxkrAADoXglCVcG9KsTXJBTVF9clnHdeq6Snih552T4LIbxoOBK/TSldNfg9AAAAAAAAagT9AABgSaWFbr0C37Oej+k0h/RKaO+mBPbOG/wdvLdAm97sq5TSodEDAAAAAAB4HEE/AAC4x0yIb7enbXRvS4U9wT06t2Cb3lwJcleLZgAAAAAAgOUI+gEAsLFijE9LeK8K8j3v2VhclEDVu4eWp6xbjPE0hPCywWTcloCfZRYAAAAAAKAFgn4AAIzWTJBvt0ctdS9K9b0qwHfTg2mCO8UY90IIv284Ql+klI6MJgAAAAAAQHsE/QAAGKweBvmmMwE+7XMZtPIZu2rYslqbXgAAAAAAgI4I+gEA0Gsxxu1akO/FGqe1HuI715KUsYsxHocQPmv4Nn/rMwEAAAAAANAdQT8AANYuxphDfHtrrspXtdM9L9X4VCVjI5Vw7TcN3/vrlNK+JQUAAAAAAKBbgn4AAKxEjLEK8u01bAPatvdBPi11Yb4Y41XDsG2ucLktEAsAAAAAALAagn4AALSmVALbX1NlPkE+eKQYY/7cvmr415+mlE6NNQAAAAAAwOoI+gEAsJAY41apypcfz1c4etNaa90zlcRgeTHGpyGEmxDCkwZP9ialtGfYAQAAAAAAVk/QDwCAuUqr3ard7qpa7V7Xgnyq8kGHYoy5Kt/LBq9wm9cDKaUr8wMAAAAAAGA9BP0AADZYqeZVBfperGgkcpjvrIT5BIdgxWKMObz7dcNX/SKldGQeAQAAAAAArJegHwDABqi1290PITxbwTue1sJ8KvNBD5Rg73nDdcB1qeKnRTYAAAAAAEAPCPoBAIxIjHG7hPl2VxDou63CfDk8JBAE/RVjPA4hfNZwAj8R0AUAAAAAAOgXQT8AgAFacYW+XNnrtIT5tNqFASnh3xzae9Jgql+nlPbNXwAAAAAAgP4R9AMA6LEVB/re1Nrtqs4HAxdjvGq43sjVObd87gEAAAAAAPpL0A8AoCdijPsl1Peiwym6rYX5zsx7GJ8Y42EI4cuGb+zTlNKpxQAAAAAAAKDfBP0AAFastNKsQn2Tjl5doA82zIJtet+klPYsIwAAAAAAAMMg6AcA0JEY49Na293nHb2MQB+waJve3ZTSlVEDAAAAAAAYDkE/AIAW1Kr07TespvUYb0qgT5tN4J0Y41EI4fOGo6FNLwAAAAAAwEAJ+gEALCjGWFXpe9HR2F2HEHIY5zSl9Nb8AWYt2Kb3IqW0axABAAAAAACGS9APAOAOtda7hw1bYi7qthbo00YTeFBZL50v0KZ3O6V0Y2QBAAAAAACGTdAPAOCH8MxWrfXupIMxedd2t7TeVaUPWFiM8TiE8FnDv9OmFwAAAAAAYEQE/QCAjVNCfYcl1Nek7eUibkug71iVPqANpU3vNw2f6k1Kac/AAwAAAAAAjIugHwAwah2H+qY50Fda76rSB7TqEW16t6yLAAAAAAAAxknQDwAYjY5DfW9K212tMIHOxRjzuuZlw9fRphcAAAAAAGDkBP0AgEHqONT3uoT6ziwdwCrFGHPb3d83fMnXKaV9MwgAAAAAAGD8BP0AgN4rob798pi0OL251WUO8x2nlK4sCcC6lDa9Nw2Dy7lt+LY2vQAAAAAAAJtD0A8A6JUSdskVrY6E+oBNsGCb3k9SSucWDAAAAAAAgM0i6AcArFWMsarU97zF6RDqA3qvrP9eNZxObXoBAAAAAAA2mKAfALAyMcbdEuprWrmqqdchhFNVroAhiDFuhxDOG7bpvQ4h7GrTCwAAAAAAsNkE/QCATsQYt0IIhyXY1yTM0tSbEuo7M+eAoYkxnjesYHpbAn6qkgIAAAAAACDoBwAsL8b4tAT6crBv0uKQXpRQ36nZBAxZjDGvH79s+Ba+SCkdmeEAAAAAAABUBP0AgIXFGPdLsK9JVaqmpiGE4xLs06ISGIVF2/SmlLbNeQAAAAAAAGYJ+gEA9yohlVyJ6mWLI3VbC/XdmAPA2JRKpzng96zBW9OmFwAAAAAAgHsJ+gEA75VgymGp1tdmC97XOdgnxAJsghhjbrv7ecO3+qn25AAAAAAAADxE0A8ANliMca8E+9pswXtRQn1nli1gkyzYpvcipbRrAQEAAAAAAKAJQT8A2BAxxq0QQq4ytdcwhNLEtNaC961lCdhEj2jTu61tOQAAAAAAAIsQ9AOAESqhk70S7GurBW8Op+QqfUcCKgA/iDHmsPNnDYdDm14AAAAAAAAeRdAPAEYgxpjbP+6HEF62+G604AW4Q2nT+03D8XmdUto3lgAAAAAAADyWoB8ADEyp1ndYgn1tVevTgheggUe06d2yXgUAAAAAAGBZgn4A0HOlWl8O9r1ocUpfl2p9V+Y/QDMxxtwO/fOGv65NLwAAAAAAAK0R9AOAHqlV68uPJy1N2XUJ9QmcADxCadN73nC9rE0vAAAAAAAArRP0A4A1KtX6coWo5y1NRW4TeVqCfTfmLcByYoy5rflnDZ5Em14AAAAAAAA6I+gHACtSq9aXKz1NWnrVixLqOzMfAdpT1tlXDdfX2vQCAAAAAADQKUE/AOhIqdaXg30vWnqFXC0qV5Y6Va0PoDulVe83DV4gt0bfVcUPAAAAAACArgn6AUALSuWn/RLsU60PYKBKSPvrBlP/u5TSsfkMAAAAAADAKgj6AcAjxBi3QghHIYSXLY2fan0AaxZjzIHtVw2m4rcppSvzCwAAAAAAgFWJKSWDDQAPKOGPXK3vWUtjpVofQI80rOSXQ9lbWvUCAAAAAACwaoJ+ADCjVOurgn1PWhifHAw5LcE+1foAeqa0X//ugakS8gMAAAAAAGBttO4FYOOVKk65De/zlsbiuoT6Tjd9bAEGosn6elvIDwAAAAAAgHUR9ANgo5SqTXsl2Ddp6b2/zs+nWh/A8MQY8zbhxQMT/ql1PAAAAAAAAOukdS8Ao1ba8B6VcF8bbXin5fnOVHYCGL4Y41UI4dk9b+QipbRrVgMAAAAAALBOKvoBMCodtOG9KNX6zi0pAOMSY9x+IOQXyjYFAAAAAAAA1krQD4DB6qAN720I4TiEcKpFI8BG2HvgTd4KegMAAAAAANAHgn4ADEZXbXhTSqeWAgDmuDIoAAAAAAAA9IGgHwC91UEb3telWp/qTAAAAAAAAADAYAj6AdAbMcb9DtrwHqeU3prLAAAAAAAAAMBQCfoBsBYxxqchhMPy0IYXgHW4eeA126ooCwAAAAAAAEuJKSUjCEDnYoxbpVrfy5Ze602p1qcNLwCPFmN86IDodymlYyMMAAAAAADAOgn6AdCJGONuCfa1UQ0pt+E9LcG+h6ovAUBjMcbTBiH0D7WBBwAAAAAAYJ0E/QBoRYxxvwT7Ji0837Q815lgBQBdKq3kv3vgJS5SSrtmBAAAAAAAAOvyT0YegEXlUESM8SjG+Da3PCxtD18tEfK7CCH8e0oplsdWSulUyA+ArpVtzacPvMzzUvkPAAAAAAAA1kJFPwAeFGPcKhX29kIIT1oYsdf5+bThBaAvGrbwVdkPAAAAAACAtRD0A+AnYozbIYTDBoGHJm5DCMf5oUIfAH3WMOyXt2tbtmkAAAAAAACskqAfADnYsFsq9j1vYTSm5bnOhCAAGJqGYb/s09xm3gwGAAAAAABgFQT9ADZQjHG/hPEmLbz7ixDCqbADAGNRtpOvGrydXN1vWyt6AAAAAAAAuiboBzByMcanpQ1vfjxp4d3mYN9RSuncsgPAWJXt503Dbed1CGFXJVsAAAAAAAC68k9GFmBccjAhxngUY3wbY8xp7u9CCJ8vEfJ7HUL4TUoplseukB8AY5dDeymlHPb7osFbfZa3tzHGqxIQBAAAAAAAgFap6AcwcDHGrdKG92UL7yS3IDzOD1WJAOAHJbx3XgJ9TdyWCn9XhhAAAAAAAIA2CPoBDEyMcTeEsN9SsG9aQoJngn0AcL8F2/lWvkgpHRlaAAAAAAAAliHoB9BzJdiXAwLPW5jSd8G+lNKp+Q4Aj/OICn+hVPnb0/4eAAAAAACAxxD0A+iZGGOu1ne4YHjgLhcl2CdUAAAtK4G/s0eE8a9zdV6tfQEAAAAAAGhK0A9gzUqwL1fsm7QwJa9DCKeCfQCwWmV7/uoRLzotoT/bbgAAAAAAAO4k6AewQqXyz17Lwb5cse/GfASA9Vuiyl8o7X2P8yOl9NbsBAAAAAAAoCLoB9ChcrH/sDyeLPlKLv4DwIDEGLdzpd0l2vGr9gcAAAAAAMA7gn4ALRLsAwDmaSH0l12USr6CfwAAAAAAABtG0A9gCTHGrdKG92UL4zgtF+9PzRMAGK+y/5DD/C+WfJP2HQAAAAAAADaEoB/AAgT7AIC2xRj3S/CvjWrAZ2X/4saMAgAAAAAAGA9BP4B7tBzsuy5teAX7AIC5YoxPQwiH5bFs8C+UGwtyiPA0pfTWqAMAAAAAAAyToB9ATYxxtwT7nrcwLhelos65MQYAHqOD4F8Q/gMAAAAAABgeQT9gown2AQBDUoJ/e2X/ZdLipOe2v6cl/HdloQAAAAAAAOgXQT9go7Qc7HtdWvG6GA4ArE2McbtU/HvZwTRclwDgWUrpxlwGAAAAAABYD0E/YNQ6CPYducgNAPRdjHGvhP/a2AeaRwAQAAAAAABghQT9gFGJMe632MpOsA8AGI0S/sv7Si86fE+5BfBZCOG8hADfWoIAAAAAAACWJ+gHDJpgHwDA45W2v/vl8aTjobwtAcB3j5TSlVkHAAAAAADQjKAfMCgtBvvyhebj/FBpBgDgx1ZU/W/WNIRwJQgIAAAAAADwU4J+QK8J9gEA9EcJAFaPrisAznNdwoBXwoAAAAAAAMAmEfQDekWwDwBgeGKMWyX8t7viKoDz3NYrA+Z/2x8EAAAAAACGTtAPWCvBPoDxKwGgrQfe6NMQwvYABuN8wd+/SSnddDQtMAhlHbBbeyy739eWenXAHAZc9PMNAAAAAACwMoJ+wEoJ9gG0Y054bvb7ecG57TW12mT1Lsor5gBT3k7elMdbrU7pmxjjdlk/VWHAvgQBKxczgUCfIQAAAAAAYOUE/YDOxBiflhZubQT7pvl5Ukqn5hjQVzPhu7v+ndeNz8xEamG8unkVxX7yM5XH2DQxxt0SBtzuaRgwzAQCb3xOAQAAAACANgn6Aa0pwb7D8li2YpRgH9CpUkHq6Uzlu/rPhPHG47pUtatU1e3qZgM5Wu7CwNRaBFeBwOc9fQfXZR10VdY9VypUAwAAAAAADxH0Ax5FD4j8AAAgAElEQVRNsA9Yh1pAr/paVcsTzuu/2xJsqdTDdVe1MJ72skBnZqoDbvd423FbbxmsbTAAAAAAAGw2QT+gMcE+oA1zgnq75Wn7Wnlpk9SDePWqd/UQnspTwOiV/d7tmQqBfWwXXJmWdfZ5rXWwUCAAAAAAAIyIoB9wJ8E+4C61AERVTa8K7QnrrdZFebUqiPe2HtTTehagWwMMBAahQAAAAAAAGCZBP+A9wT7YTDHGeliv/rXvQYWhui6BvKpi3vtwXkrpfJTvGIB6y+BqWzuEcHy9ffBNqepqWwUAAAAAAGsg6AcbTLAPxqm0xt2qVRbK/35mdrdiNqT3/qF6HgBtKAH87ZnHUML311UgULVAAAAAAABol6AfbBDBPhimmbaAVfU9LXIf57ZWlUhQD4BBK+H+KtRfVQxcdj9/lS5q2+Jz22MAAAAAALiboB+MmGAf9Nec8N62qnsLuai1vH1bqxokHAAAc8wJBQ6xTb9gIAAAAAAAG0vQD0ZEsA/Wb6bd3hAr66zatHaxXmAPAHpgTvvgrYHekKCVMAAAAAAAoyHoBwMm2AerI8DXSD20V1XbuUopvR3AtAMAjxRj3K0FArcHvJ80rQUD3wcE7csAAAAAANAHgn4wIIJ90I3Sym63dmFaC90f1NvjqYIDACyt3DxRbx+cH88HPLLXM+HAvL903oPpAgAAAABgZAT9oMcE+2B5tQoz1dfJBg+r9nUAwKCMMBgY3EwBAAAAAMBjCPpBjwj2wWLKhd/dWohvEyvxXcyE97SXAwA2Vjmm2h5JK+G6vM/3trbP91blQAAAAACAzSLoB2sk2Af3K9X46kG+oV+gbeq61v7tXHgPAKA7ZZ9zNiA4hhtI6uFAbYUBAAAAAAZO0A9WSLAPfmwmyDf0FmwPua1X3SvhPS3aAAAGZqZq4NNaW+HJCObldQkHntfbC7vpBAAAAABg/QT9oEOCfWy6DQnyVQG+81qA76YH0wUAQE/EGLdqrYTH1FI4lGPVm1rlwKtSPdA+MQAAAABAiwT9oEWCfWyacsFyrxbmG1tr3QsV+AAAWIc7woFjqRx4W28pXG6aeWt/G+BuMcb9fK5wBduBah1dV62v665KFdj3tIgHAACAbgn6wRIE+9gEpSpfFeZ7NpK3fFurwHeuHRkAAGMwEw4cW1vhUFoL38yEBO3LA6MVY9wu5y3GdmPlY13PhgvnBQ7LmNUJkwMAADAKgn6wgHLRJN85+7KFcRPsoxdKYLUe5hv6RcDpTIDP3eQAAHCHcjxQVQvcKscET0d0k0+9tfBb1QOBoYgx5vXVczOs9+ZVQJwNH85WRLQdAgAA4FEE/eAeLQf7cgvQ45TSmTFn1UYU5qsq8QnxAQDAGpXK31VIsKogOKZAiuqBwNrEGG9GVI2V7s2GDWeDhfXzZ0KGAAAAAyboBzUdBPuOBJFYpRjjXi3QN8QTwhf1lrouogEAwHiUFpT1lsJVm+ExtaS8qAcDS6DCeQGgsRjjVYOqqq9DCIfLnjeptXyvq9bVdbsz34+p8iuLqwcL386EDOvbPAF5AACAlgn6sdFKBYKjlqoOCPaxEuXi2F55DOmkar0a37m7hwEAgIfUQij1kODYAia3s5UDBQRhM8UYTxvcgPxpSul07ANUztvOmhc43J752ZZqiKMwrVUlrLdC/tG/BQkBAIBNI+jHRhHsYyhKq929WqvdIVS4mM4E+W4a/A0AAEDrZloLj7V6YCjnJt5qMQzDF2M8DiF89sAb+SqldGh2r0c5XzcbLJytgDjvd8bU2n4Mrmthwercfr0y4Y3zmgAAQF8J+jFqMcb9Euxr4y7O3BLjVLCPNpXqfPkC1P4AKlII8gEAAKO1IdUDK1XIoTrHcV6qCKq8DmsQY8znLz9/4JVfp5T2zR9qrfAr9UqHs0FDFQ5Xo97O+KZWjbDazgoPAgAArRD0YzTKHZWHJTDVVrDvyAE4bSjVJKoKfX09uSbIBwAAsKBa4GK2iuBYgxX1KoLvqwk6hoTHaRjyu0gpzWtlC52bU8mwvizWQ4dChe26KM9WBQfrVQdV7wUAgA0l6MdglTvt90u4r43WO4J9LC3GuFcL9PWxJdSbWpBPpQYAAIA12cCAYKiFFlQShOYhv2lKact4MWYzYcL7/j3GKrurcGdoUAcjAAAYFkE/BqME+/LJr5ctTHMupX+cH+584zF6HOjLVfnOamE+yzcAAMCI3BEQ3ITww7QWUPjRw02bDFGM8bTBeU4hP2hB6bYSZkKEVcv+UH7Wx5u2+6Zq/T8bGBTaBwCAFRH0o7fKwXcO9j1vYRqn5bnOBJ9YRE8DfRclyHfmBAoAAABN1KolVcGGKiDYxnmXIRAUpDdijFcNwrnXKaXtHk02UFMKE9SDgk9ngoTCg/NNZ0OCqgsCAEBzgn70QjnZXLXhbaNFzbS04T01h2miVETYL4G+PrRJelML87ngAAAAwNrUqgjWqwmGDQoJhtId4kowgWWUz9I3DZ7iIqW02+D3gJGYaV8sOHi/6znb43dfFXoAAGDsBP1Yi1ob3raqpF2UYJ8Tq9yrFirdX3Nbo9sqyFda7ArzAQAAMDpzQoKbVkmwbrbl4fvWhyr2j1/DVr3ZFymlo00fL2A5tXbFVeXBemhwE7fBdRfl3+f1r64vAQAwBIJ+rETLbXiz1yXYJxzFnXrSdldlPgAAAHiEWnWjeV/XefPeOgkLDkyMMd9s+qrhVH8iaAL0SS2wLzD4g6r18I+qCVp3AwCwKoJ+tK6chD0sFdPaaIGaK58d54ey68xTKkTurbFKXz7Jfloq8zmpDgAAAD0gKHin6WxIsBZUcF6jJQsG/K5TStsNfg9gcGbaEu/OfN2ksGAV1j+vbXtvFAgAAGARgn4srdzRddiw9UQT01Kt79TcYVZteVt1lb5prc3umRkDAAAA41drfbjJwYR5bmeqGYVaC8SrTb1Zt5y3Ol0wSPrvzjUB3K/c7H/Xo42CE302W0XwXDgfAGBzCfqxkHLn1V5pw9vWwVNuw3uqtDmzyp3PeXl7scLB0WoXAAAAaMWcYIKqgj92Ub67mm1JPITzMmX+Vp1NFr0h9YuU0lFHkwZATW17PK/S7yoLCqzSvAqCGxvGBwAYC0E/7tVBtT5tePmJEiDdX2Hr3WktzOeOaQAAAKC3hAUfNJ1pQRxqgcHw2NDgnHHfbSkQ8qlOJgDDUWs9XH2tbxvGVk2wqthbrx6ovTAAQI8I+vFeR9X6Lkq1PieveKecJK1CfV0fBF+XA9FTZewBAACATVULrc2GFYI2xCuRz1HtOz8FsFnmhMarbfCYtr3CgQAAKyTot8FijLulWl9bbVHzznyujnZkB56w2lBfPll6qt0uAAAAQDdqFY1CqW5X/zrm1oePlW+APhTuA+AxyjW82SqCY9ne1tsKVy37z3swXQAAvSfotyFK4OqwBK7aOgiYllCfan2sKtT3poRJz7R+BgAAABieGOP2TGXBerXBobYirm6APhbsA2BdaqH8ejBwawSt/utVA2+qf7tOBABsIkG/EeqoBa9qfbxXlrH9Eh7tItR3UavQ50ANAAAAgPfmtCIOteBgF4HBaQkWVJWHzp0jBWAsSgh/ayYkOOT2wrPbbRUDAYDREPQbgRhjVUWtzZ3ud0Er1foI3S1jQctdAAAAAACAYRlZOPC6XimwVAt0zQoA6CVBv4GJMe6WKmovWpzyXK3vuAT77LhuuHJwlpexly2OxLTWvsQyBgAAAAAAsEHKNc4qFFj9u4uuUV2q2girFggArIWgX4+VHd79lgNX2esS6rPjueE6aMFbtXjOFfrONn18AQAAAAAAWNxM1cDq32235+/Sbb1KoFAgANAGQb+e6DDUpwUv77VcEfKi1nb3rVEGAAAAAABgHQYeDJytFJjbB1/1YLoAgJ4R9FuDDkN901oLXsGrDVeq9e2FEI6WrNZXtd09dVABAAAAAADA0JXrtbPhwCcDeFvTWpXA8xIKdF0YADaEoF/HYoz7JWzVRgW1ummpppbDVzd9ff+sToxxq4T6lgmQqtIHAAAAAAAAxZxqgdtLFtlYhdnWwaoEAsAICPq1pISs9kqlvrbLQN+W8NWxUB+VcqdRDvY9f8Sg3JYqfcd26gEAAAAAAGB55ZpxfuwOKBR4IRAIAMMg6PcIMca9Eurb66CE87QWwBLq471SHXL/EcG+qqXzmWUKAAAAAAAA1q+EAqsw4G4JCPY5FCgQCABrJuh3j7JzdVgCfV3sVGm/y51KsO9owWVP610AAAAAAAAYkdLpqx4MfEzHr1WpAoHnJRDoOjgAtETQ74cdo6clzHfYQdvdynUt1CeAxU88Itj3pixPZ0YTAAAAAAAANtuAqgROa9UBq0Cga+gA8ICNC/rV2u6+7PBlBLB40ILBvtdlmTo3sgAAAAAAAMBjlUI4VRiwCgb2MRBYbxd8rjogAJtutEG/crfCfnl0tVOS7zQ4Lm1S7VRwr1JS++iBUtq3eXnKy1VK6cqIAgAAAAAAAOswkEDgtKoKWMKArrECMFqjCPrFGLdL291cqe9JBy9Rha9UVKOxEjY9vSfYJ9QHAAAAAAAADFoJBO7OhAK7uG7/WNOZNsGu+QMwSIML+pWdhL0FWp4u6k0JX+UqfW+7fTeMTQn3/WHO2xIWBQAAAAAAADZWKeBTf9zXCW3VhAEB6L3eB/1KsO+wPNpM/V+Xamva7tK60qb3xrIF0G+Tk53dMoH5hMLT8tiuTXQXJxnyPkh1M8FNebwtJxDC9ODSyQMAAAAAADbSnHbBuz2qDqhNMABr1cugX4wxV+w7bqlin0pqALABJic7W7W7APOB/9YC+xLT8vVnIYS/hxB+HkL4uONRq17zn0II/3eB17woJxHePaYHl04kAAAAAACwUUrhlfo1gS66AT7G9UwYUGEYAFrTi6BfSeXnVryfLflUVajvyAYTAMajhPh2a4+7Dti/DyH8rxLY+7cQwgcjXAzye/yPEki8axwuyomEcxUCAQAAAADYRLVWwVUo8FkPhuG21iL4XLEiABaxtqBfCffl1rkvlniaaQn1nbY4aQDAGkxOdqqD7f07DrZzwO3bEMK/rKDa3tB9F0L4Swjh13Pex3XZBzubHly6MQIAAAAAgI3V0zDg9UwY0Ll8AN5ZadCvhcp9gn0AMHAl0HcYQsit+p/MvJscUPtrCOFX5nNn8hj/Vwjho5kXuKgFAN+O6P0CAAAAAMCjlTDgbo/aBN9WIcASBLxa8/QAsCIrCfrFGHNlnuM5F/Ob+KqE+1xwBoABmZzsPC1hvsM5d8Dlynz/HEL40DztjTxP/vtMu+Prsg8n/AcAAAAAAHeIMe7OhAEfk41o04X2wADj01nQr1TvOwshPF/wT29LsO94fMMNAOM1OdnZnxPqq9rtzmshS//dllbJ9fDfmxz+mx5cOjEAAAAAAAANxBi3aiHA3R60CBYEBBig1oN+pWzt+YIJdeE+ABiQycnOVmnH/3Jmqv8o1Dd6fw4hfFx7k9cl+He66QMDAAAAAACPVaoC1sOA66wKKAgI0EOtBf1Ke95XC/7ZVymlQwsGAPTbHcG+edXe2Dyzwb988H+k4h8AAAAAALSnVAXcrT0maxxeQUCANVg66PeIgN80hLCXUroywwGgnyYnO09LsO+z2gQK9tFEbtX8Ue33Xpfg343RAwAAAACAbsQYn84EAdfVHvi2CgGWIKBsCEBLHh30izHuhRB+v8Cf5Iu8hymlt2YeAPTP5GQnb9uPa3eAfZ83+SGEn5tdPFJehv53rb1AvuHjcHpweWZAAQAAAABgdXoUBJyWEOBZCQLKkAA0tHDQL8a4XVa6TfvBf5FSOjJDAKBfStW+3EL/89qEzVZjgzbVl698R9/x9ODSfiIAAAAAAKxZj4KAVVvgM9UAAX5soaBfjDGvTJ83/PVPU0qnxhsA+mNOS96/hhD+zwIBfmjLbKj0C6E/AAAAAADop54EAVUDBDZao6BfjHE/hPCq4UC9Tintb/rAAkBf3BHu+ycteemR25mwqdAfAAAAAAAMSIxxayYIOFnx1N+WEGBVDfDG8gOMzb1Bv5LIPm+YxL5OKW1bQgCgHyYnO7kt75dlYoT7GIrZ9r6H04NLVaIBAAAAAGDAYozbJQC4t0AnyTZdl0qAWgIDg3Vn0C/GmFeuv2/wxvIF2F0rQgBYv8nJznY5SKnukpptjwpDUl9+czn+venBpX1OAAAAAAAYkZm2wHtrqAZ4XasEeG7ZAvpqbtAvxpgDAi8aTPNXKaVDcxcA1mtyspMrnr0sE/EfIYR/M0sYmXp739el0t9bMxkAAAAAAMZtzdUAp6XIxnlK6cyiBqzTj4J+JSV91SAdnS+0butpDgDrU6r3ndfCT9+HED4wSxi5euDvtlT5c3cdAAAAAABsoBjj1kw1wCcrHAWVAIGVeh/0Kyu/PzR48TcppT2zCQDWY3Kysx9CeFVeXPU+NtmPqvxNDy73LQ0AAAAAAEAlxri3ppbA16USYA4BXpkhQBveBf1KmdNvGjzf71JKx0YeAFZPe164U/3zcF2q/Kk8DQAAAAAA3CnGWAUA89dnKxypi1oI0PUMoLEq6Pe2QfnS35W2vpWrlNJbQw0A3Zmc7DwtJb+rgwvteeFu9c9Hrva3Oz24dJccAAAAAACwkFIwa688VhUCvK1aAZcQoEwO8COxJJO/fsSwfKLHOABjV4J2u3eU9L6eHlxudzEEAn6wtPpn5tPpweWpIQUAAAAAAJa1pkqA01oAUFYHNtQiFf1mCfoBMAqTk53dWpjv+cx7+i6E8JcQwkclNFS1CP1qenB52Pb7F/CD1tXb+gr8baAY4/mcdTstSCnFIY1jOfn2mJvceNgXKaWjTR6nGONWObm7v+I2L4/xxl3hP9XhOmIwnw9jQMU2M1yX4/JjLbT6IcaY1yGfdzQxH9oerp99qXGwL3G3Hm1bL1JKu+t4YcvHalmvwnrFGPfuKCDSpeqzdO44BsbtZ+GHCzRPY4xXA9jQA8DCJic727Ug3+6ccPsfQwi/zCd35zz3h7WfV4GhTsJCk5Od/Jwvy7dVwE/ID5ZThfzy5/fV5GTnlcAfAMsqrVuOBxokflEer2J8n9d9HUI4ciIY4J1n5fFZbT2ZK2ccppTODNFadBlK2S0XRFkh+1KwNm6EHCnrVeiXctyQHz8qGBJjfFoLAO49ohjXfarPUqh9loIqgDA+P6veUUrpXevBWsI/r2C2hP8A6LvJyc7WTJBv9u6Yb0MI/xVC+PiOt/LrB97iX0MIvyiBod9ODy6v2hwSAT9YidnAXz7xtdv25xmA8SoVKE5XeCf2KuV90ZflRHA+AbyXUrKNBPiHvO7/fe2C2e9SSsfGZ2W6DC0I+q2IfSnohxjjfkrJDbAjYL0Kw1OqVp7N2/+cyem8aPHN5XXEZzM3MlVU1IQB+tnsJJdk/HF5AMDalXa29SDfbAi9aq97V2DvoyXew7fl7/PB5Pb04LK1Hd3JyU4um/+qfFtVCxTwg25Vgb9/CSF8MznZuc03t7T52QZgPMqd1se1mzI2QT4B/E05+fs6pbRvkQb4iS9jjF+WNr/7Ljx3p4QYurSWFpabwr6UfSl6ab+Ewxgg61XrVcbrvpxOqdq5f8c10mXMq6gZynHOaQkAqqwJPfOToB8ArMPkZKce5Ju9U/v7WuBuXhDuwzva7rYhv+ab6cHlXltPWCoQXpWS3FXA798a/CnQnmpd8t9yWHhystPq5xyAYSsXT851OXhXQeFlOcG76+5ugJ94Vi4835b1pMBf+7oO4j3L233buHbZl3rPvhR9pH3vAFmvvme9ykYqxxmHs++9rBv2apUA22oFnNc1X5YbnOo/r9oAnzr2gfUR9ANgJSYnO9szVflmdzb/VLZL89rrftCgvW6bvq1VAfzd9OCytSq3k5Ods3J3zF/LjwT8YL1yW+6/5c/l5GQnhRA+nR5cuqsZYIPFGM9abpEyBvkE73cxRtUTAOZ7Ugv8bat60apVVNzTvrdF9qXmsi9Fr8QYcxtU672BsF6dy3oV/tEK+HRepdZaFcC9Flt839UG+LbWAtj2BTom6AdAK0qVunqQb3an8c8hhL+HEH51x+vd9fNVu62F/D6ZHlyetzQ+eUf69+Xbb5dsJwy06+e1z+arycnOsXa+AJsnX+yq7a8xX1U94ZOUUiv7yQAjkwN/f4gxfpVS+knFDR5lFZWnBP1aYF+qEftS9MW+9V7/Wa82Yr0Kd6hVAfzRcUmMsbqeu9diiPhJaSn+UgAQuifoB0Ajk5OdpzNBvtkS8d+FEP5yT3vdeZX6+uhJ2fFsJeRTxq0qqX9bnl/ID/qp+mxW7Xy/mh5cujgHsAFijOdaWC3kayEWgHt9Vi7Ob2sp93gxxlVU8wsrqho4avalFmZfinVTHa7nrFcXZr0KDZXq43dVAdyrtQJuow2wACB0QNAPgPdKe929coJz9iDy+1Lt6pchhA/njNqHd/x8CG5rO6wX04PLVk7wzlTx+1tLO8VA935R1nefTU528h3O29ODS623AEYqxnjTYguTTZJDLDnAIhwBMF/ettzkihnCfo+2qm3MsxjjU/PpcexLPZp9KdZK+97+sl59NOtVWFLZLvxk29BBG2ABQFiCoB/ABintdfdqVflmg2d/KtuGedX3cpW+X49wtP5ce79fTA8uj9p40snJztVMFb+fN/gzoD+q6n7/kltvTU52Wls/ANAfLqAs7XmM8TSltD/w9wHQlSfCfktZ5YX67dKRgQXYl1qafSnWSfveHrJeXZr1KnTgnjbA27UKgLOd4B7joQDgqTbdIOgHMCq19rpVmG/2gDCH2v4eQvjVHe/7rp+P1d9qIb9/nx5cLn1io1RF/KZ8e6uK3+BMy/7R38uE/487WlEvIre1/s+Z53WyZjg+KNX9Pq9V93OBDmAEYoxnPd4mX9zx8z62bsonX89TSj9p+QLAO09KW6w9w7GwVW73dgX9FmNfqjX2pVgX7Xt7xnq1NdarsCIlAJgfPyqSkG90Ksc/+x0HAKe1AOCV+c6mEPQDGJjJyc5uLcw3u3OUA0V/KZWo5oWT5lXq22RVlb3ftNGWc3Kyc5zLw9d+JOTXHw+FXCuTcmBwUw5O3ta+ZldNQl4ldLtdvt0qj+pnWw1G5aFW2axWVd0vLx/fTU52PpkeXLoANBDrbtcRY8yv/3UHT32hFUlvfJFSUvFzYHKbqh5c2JqWE6Fnj63ylNsMlpOmh2u+IPSqhFgA7rPybWZZ3+/3YJ3/Isa474Jzc2U/epXsWy/AvlTr7EuxFtr39of1auusV2GNUkr5GttxebzXQQBwUq7LfjYTALwu64CzMi0wKoJ+AD1TKsJVYb7ZA7uHwj8fCgU96K8hhF+UX5q2UZ2rhLquyg7lt7VQEKv3xzuCrlXI9aLcoX/eZVCrLFMLPX8tHFh9/u+7G/Ku90n38mf868nJzlfTg8tD4w0wWOsKZ77OFzzaat9Ynuf9idNywvSspZOlC4kxHgm9An1TwgvvAwwlPHa6pgvPhy44L2TVwbs+ViTqM/tSLbMvxZrsad/bG9arLbNehf5ZYQAwP8eX+TETAHxTwn+Oyxg0QT+AFZuc7GzVgjzz2uv+qayf51Xfy6GeX5tnj/Z9LeR3MT24XPqk8ZxWvUJ+q/PHOZ+HX5f58P/nnfU22jGvSi0cODcgWJa1/XKwM++iVH7f/1fYt3MflbH+LFdYnR5cbq95egBYUIxxe8UXGfLNJXuraCFSTpi+2zblylGlisGqqIQE9F5K6byqsh5jnK3K37VneRukpVRjK9+u5CBoWUa4f5zsS3XDvhTr8LKcb2SNrFc7Y70KA3FPAPCh62KLelGqrdfXRbflhiztfxkMQT+AlpWqXPUg37z2un+9p4XoQ61FeZzbWivd19ODy6VPYExOdg7LHSEVrXq79eeZAOyvazvgx220X+6z6cHlVakA8aMqcpOTnf1yoDOv+sDsmNGO6rP+bHKy87ZUBlX+HWA49lY4pb9d10nCcnfyaYzxbEUtoFRCAgYlpfTu+CrGeFqCDquwVToC8LB1bFd2F63Ov6HsS3XDvhRrIeTcC9ar3bBehYEr66ufXBerBQD3W7g2++Se9r/Hy7Qzh64I+gE8Qq7idE97ze9r7VvntdXUXnf16iG/L6YHl0uXa5+c7FQHo99rn9qZ2ZDax+Vuw6PpwaWy2kUZi/fjUcLG1YFPffzysvq/BVJb999CCH+YnOz8+5AqSALQueuUUi+qvqaU9kqryq+7fq3caqXchQ0wGCml/VLd75sVTPO2FokPK9utdVD5pz/sS8Hq7As5bwTrVWA07gkA7pXwdBs3cj0rVUhf1QKAt+V47lRInnUS9AOYo7TIrIf5ZoMxfyotYOcF9rTX7Zd6yK+VIM7kZOeq7ODdCk21rh7u+7iM8XEb4cxNUVoAH5VHFfw7Knck1UOp32o13YpflOX095OTnVaCxAAM3uscGunTm8gnH2OMv8nh9I5fKleqchEFGJx8oSjG+GGpttdGSyiWs67Anco//WBfClZL+97xs14FNkJK6awE8d6v82KMT2vV/5Ztk/6kbDdfqv7HOgn6ARtpcrKzNRPkmz2Jm8NGf9ded/DqQbxPpgeXS91dUQJTN+U5haTaUx/Lj8sO8X5pVcuSSvDv/Z1NpSLp6cx6z/K8nCdlu/F53r600RocgMG66NsFlEquYhBj/O2KKlYBDE65ILMVY3zrpr61W1tlPS0s186+FKyBdd+oWa8CG60c5x2Xx3u19r97LdzsdVf1v9NS/c/1Tlol6AeMUglk1YN8swn970IIf7mnve7HIx2aTfJdreLib6YHl0vdtVXCodXdZbMtZVlcPVj2UQn37S07n3hYCbxuhX9ULz2dWUcK/T3Ox2XsXpawn5ZPAJtpr8/vulSs+iKH03swOQB9teuC89qts6mDXp8AACAASURBVLXgrhaWa2VfCtZjz7pvtKxXAe5Y/9zR/rcK/71YctyelE5bn81U/3tTwn9Ld6Bjcwn6AYNVqlJVj9nWGt+XwMUv72iv++EdP2ccvu8w5Hcr5LeUqspiDpJNS7jPnSxrUsb+3QWUycnOXgn9VSE/rakX91EJAj+fnOycC/sBbJyvhtCeI6V0FGN0EQXgDuWC84U2rutRKmus81jUcdz62JeC9dmfDTowCtarAAtKKZ2Wa2XvxRi3ynayjep/OUD4Yk7r36r6n9a/PEjQD+itUmmqHuabPcn3p7Iemxe6ylX6fm3ubqyqSmMXIT/Bp8V9X5snefy+mB5cHg3pDWyC6cFlvnsoV0PNy30+oHhZe9vf31H9lJ/6uBb2u5keXG4ZI4CNMaQ7cQVYAO53Zj25NusO2pnv62NfCtbnifa9o2S9CtCC3Gq84+p/uevWl/lRCwBOy3r8uLw+vCfoB6xNaa+7VwvyzSbgc1Di7yGEX90xjXf9HLJPWg75fS/kt7AqHPZBCUnuqt43DNODy3xwsj852clfj2vL/n+EEP5t08engSrsNxH2AwCAQXLsuj5rr6gn7AJsKO17AWABd1T/2y6VcveXvK48mdP697YW/nPMusEE/YBOlfa6VZjv2cxrfRdC+EtpdTivUpT2qCzqu9Ky99PpweVSJyVU8ltKPeB3XQJ+Sk0P0PTg8t1BSqmwel4L+Qn8PUzYDwAAYHF9aJ27K+wCbCDtewFgSSWA96PqfzHGp7Xw32xeYhFPSjeulzOtf1+Xtr+OYTaEoB+wlFp73b05ZbVz2OfbEMIvS/hq1od3/Bwe44+lXfMXJZz0aKXaZHUnhJBfcwJ+I1UqMT6dE/jT0vd+H5d1SA77XU0PLrf7PLEAAADrVKpf9OEcTB/ChgCrpn0vAHQgpfS2dM86rj97i61/54X/3pTw35DauNOQoB9wr1LVbLcW5ps92fansi6ZV33vgxK8gq59V5a1N9ODy6MWXuuqLOt/tAw39tcQwi8E/MZtTuDvSW3eM9+TEoh8NjnZOZ8eXLpgBAAAMF9fjpdmb2YG2BQqmgLAitzR+ne3VP6bl8tYRA4PvhD+GydBP9hwpXJZPcg3mRmR3Hbw7yGEX90xUnf9HFYpV4a8nR5c7i37mpOTndPyObgV8mvk29J++/+EEH5bgmCMXC3wlw82XpV3q53v3aqqh8/zOmZ6cLnfx4kEAABYs97cGKWqFbCh8jmrNm6kBwAeoRyD/Og4JMa4VVoB7wv/EQT9YDNMTnZ2a2G+u9rrfnRH+8V5lfqgT74rQb+lgzOTk53DUt44aNf7oGq9kR+fLtsumWEq8/00t6XNFevKm/hbCOHnZulPVG2OX05Odm5aqj4KAAAwJn2qgK6qFbCJJoLOANAvKaWbEvQ7rCashP/2y2O2kNMi5oX/Xpfwn/2BnhL0gxEoLRTrYb7ZgNL/LEGoD+e8W+11GbIqbPZ6enC51J0G5XP0paWhke/LuF9oQ0r4IfC3XULlX5eQ362w7E98UGsH/nkORy673gIAABiLGON2z44jne8ANpWgMwD0XAn/HdUr8cYYn5bg3+GS4b9cFOdlLfyXr/nl61nHKSWd3XpA0A8GYHKyszUT5JvXXvefS/Bmnv/PfGakPiote9tog1kFbgSU7lav/vnJ9ODSCR/eK8tDnJzsnNeqx/41hPALo/Ter2tVSH8/Odn5cHpw+bYn0wYAALBOfQvWzXZFAdgU2vcCwACllPL1puPyeKel8N+TO8J/x6Xy343lZbUE/aAHJic7T2eCfM9mpiqHAv6ivS78SBU6O1x2WCYnO8dl5+aPKlze6W9lvK/zeko4ibvkKo+lDfaXJeT37T1B9E1Ur66bQ5Hbmz4gAAAAfaygp30lsKG07wWAkeg4/Pd5ftTCf9Nys8BZeV06IugHK1JaGlaP2TtCvy9BiF/e0V73rra7sKmq1rHX04PL02XGoLTs/aw8p5DfT31fAsa5HetX04PLpYOVjN/04PJ4crKTq2T+oXxW/1aWIX5QhR+f5VBkHi/jAgAAbLg+tsrVvhLYVNZ/ADBSd4T/tkr4b3+J8F/+u1f5UQv/vSktf+1XtEjQD1pSwkL1MN9s688/lc/cvOp7HwgYwaO0ETqrgoLzqmVusm9nqohq1ctCpgeXN6WV780SBwVj9VGthe+XORRZxgsAAGDjxBi355xL7YM+hg8BVmFP+14A2Byl/e5Rfftfwn9HZb/gscdrL/JDy992CfpBQ5OTna2ZIN9saOHPIYS/hxB+dccz3vVzYDF/LoHZN8sGz0rb7LwzsdXSPGjzBHAfQnV5B+tMm16WMT243Jqc7JzPqWa76eqVek9dQAJglVJKtjsA9Elft0uOY5nLvhQb4FkOYaeUrsxsVsF6FaB/ShBvvz5hub1/+dnLR07wvJa/FyX4t1QXv00i6AdFCfzUg3zPZsYmV975y0yFq7p5lfqA9lWftaVbXZYAm50G6Nj04HJ3crJzusSO/1j9sVT0fT452dlfthU5AADAQPX24n6+kKXNFLChcvUeQT8A4L1ybHReDwDGGPdLF77ZfE1T+Qar5zHGV+X3b8v1+2NV/+YT9GOjlPa6e+Xk0ewdmd+XVpW/nKmyU/nwjp8Dq1NV87vQRhaGZXpwuT852QnCfj9Sb9t/JHgMAABsqD5X8dntSdcFgHkuOqw+qn0vAPCgUonv/fWt0vK3Cv89puVv/pvP8mOm6l8O/p2ZI4J+jEytvW4V5ptdcfypLPfzqu99MHPBHeiffy1TtHQ1P2D1hP3m+lNp7z+ZnOwcTg8urd8AAICNkVtDPvLiz6poJQj0WQ4id7Ue1b4XAFhYqcJ3VL9hoLT8zcG/F48c0arqX/X9bckL5PDf202bS4J+DEqtvW4V5JvMTH+u9vX3csF8nrt+DvTf9yWQO50eXErrw0CVsN/TJXbmx6a+b3IoyAwAAGyY7Z6/3a4qZQG05bRUvemC9r0AwNJqLX/fiTE+rVX9m838NJFvcvg8P2rhv9cl+Df6fRdBP3pncrKzWwvzzfbx/i6E8JcQwkcl8DNrXqU+YBz+V9nQa20JAzc9uNybnOzclM/093ds0zdJvarf/vTg0noOAADYFL2vmJerT5QLUwB9dNZh0E9VUwCgdaUK33G9+EWp+re/RFew/Hcva8G/6xL8G901N0E/Vm5ysrNdDg5276jm88cQwi9DCB/O+b8P7/g5MH5Vml+1KxiHHOj/poT8bnveqqlr9ap++wLNAADABmk7RHJdvs7eQL6M3Xr1CYA+yUHk2gXttuUWeVulBR8AQGdqVf/ydbKq6t9h+f4xVf/yMeGrGOOr8v20XH8bfLtfQT86MznZ2SofxCYfutxy92+17/+zPGBT/A8Vre41ra1Lvpuc7PR0MoFHeiLs9+5Gh1/nE6j5pojpwaW2KAAAwKjl8MgjL9jcpwqjtB30A+iz10tUv3lIvrh+ZO4DAKtUwnhH9f2QGGMuIpLDf88fMSmTmXa/t6Uy8tHQbmoQ9KMz04PL/GHYMsJwv8nJTt4g/d4w3avtk75A/2xyyC+UkF8lbxcE/QAAgLHrIkBXHUvN6yTzWI+5iASwSqcdBv2EnQGAXkgp5WDeWTUt5eaxo0fuBz2Z0+739RCCf//Ug2kA2HT75f1PN30gADbcd+Xt72/6QAAAABuhi/DIeRdtdmOMgi5Ab5VWd115Xi6iAwD0Sg7kpZT2U0oxP0IIH4YQvlgid5GDf3+IMabyOO/jsaCgH8AaTU52ntbuMFa1DmCz/Wd595PcvnfTBwMAABi91i+Y5LBLR4EXQT+g7153OH1uSgUAei+3+00p5Yp8W7Xw36chhOtHTnuu7v5134J/gn4A63VYXv3P5gPAxqsHvvc2fTAAAIDxKtWh2r7p9eKOf7dB0A/ou7MOp886EAAYpJTSaUppuxb8+yQ8/nixF8E/QT+A9fq8vPrH5gMAIYTvyyA4gQoAAIxZF8c8V3f8uw3PLY1An6WUugz65fa9Ty0AAMDQlSrwu7Xg32+WqIy8luCfoB/AmkxOdlTzA2DWt+V7F5EAAIAxG1rQL/ShRRPAA950OEDa9wIAo5NSukkp7Q8p+CfoB7A+VdDvX80DAIpfVv+YnOxsGxQAAGCkugjN3dzx77YI+gF9d9rh9O2Z+wDA2M0J/n0YQvgihHD7iLc+L/i39LU/QT+ANZic7OSD4kl55Q/MAwCKD2sDoSUKAAAwOjHGrdp5sdbkFkzVc9X/3SJBP6DXtO8FAGhXSultSukopfS0peDfN7XQ36P2rQT9ANajqub3J+MPwB1cRAIAAMaoi2Odi4Y/W8ZzSyMwANr3AgB0pMXgXz6+/C7GeLVo4E/QD2DFJic7W7UTg78y/gDM+LMBAQCAtdoy/J3qIug3r4Jf61X9YoxuyAL6rsuqftr3AgDUtBD8e1YCf42PNQX9AFavuuttauwBmONv5UcuIAEAwHoIMnRrsEE/x2lA36WUTjucRJVNAQDuMSf490nD0N/XMcbtJmMr6AewetXJ4n819gDM8TODAgAA61FOrL8w/N2IMeZqiZMOnvym4c+WJegHDEHbrcvfizFq3wsA0FBK6TyH/kIIv2kQ+Dtu8qyCfgArNDnZ2S7lV0Mp2woAs/5uRAAAYG26bHlIN0G525TST0J95WdN2yU1pZoVMARdVvUT9AMAWFA5Pj184K8aHW8K+gGsVlXNT9teAB7iAhIAAKxQjPGmo2pz/EMXQb+rR/7fo8QYVfUDek37XgCAXnroWLJRVWZBP4DVqlbe2vYCAAAA9EBu1xtjTEJ+K7HdwYucP/L/HkvQDxgC7XsBAHqi3DD28oGpadRhQNAPYEUmJztbtbvdtO0FAAAAWLMYY6569I350L0Y49MQwrMOXkjQD+CnumxFL+gHANBQORb++oHfnqaUjps8o6AfwOpUbXv/bMwBAAAA1ifGeFyq+D10Rz3t6SQgl1K6M8x33/8tQdtKYAi07wUAWLMS8rtpMBWNj5cF/QBWp1o5/82YA9DAtUECAID25FY5McabEvD7zNCuXBdBvybHTa0fW5W2SwC9lVJ623H73r0GvwYAsLFqIb8nD4zBJymlJmHAbEvQD2B1qhOAE2MOQANvDRIAADxeDiHEGM9ysK+E+75e83mZLtsoDkEX4bgmF0OaXjBZhKAfMATa9wIArEGMcSuE8F2DkN+nC1aiv/mZGQrQvcnJznaDlTgAZP9qFGBQPo8xfr7hs+yLlNJRD6YD+sg6Av5h0z8Pr1NKVz2YjrUolQyedfDaTcY0/86Lll9X0A8Ygty+98uOprPt9SoAwCiUyse/b/BecsjvdNH3rKIfwGpUJ/+mxhuAB3xogAAAYFSuU0qbXvmoq2Bck8oHi1RHaOp5B88J0CrtewEAVivGeNow5PfJY0J+QdAPYGW2yguppApAU11cjAIAAFbrq5TStjHvJujXpMXRgm2QGosxquoHDEGX55c2PcQOAPBObtUbY8w3Wbx8YERuc8GPZY5TBf0AVqM6ofsL4w3APW5r/7Wxbb0AAGAELsrJ+0Mz850uQnGLVKnqoqKVoB8wBI+qFNOQ9r0AwMaLMR6HEP4QQnjywFhcpJSelqrLjyboB7AaVTsP7RgBuM9/1v5PRT8AABier0rAb3fZk/djEWN8GkJ41sHbWeTmqC5upBL0A3ovpXTTcfte60IAYCPFGLdLFb/PGrz/T/N5gjbGSQtJgI5NTnYc6ALQ1Efl9y6mB5cuCgIAQH9NS3jsLD+E+u7V1bmxdQf9njf4HYA+OO9wnbXvZlUAYJOUm9nOG97Qdp2Pids8Z6CiH0D3npZXmBprAB7wQflvJ0gBAKDfJqVl4asQwncxxnNVje7U1bjcdPS7jZnnwEB02b73pYVgc+TtXowxDehhOw1Aq2KMeb/qu4Yhv1zFb7vtGwMF/QC6t11e4b+MNQD3qAfCuzwBCwAAtC9XSvq6XPi+Knf484NOLrKnlBrfILXI7y5IgADoPe17AQCWE2M8zMf7DW9yeJNSiimlTq71CfoBdK86yP1nYw3APX5e/iu37e2k2gQAALASz0qVvy7axQ5KCTw2qXSwqMcEVroIuQi3AEPRZfeIfUsBADBGMcb9EvD7ssHbuw0hfJhS2utyKAT9AACgHz4uU6FtLwAAjMOzqG1cV+/9McdNXRxrPe/gOQG6cNbhqGrfCwCMSi3g96rB+8oBv9+mlJ623aZ3HkE/gNWZlJU8ANR9O/O9tr0AADAuX29w2G/sQT8tK4FBSCnlKrPXXU2rdSEAMAYLBvyyT0vAb2UV/X+2qhcC2GB75W65fIfvEwsCADM+Kt++ya1OpgeXnd/tA7Tqi5TSkSEF7jCYdUS5OPt1DyaF8erk8xBj3A4hPC3f5q/bJVzWt0prZ7Xp3CRdBT9uVvQ3TeyqzA4MxFlH7dRDuQ5iXQgADFKM8f+1d/++cV7pfsDPs9kb7F4EEbUxsNWCNJBechOAlaUmrbR/geiCaS3XKUSXqZauWYhq05hOmcZSGgK3WapMZQ4uUmzgrMQguV7cJPcExz5jz9J8hzOcOTPvO/P5AIR+cmZ4Xs7L857zfZ/ndM4qxSXgt5bCHYJ+AI3VwIa72QAAAACW7Ia75n/WmjAi9lJKxymlJ2sc/3sR8TTn3LJ1Yq9ExE6jQMlVznnu0F75nIi4anAjrnU/YCjKz6AXjV7rQUrpue8EAGAo6jXr8VACfmNa9wIAAAAAsLFKwCvnXEJ2kVK6X6tpr8PDLfsuaxWAW6QlUot2Sn2rHglwoxqOHzUanXva9wIAQ1BuBoyIMi96N0fIrwT8Yt0hvyToBwAAAADAtsg5v58I/b1y4JtqFWxcpDVkk7aSwi3AgLTcnH7qGwEA6KuIOIiI0o3xmxmrz1/1KeA3JugHAAAAAMDWyTkf1Ap/bx39JlqF33oX9NO+FxiQVufBVNv3AgD0RmnPGxGnEZFTSi9LFeIZXlsJ+H2Uc97pU8Bv7Jf9eBkAAAAAALBapcJfqTwXEUcppReGf6matLTNOd85pFI+NyKW+4J+IOgHDEI9D5b2vbsNXu/37XsXOU/Te2Xe9KbBi3w4Y/ACAGYSEQ/rDQ7z/HwpNwE+qusEvSXoB8BW2z3Z36ntCh65kLxVmdwcjw7Pe3fnAgAAACwi53xUA2DCfkvQsJXtMqovvp2xTdM8moQaARo5bfjz7lHjqoGsUc75okW4PSJe+1kKwKJK9b6yl51SejbnQ32Rc34+lAOgdS8A2678wH9SQ37fbvtgTPGnugj+cvdkP++e7F/09pUCAADAHZSwX0rplbFbilZBv8uePMbPNAw3Aiyb9r0AwMaIiKcRUarwvZsj5DduzxtDCvklQT8Att3o8Lws7n5Rh+GDbR+PKX478U9/LqG/GvizcAMAAMDGyDkf1AV/FtMq9LaMGw9b3bwo6AcMQm2t2+pn3a7gMwDQWkTsRcRFROSU0pdzdO77KqV0P+e8UyvVDo6gHwBbb3R4/nyi9ct32z4eM/jNxH8pFf7e757sP+ztqwUAAID5HBuvhbVqv7eMKlStKlkJtgBDctrwtTofAgBLV1rzRsRxDfd9U7vRzaLc4PC4Vu97mnN+P+SjI+gHAD94Wn/9dUrp743JzK7qHRJ/LO18d0/2dwbyugEAAKBLy5aGG69lJadahWrtj9GhVbgRoIWzhqOqCwwAsDQR8XyiNe+nczzuq4nqfRtznS/oBwA/tfD9fR2L36nsN7NxGeRv610T73ZP9lveDQoAAAD0W6ug35uePtaPtKsEhkL7XgCgzyLiaQn31ep9f5ijNW/p4vdRrd53MPTqfTcR9AOAanR4Xu5i/Lz+8dfGZS4f1P/855TSs92T/SzwBwAAAFupVbjjoqePNUmwBRgS7XsBgN4oNwpExGUN9305R7iv3LzwSQ33Pcw5t7re6wVBPwCYMDo8P0opfVX/5n8Ym7n9pn7CXwX+tPQFAACArdGqha2gH8BytWzf+9SxAgBuExEPI+Kihvu+LpWB5xi0L2q4r7Tm3ZoCNIJ+AHDN6PC8LEKMUkr/KqX0J+NzJ+PAX2np+6y29L3YPdnfG9jXAQAAAMyocavGy54+1qRWIUeApavte1t5UDbuHTUA4Lpr4b4/lnnDHINUCvbcrwG/59s4uIJ+AHCD0eH5Xi3z+9uU0t8bozsbt/S9qpO0b2qVv4MBfi0AAADAdM2CfssMpLQMtzQOOwIs26uGI6qqHwDwvQXDfW9SSh/WcN/TnPP7bR7VX/bgNQBAX+3Vu8V/Vyv7/daRurN7E59YQn8vd0/2X6aU3pYFn9Hheas76QEAAIDVaRVyG0XE0bIfc862ULMqY9CyShbAMp3WjiwtlKDfss/dAMBA1Oq+p3OG+sbKHvJBzvnC8f5rgn4A0GF0eP5+92S/TEC+qSG/q2uBNe5mPIaTVf5SLbV8UMbduAIAAMAgtWpdWwJ5LwYyICr6AYNRKpxGRKuX+337Xhv0ALA9aoXz0zveVCXcNwOtewFgilpp7sP6P+7VcBrLMRma/Dal9CSl9K629n29e7K/Z5wBAABgGLSs/VGrsCNAK9r3AgB3FhFPI+KytuX9es6QX6m0/ri25XWDwAwE/QDgFhNhv3FFvz8Zs6X7YOIBr+qi+Dc19FcqKz7fkK8TAAAANpWgXyX0CAzMacOX63wIABsoIp5HxPsa7vtyznBfqdz3UQ337ZUKw75HZqd1LwDMoIT9aoW5y9rG99tr4TSW56b2yH/YPdn/Q/19ubPjKKV0ps0vAAAA9IYwx0/KWNisAgahcfvejyNC5xYAGLiI2EkplcIsL+74lWjLuySCfgAwoxoq29k92b+sdyUI+63GZPDvu3IMUkovy8fuyf74778qd56ODs/PNnQMAAAAoO+0rP2J0CMwNGV99Umj13wg/AwAw1PD+scLzBHe1HDfpcO/PIJ+ADCn0eH53u7J/uu6gP2XlNKvjOHK/Lp+TCqBy39bJpkTwb9UK/+d1cp/FpIAAACgEa1qf0boERia04ZBP1VOAWAg6rVdCfc9uOMr/qqG+3Rla0TQDwDuYHR4/mj3ZL9Mcj41fmt3U1XFUvnvFymlf1eO0bUAYHGVUrqoC0zl14vSnnnzhwoAAACaEPS7pmyQlXaYvXpRAB1yzmct2/emlLTvBYCeiojSkvfoWpe1eXxRPl+4bzUE/QDgjkaH589rZb8v6yNcLTABYrlK1b/fTXnEMtH81ymlfzOuEHhDGLBLqRTY51DgzgJ32TCfq9Hh+Y4xAwAAEPS7gQpWwNC0bt8LAPRAbclbgn3P7vhqrmqw79jxXD1BPwBYwOjw/Gz3ZP/DWhXuXm0je1OFOfpl946v5l39ddE7UP9lSum+74lB+2p0eP502wcBAACg0qr254QfgaFp2b7XzwkAWKPakvd0gT3SUW3J62amNRP0A4AF1ZavO7W6nwWLzXZfQG9rTVbs/Gx0eO4uJQAAgJ82jPg5a0TAoDRu3wsArFBElI5UpSXviwWetVT7fZ5z7nOns60j6AcASzI6PH+0e7JfWhC8rI+ouh9shvF7uYT99kaH5+8dVwCGLCJa3aDy2F29AFupZdDvVa060dLBAi2rpiohSD8bN4+5FBvujaAyAAxTvQmrFKp4cMcvoOyDHeecj3wL9JegHwAs0ejw/HT3ZP8spXRZg0F/SSn9yhjDoJX38qvR4fmBwwgAAPAzLYN+p62DT7V6VZOgXx0bwS1gSE4F/QBgGJZUtU9L3oH5xbYPAAAsW6n2NTo8LxOrzydCflcGGgbl24kX+5GQHwAAQKdmgZBVbDY1fg5tjYFByTm3rqIKACwgIp5GxGVE5JTSuzuG/Erl9Ps558g57wn5DYugHwA0Mjo8L2WN79eQ372U0nfGGgZjXMUvRofnFw4bAADAz9XWUK28WeGQv230uA8bPS5AS6s8/wIAU0TEXkSclmBfDfd9mVLanXPMStW+T2qwr3yUCn7vjfswCfoBQEMT1f0+SSn9uj7Tt8YceunP9UVdqeIHAAAwk5ZBv8sVHoJWz3UvIoT9gKFR1Q8A1igijiLifQ32fZNSenaHV1Oq9n04UbXPz/cNIegHACswOjw/LZXB6t2QH9RnVOEP+uEv9VX8JqX0WQnnquIHAAAwk5ZBv1Vel7V8Lu17gaE5c8QAYHVKpfRxO94a7ntRu8XNo1Tt+/21qn2rvHmKFRH0A4AVGh2el8Xdj2rFsF8L+8Ha/UNK6VelTVNt03vskAAAAMzs44ZDtcqg3+uGjy3oBwxKbeWnfS8ANFLb8Z5NBPu+vkM73uKLlNL9iap9wvpbQNAPAFasVAq7oZ3vnx0HWKmr+mT/p5QuHx2ea6UEAAAwh1J1ouV45Zxbhu9W+VyCfsAQCQoAwJJExE5EHE8E+0o73id3ePQSxH88UbXveQ3os0UE/QBgTSba+X5SW4YmgT9obvI99lFt06t0OQAAwPxaBtjWUUmq1XPeiwg3lwFDc+qIAcDd1GDfUUS8r8G+dymlT+/wYKVoxScTwb5Hq7whin4S9AOANZsI/L0S+INmxu+p8h77pAb8VtkGCgAAYNO0DPqtY/Oq5U1gqvoBg6J9LwDMJyIOIuJyItj3otz0c4dhnGzHu5NzFr7nrwj6AUBPjA7PDwT+YOmuB/yihGsNMwAAwMI+bjiEgn4A66diEAB0mAz21XDfy5TS7h3GqwTrP9SOl1kJ+gFAzwj8wVII+AEAADQSEa2Da+uowN4y0CLoBwyRtTQAqMo1UES8XlKw7/G1drwtbzpiwwj6AUBPTQT+PhH4g5n9pf7Hf5ZS+kjAD4AVejigwd7rwWsAYNhaBtdG66hgkXNuGfS7FxFDmiusg7kU9EwNHWjfO1zOqwALuCHY9/Udq5qPyl7vtWCfqrncmaAfAPRcCSnVwN9HNbxUfJdS+gfHDr73RADkIAAAFjBJREFU3cQw/NeU0v3R4fnO6PB8HRUgANheT4fwldcKTHe52xgAJrUM+q3zWq5loEVVv+nMpaCfBBGGy3kVYA5LDPZdpZQ+nwj27eWcFaRgaQT9AGAgSmiphJdKiCml9Hcppb+tr1yVP7bVt/Xr/nVpdV2r9z0cHZ6vvPIDAJSFv4g4GMBAHPfgNQAwfHfZ8JrVOoN+LZ9b0G86cynoJ8GE4XJeBZiinCMj4nJZwb6yf1uDfTs55yNjTyu/NLIAMCw1xPT94vDuyX65UH9Zv4AykbzncLLhSiXLqOG+v0kp/X50eH7moAPQEy/Lnb+1xVXvRETZpHvgmwWARdTKOy2ts3qUoN96mUtBz5T3Y0S8aRzwph3nVYCfzjllT/VoCVVEr2pI+TjnrPAEK6eiHwAM2ERb3/vXFqNV+WPTjKv3lUqW/3miPa+QHwB9801EPOzbi4qI8jPzWQ9eCgDD1zSwlnNeZ9CvZRDiXh/nCD1kLgX9o33vsDmvAlvphop9L+8Y8ruxYp+QH+uioh8AbIBrVf7Kr+Pw02T1MxiaEu77oL7mUr3v8ejw3MIiAEPwx4j4vA9tOiJip94QsujdyrdaczADgNVpGfR7s87jWH6WRUTLp3i05tbEQ2EuBf1S1ppfOCaD5rwKbLR6bnlePxbtfqZiH72moh8AbJgShKqVzsrK9L+fCPn9xbFmAK4mXmIJ+X1evpfr97SFGQCWYVWb6y8i4n1E7K3rqEVEWZR8t4oNFAC2Ssv2jX247msZNtyE9r3mUrBlcs7lff/WcW/GeRVg/vPJXmn/PVGt710Npd8l5KdiH4Mi6AcAG2x0eH5cQ1Il9PcfJr7SK8edHpn8fiwXYV/U1rzle3ftd5kCsFlyzqts+36vtkkqmylPV/Wk44XOlNKnq3rOdVdgAmA1IqJ1UK0P1e5ahg0HH/Qzl2rGXIq+W+V7f6s4rzbjvAobpFyHlJbfE8G+bxZo/z1KKX0m2MdQCfoBwJYogamJ0N/xxFddKv195/uAFft24umuh/ue13bUANDKqxWPbPlZ92VdjCwbKgfLfoKIOKqPnRdY6FzEcbuHBqBHWgfVLnvwpbYMG96LiIcNH39VzKWWz1yKvhP0a8t5dfmcV2HAynkpIi4mgn1fp5Se3PErKsG+T2qor3zs5Zy15WWwfunQAcD2qVXSvq+Utnuy/7z+ftzi99vaMhWW7U8ppd/Wxxy35VWxD4B1eL6mjYZUN1ReRsTLib/7qm6cvc45Tw041DZLJWTxdIEFzmV7u+IqFACsT9OgX20PuW6tw4aPelK5cBHmUstlLkXvlfNzRJT2vQ8crSacV5fLeRUGJCJ26nnw+R1b715XKnqWCn0tK3XD2gj6AcCWK+19x3e37Z7sP6q/Hwf9SkvVv0kp/e22jxN3Ur5//vlEiLRUj/z96PDcIguwSV5ExIstP6Kfl/YWPXgdMyt37EbEJ2Uzoycv6cl4QyQi1v9q5reylk8ArN3HDV9AL1rs1TBLy6cYfEU/c6mlM5diKM4E/dpwXl0651XosRoQPlpiwLlURT0V7GNbCPoBAD8aHZ6/Hi84757sj++gmQwvTFZkg+tKC+h/nLjj6l69wNKKF4DeyTmf1juG/+DoLOTxbRUeANgMEdG6bW+fNubeNAw1th7HlTCXWhpzKYbk9bW1YpbIeXVpnFehZ2p78IMlza+vavD8yHudbSXoBwDcqAazJlv83nSHjeDfdrse7CuV+/6ufJ/U0CgA9FrO+Tgi3veoasLQPHa3NMBW2aag3+uGQb/dUsVkEzYmzaUWZi7FoJTv14gYlfOYI9eG8+rCnFdhzRq04R3VTmSlYp+CEmy9JOgHAMxqdHh+We+4KR9dwb93KaVfLGnyTv9cb8Vbfv2P5SJrdHh+4XgBMES1akLZCLgwh5lZmRPsWWAF2DpNg34925hvXbWqjOVpw8dfGXOpOzGXYshOVfVry3n1TpxXYU1q1e+DJbbhLZW1j3POZ44p3EzQDwC4k47g30G9S2dSucj+p5TSfSM9KKVa3/9OKX0w8aLf18W8Y614AdgktaLOTkSUO4Q/dXCn+jznfNTj1wdAO60q3BVve3bcWlfb25igXzKXmpe5FEOnfe8KOK/OxXkVVqi24T1aYnXXV9rwwnwE/QCApajBvx9b/aYfwn9dd/KUENm3KaXfGf1euKkS439PKZ3VUJ8LLAC2Qs75eUQc1c2rB476XykBjEcqJABsp1qpo6VeVYkvG40R0fIpWo/nWphLTWUuxUbQvne1nFencl6FxiLips5eixiNi0l478LdCfoBAM2MDs9f10WIg/Fz7J7sP6x/fnrD844DgB9MtIdleUqg7/9dq9JX/Jca6jtTqQ+AbVcXGh9GxI7NlO/ZPAEgrSCY1qugX/WmYRXD3bJxuomVS8ylfsZcik10psrc6jiv/ozzKjRSq/U9X+J5RhteaEDQDwBYqdHh+UW9UPirFr/XAoBdIb//Vucvv3XUOpUw3/+6oVpiaaH8n+pC3GuBPgCYbryZkn5Y6DzawvZUn+Wcj3vwOgDoh20M+r1u3K54o9r3XmcuZS7FRhP0WwPnVedVWKaIeFr3455e6/Z0V1f154M2vNCYoB8A0AtdAcD0Uwvgp3UR/LY7iUZ1jvObDawK+KeU0j+mlP5FSun+tX+7qhsjr2uQ7/WaXiMAbJycc9lEOaoVFI42eFPrc+1TAOjQMvD2fSvIHg7868Yhio0O+k0yl4LNUtv3Xi0pGMIdOK8CYxFRAsA79Y83/X6vUbv1UQ31bcV8FvpE0A8A6L2JFsA32j3Z36sXLQ/rQvnenCG/UgXvf9a50f+d+PtlX/yMn6f4RUrpn1JKv7qlQmG5WLqsX3/59aKGIgGAFaubCz/emBARj2pF4mcDPRav3GkNwG3qz7uW3vT0ILS+9m49rr1jLgUb5VRVv/VzXgVKGLb1TTnVqxq8tT8FayboBwAM3ujw/LKG4M5m/Vpqq+Cd+vGw/vXk71N9zHnvdrq6YTOg/Hl81+H4tSZV9wBg2Gr1odd1I+V7taLCo4kbEHZmqEjcyps6B/m+6m9PqyUB0H+tA2m9/PlUwhONK1btRsTeNocZzKVg0LTv7SHnVWBJRjVAeKqiJvRP5JwdFgAAAAAAAAAAGIiIeL1gRb+3tUrrmWqaMAwq+gEAAAAAAAAAwLBcTAT9RuOOUtW4amb5P5fa7sJmUNEPAAAAAAAAAAAAeuwXDg4AAAAAAAAAAAD0l6AfAAAAAAAAAAAA9JigHwAAAAAAAAAAAPSYoB8AAAAAAAAAAAD0mKAfAAAAAAAAAAAA9JigHwAAAAAAAAAAAPSYoB8AAAAAAAAAAAD0mKAfAAAAAAAAAAAA9JigHwAAAAAAAAAAAPSYoB8AAAAAAAAAAAD0mKAfAAAAAAAAAAAA9JigHwAAAAAAAAAAAPSYoB8AAAAAAAAAAAD0mKAfAAAAAAAAAAAA9JigHwAAAAAAAAAAAPSYoB8AAAAAAAAAAAD0mKAfAAAAAAAAAAAA9JigHwAAAAAAAAAAAPSYoB8AAAAAAAAAAAD0mKAfAAAAAAAAAAAA9JigHwAAAAAAAAAAAPSYoB8AAAAAAAAAAAD0mKAfAAAAAAAAAAAA9JigHwAAAAAAAAAAAPSYoB8AAAAAAAAAAAD0mKAfAAAAAAAAAAAA9JigHwAAAAAAAAAAAPSYoB8AAAAAAAAAAAD0mKAfAAAAAAAAAAAA9JigHwAAAAAAAAAAAPSYoB8AAAAAAAAAAAD0mKAfAAAAAAAAAAAA9JigHwAAAAAAAAAAAPSYoB8AAAAAAAAAAAD0mKAfAAAAAAAAAAAA9JigHwAAAAAAAAAAAPSYoB8AAAAAAAAAAAD0mKAfAAAAAAAAAAAA9JigH70WEUcRkRt+PPId0EYZ24g4m+PYXUbEcUTsbeJ49MWS3lPlWJ06Vm3NcaxmOo/V99fSHo+ZxrzrGB7NM3wR8dqxamtZx4q1HsOu98mZwwLdJubs783Z+2HK+WwpH9s+vstgjjcsroGHwxrgMMx4nN7f9sU4B7ZlPgGL8R7qP/OGzWA9rx/sRQEMj6AfsDQRsRMRF/Vi9euU0pM5Hns3pfRpSumbOsE7dWR6qxyrZ45Vbzyc8YXM+v8AhujjjtdswQiu6Ziz35txnMzZgW3kGhjmc8/GLQAwA+t5w2IvCqAnBP2ApajVC96llB4s6SGf1QV0d8z33zN336zVrO+RrotmgEG75edP2WS0uASVOTvAUrgGhts9NUYAQBfreYNkLwqgJwT9GKrPc86xhI/XvgMWFxFl8e7FLQ90lVJ6lVL6JKX0OKX0WUrpzQxPftGHr3EL3PieSil9VI/XF/UYTvP1tg/imtx6wWsDCthwt53jnANh9jn72zpfvz8xF/x8hnmgOfuS5Jwf3XadO+WZHi/wubBtXAMPhzXAYTrY9gFYJ/MJWIz30KCZNwyH9bzhsRcF0BOCfsAyTJvcva0XRjs554Oc82m5SMo5H48vmOsiehftPtYo53xRj9fzcgxTSh9O2+xwrNZilrujHBdgk1kYhNlMm7N/VefsD+t8/X36aS54NMM80Jwd2AiugWFpzA0AgGms5w2PvSiAnhD0A1oqIb9b7/Cod0d95Ej0X875co7y3KzIDIvnytwDm+y2RSYLTDBdCfnd2l6vzgPNKYCt4hoYFmIeDgB0sZ43QPaiAPpB0A9o6WzWxy53zTsSw1ArvMzSdpnVue3iysYUsJFmrBJSqok4D0K3mefhNfACsFVcA8Odad8LAPyM9bxBsxcF0AOCfgAwfLddXD1wjIENNevdve4CBgCA1drVvhcAuIH1vOGyFwXQA4J+ADB8nXdJWVQHNpyFQVic9wcA0Ip5BgBwnfW84bIXBdADgn4AMHzlLvmdjq/CxRWwyT6e8WtzLoQltU/JOUfHx2tjDABco30vAHCd9bzhshcF0AOCfgCwGR52fBUuroCNNOddomURaikhJxiwSwcPAGjkbcfDat8LAPzIet5GsBcFsGaCfgCwGbouorouugCGruu8d9Xx9xab2HZdQT9zBQBgUWdTPt88HAAYs543fPaiANZM0A8ANsPPLq5qCfV7ji+woboWlY47/t7CINuuawP+XkQcbfvgAAAL+6rjAZ4aWgCgsp43fPaiANZM0A8AhqWrHc7HN/ydO6iATXbTeS/lnLsCSxYG2Wo55/cppS86xuCFsB8AsKDTjk9/EBHWJwCAZD1vUOxFAfSUoB8Ac6l35tx4McZKvO56koi4ftHbdRH8xqEChmzKRuF4Aeqm89xuROw58GyznPPzlNKoYwhK2O+izvUAAOaSc57WvldVPwDYctbzBsdeFEBPCfoBMLN6QXVpxNbq/ZQ7qa5f8HZdXHVeoAEMRNf57eKW85y7gOGHu6yvOsbhQUrpXUR0VeQBAJimazNX0A8AsJ43LPaiAHpK0A+ATuUOq3JnTkQcR0SZ1H+TUro35VOEAFej6y7563fEdVVedHEFDF3X4tH459BFx79bGGTrlRa+OeedKYu1xbOIyLXCn/YrAMCstO8FALpYzxsee1EAPSTox1C9qBtPi36YHMIPbnxPpZT+mFL6OqX06S0Bv3LH9v2cs6DfanRdHP14cTVtAT3n7OIKGLrb7hLt+nlk7gdVzrnMFR7fMh6lwt8f69zwTFtfANbAGuCA5JynVQVW1Q+A1swb+s163vDYiwLoIUE/ABiYKRdHk3dNdV1cdbXRARiEunh0Y/h8fH7MOXfdAbwrqAQ/Ke+ZnHOklD5KKY1uGZonta3vhfcRADBF17qDTXoA2FLW84bJXhRAPwn6AbAMH9eN3z2juTI3XiRN3G3YdSzcQQUMXdcG4fXzog1GmFFZTM8579XQ3ye3fNaDOu87Mr4AwA26qvp9bN0IALaW9bzhshcF0DOCfgzV52UTagkfJhnwg1vfUymlD1NKb28ZLwu2q9N1/np07dfrnPeAoZv1/HbbeRK4QWm5N1Hl72rKGJWWSNPa8wHAMlgDHJhb2vcebPv4ANCUeUN/Wc8bLntRAD0j6AfATHLOlznnhzNUeWE1bru4+vimf7RIAWyArsWjy2t/tjAIC6hV/kprnMdTHuVZRBwbZwDgGtV4AIBJ1vOGy14UQM8I+gEwl3pn9siordeUi6S9iZLp13UttAMMQkSUwPm9jtd6ccufxx5ExI4jDrMpc45a4a+rsvOn9b0JADB21jES2vcCwJaxnjds9qIA+kfQD4C7uH6XFetx08XSbkrpacercQcVMHSdd++W6mPX/vx+SjDdXcAwp1rZues9dWQ8AYAJ2vcCAGPW84bPXhRAjwj6AcBwdV0subgCNlXngl5E5OsfdcHpJhYG4W66NuafGE8AYKxu0mvfCwAk63kbwV4UQI8I+gHAcHVdLN14ITylxDrAUCxrQc/CINzBtLmENnwAwDWd7XtTSlrvAcD2sJ43fPaiAHpE0A8ABmrOi6WuO+kBBiEiStvQe0t6rQ8iwuYiLJegHwAwaVr73gdGCgA2n/W8zWAvCqBfBP0AYNhmvWhyBxUwdNPu2r2fc46bPqZ8jruA2SoRcXRTS5zy974TAIBlu6V9LwCwHaznbQ57UQA9IegHAMM260WTiytg6B52vP5R3UTs8rbj7y0MAgBAW9YiAGC7Wc/bHPaiAHpC0A8Ahm2mi6Y5S6sD9FHXQt7lLa+169+7FhoBAIDlmNa+FwDYfNbzNoe9KICeEPQDWpp5wh0Re44EzG/GiyatcvrlYNZXU8+NH2/JuECn+l7Y7fj3286DFx1/770FPzBnh+Uwx9tQEbHjeMHd5JwvrUkAwHaynrdZ7EUB9IegH9DSk4g4vu3x62S/a9IO3O62iyd3UPXLbkRc1g3DThFRghffbPtgQTWtLcdt57jOf48I7T7ghzn72W3jYM4OtzLH20D13HdbtRFgOmsSALCdrOdtHntRAD0g6Acsw7RF708jIkfE64h4Ot70KIvlEfE8It7XTY57HZ9/pcwz3OrOF8U0NW3cy52M7+r58TQiDsoCRf31rPx9SumP016ccyNbpnMB77b3wi3/bmGQbTJtzv6k/ky6qD+LxnP2hxFxZM4Of8Ucb4PV8145ZscznPscL5iN9r0AsJ2s520ee1EAPSDoByws51wW7D6/5XFKOe0vx5sedbH8D9MWzKuZW4nBFlvkophG6rh/NsOjP0spvUwpfV1/fTLD5zx23FbiRd2oX/TD4tPiusZw1nYQXf/PsWFrzDhnf1B/Fr2bCCS9MGeHn5jjbYwb53n1vFeO2acznPscr9UwJx+42r737baPAwArYd7QL9bzNo+9KIAeEPQDliLnfJRSur/EhbtXOeeoi4HAFLdcPM160UwDOefjRudGF8xsjdoyb7fj6531vdA1n/jYdxLbxJwdlsMcb+s5XjC/M2MGANvDet5mshcF0A+CfsDS5Jzf55wflgXvemf7V3M89iil9EVK6cO6YH7gyMBcui6ibD6tWce58WrGV1X+3yvnRrbctLt0Zw0XXXT9g7u02TYL/lwyZ4fKHG+rOF6wOEE/ANgu1vM2l70ogHVKKf1/gISxPnjfeUkAAAAASUVORK5CYII=;" vertex="1" parent="1">
          <mxGeometry x="40" y="30" width="197.99" height="60" as="geometry" />
        </mxCell>
        <mxCell id="7PBAXSSDIrvYe4UH8ej_-2" value="&lt;font style=&quot;font-size: 26px;&quot;&gt;ANALOG DATA MANAGER&lt;/font&gt;" style="text;html=1;align=center;verticalAlign=middle;whiteSpace=wrap;rounded=0;" vertex="1" parent="1">
          <mxGeometry x="460" y="60" width="340" height="30" as="geometry" />
        </mxCell>
        <mxCell id="7PBAXSSDIrvYe4UH8ej_-5" value="Return array" style="rounded=1;whiteSpace=wrap;html=1;" vertex="1" parent="1">
          <mxGeometry x="540" y="1090" width="120" height="60" as="geometry" />
        </mxCell>
      </root>
    </mxGraphModel>
  </diagram>
</mxfile>
